<?xml version="1.0" encoding="UTF-8" standalone="no"?>
<svg
   xmlns:dc="http://purl.org/dc/elements/1.1/"
   xmlns:cc="http://creativecommons.org/ns#"
   xmlns:rdf="http://www.w3.org/1999/02/22-rdf-syntax-ns#"
   xmlns:svg="http://www.w3.org/2000/svg"
   xmlns="http://www.w3.org/2000/svg"
   xmlns:sodipodi="http://sodipodi.sourceforge.net/DTD/sodipodi-0.dtd"
   xmlns:inkscape="http://www.inkscape.org/namespaces/inkscape"
   width="768"
   height="1024"
   viewBox="0 0 203.2 270.93334"
   version="1.1"
   id="svg8"
   inkscape:version="1.0.2 (e86c870879, 2021-01-15)"
   sodipodi:docname="character-prototype-female-2.svg"
   inkscape:export-filename="small_smile_2.png"
   inkscape:export-xdpi="96"
   inkscape:export-ydpi="96">
  <title
     id="title914">Blue skirt and blaser</title>
  <defs
     id="defs2" />
  <sodipodi:namedview
     id="base"
     pagecolor="#ffffff"
     bordercolor="#666666"
     borderopacity="1.0"
     inkscape:pageopacity="0.0"
     inkscape:pageshadow="2"
     inkscape:zoom="0.92307325"
     inkscape:cx="428.10774"
     inkscape:cy="592.46332"
     inkscape:document-units="px"
     inkscape:current-layer="layer11"
     inkscape:document-rotation="0"
     showgrid="false"
     inkscape:window-width="1920"
     inkscape:window-height="1016"
     inkscape:window-x="0"
     inkscape:window-y="0"
     inkscape:window-maximized="1"
     showguides="true"
     units="px" />
  <metadata
     id="metadata5">
    <rdf:RDF>
      <cc:Work
         rdf:about="">
        <dc:format>image/svg+xml</dc:format>
        <dc:type
           rdf:resource="http://purl.org/dc/dcmitype/StillImage" />
        <dc:title>Blue skirt and blaser</dc:title>
        <dc:creator>
          <cc:Agent>
            <dc:title>NiceMicro</dc:title>
          </cc:Agent>
        </dc:creator>
      </cc:Work>
    </rdf:RDF>
  </metadata>
  <g
     inkscape:groupmode="layer"
     id="layer3"
     inkscape:label="Left hand"
     style="display:inline;mix-blend-mode:normal">
    <path
       style="fill:#b400b4;fill-opacity:1;stroke:#000000;stroke-width:2.64583;stroke-linecap:butt;stroke-linejoin:miter;stroke-miterlimit:4;stroke-dasharray:none;stroke-opacity:1"
       d="m 144.67618,216.62498 c 0,0 1.12785,3.96189 1.41752,5.9947 0.25616,1.79755 0.71269,3.67738 0.27714,5.44009 -0.37382,1.51285 -1.20797,2.99968 -2.38509,4.02089 -1.10686,0.96025 -2.60097,1.5463 -4.05958,1.68666 -1.77657,0.17097 -3.67632,-0.22352 -5.24559,-1.07372 -1.18154,-0.64012 -2.44463,-1.58081 -2.83428,-2.86686 -0.47021,-1.552 0.78124,-3.16093 0.92507,-4.7762 0.23634,-2.65433 -0.10953,-7.99376 -0.10953,-7.99376 z"
       id="path956-6"
       sodipodi:nodetypes="caaaaaaacc" />
    <path
       style="fill:#ffffff;fill-opacity:0;stroke:#000000;stroke-width:2.91042;stroke-linecap:butt;stroke-linejoin:miter;stroke-miterlimit:4;stroke-dasharray:none;stroke-opacity:1"
       d="m 130.69525,183.02122 1.96659,34.03556 c 0,0 4.76084,-0.35616 7.14338,-0.29916 2.46271,0.0589 7.36055,0.662 7.36055,0.662 l 0.44239,-33.67433"
       id="path954-7"
       sodipodi:nodetypes="ccacc" />
    <path
       style="fill:#002fb5;fill-opacity:1;stroke:#000000;stroke-width:2.74681;stroke-linecap:butt;stroke-linejoin:miter;stroke-miterlimit:4;stroke-dasharray:none;stroke-opacity:1"
       d="m 130.69525,183.02122 1.96659,34.03556 c 0,0 4.76084,-0.35616 7.14338,-0.29916 2.46271,0.0589 7.36055,0.662 7.36055,0.662 l 0.44239,-33.67433"
       id="path966-6"
       sodipodi:nodetypes="ccacc" />
    <path
       style="display:inline;fill:#00268a;fill-opacity:1;stroke:none;stroke-width:0.264583px;stroke-linecap:butt;stroke-linejoin:miter;stroke-opacity:1"
       d="m 132.66184,217.05678 -1.20278,-22.5301 c 0,0 2.7135,11.47671 6.2084,16.00958 2.38748,3.09655 9.49831,6.88336 9.49831,6.88336 l -7.15933,-1.00266 z"
       id="path1048-3"
       sodipodi:nodetypes="ccaccc" />
    <path
       style="fill:none;fill-opacity:1;stroke:#000000;stroke-width:2.74681;stroke-linecap:butt;stroke-linejoin:miter;stroke-miterlimit:4;stroke-dasharray:none;stroke-opacity:1"
       d="m 130.69525,183.02122 1.96659,34.03556 c 0,0 4.76084,-0.35616 7.14338,-0.29916 2.46271,0.0589 7.36055,0.662 7.36055,0.662 l 0.44239,-33.67433"
       id="path1080"
       sodipodi:nodetypes="ccacc" />
  </g>
  <g
     inkscape:label="Body"
     inkscape:groupmode="layer"
     id="layer1"
     style="display:inline">
    <path
       id="path889-7"
       style="display:inline;fill:#b400b4;fill-opacity:0.998408;stroke:#000000;stroke-width:2.64583;stroke-linecap:butt;stroke-linejoin:miter;stroke-miterlimit:4;stroke-dasharray:none;stroke-opacity:1"
       d="m 101.53042,36.985856 c -8.824771,-0.0057 -16.457444,2.1374 -24.052793,6.753593 -6.99573,5.578325 -15.800833,10.919241 -20.025837,17.541566 -0.203158,0.799588 -0.112437,1.714429 -0.128669,2.573021 -0.304454,16.104306 0.58756,48.317984 0.58756,48.317984 -0.02564,-1.41023 -0.257657,-6.79318 -2.313041,-8.42069 -1.314598,-1.04094 -3.480573,-0.77925 -5.028634,-0.13487 -1.801902,0.75004 -3.289183,2.45109 -4.012673,4.26382 -1.570969,3.93611 -0.877441,8.55623 -0.05633,12.71395 0.433744,2.19627 1.203687,4.43516 2.580203,6.20066 2.912856,3.73597 11.393104,8.4956 11.393104,8.4956 l 0.806928,17.19753 17.740261,72.80111 h 53.505261 l 15.4975,-72.80111 -0.90666,-86.071362 c 0.0271,-1.138539 0.0407,-2.618574 -0.0672,-3.122809 -6.27173,-7.924938 -13.59006,-16.092189 -21.15199,-20.033401 -8.66833,-4.412033 -15.88052,-6.269049 -24.36699,-6.274555 z"
       sodipodi:nodetypes="cccacssssscccccccccc" />
    <path
       style="display:inline;fill:none;stroke:#000000;stroke-width:2.64583;stroke-linecap:butt;stroke-linejoin:miter;stroke-miterlimit:4;stroke-dasharray:none;stroke-opacity:1"
       d="m 113.951,103.40194 c 0,0 3.07453,5.46622 4.69657,8.14928 1.35668,2.24411 4.27123,4.02404 4.21007,6.64566 -0.0446,1.91127 -1.5637,3.87913 -3.29192,4.69658 -1.58304,0.74878 -3.5128,-0.10011 -5.23848,-0.39795 -1.40177,-0.24194 -4.11741,-1.1218 -4.11741,-1.1218"
       id="path942"
       sodipodi:nodetypes="caaaac" />
    <path
       style="display:inline;fill:none;stroke:#000000;stroke-width:2.64583;stroke-linecap:butt;stroke-linejoin:miter;stroke-miterlimit:4;stroke-dasharray:none;stroke-opacity:1"
       d="m 79.051878,95.216119 c 0,0 4.843506,0.508961 7.275199,0.557621 2.319354,0.04641 6.954825,-0.253834 6.954825,-0.253834"
       id="path943-3"
       sodipodi:nodetypes="cac" />
    <path
       style="display:inline;fill:none;stroke:#000000;stroke-width:2.64583;stroke-linecap:butt;stroke-linejoin:miter;stroke-miterlimit:4;stroke-dasharray:none;stroke-opacity:1"
       d="m 128.42907,95.026321 c 0,0 5.61148,0.514731 8.42539,0.526007 2.13759,0.0086 6.40335,-0.348277 6.40335,-0.348277"
       id="path945"
       sodipodi:nodetypes="cac" />
  </g>
  <g
     inkscape:groupmode="layer"
     id="layer11"
     inkscape:label="Mouth"
     style="display:inline">
    <path
       style="display:inline;mix-blend-mode:normal;fill:#440303;fill-opacity:1;stroke:none;stroke-width:1.95763;stroke-linecap:butt;stroke-linejoin:miter;stroke-miterlimit:4;stroke-dasharray:none;stroke-opacity:1"
       d="m 103.82331,143.65983 c 0,0 -1.12852,-1.86291 -1.03933,-3.54649 5.51066,1.21205 7.00447,1.74266 10.54551,1.48963 3.22592,-0.23052 6.52457,-1.394 9.31648,-2.70931 -0.006,0.64215 0.58929,1.97144 0.35235,2.92421 -0.38419,1.5449 -2.72575,3.92161 -2.72575,3.92161 0,0 -3.59359,1.29592 -5.47436,1.40517 -1.89807,0.11025 -3.79103,-0.17373 -5.65174,-0.7689 -1.81488,-0.5805 -5.32316,-2.71592 -5.32316,-2.71592 z"
       id="path905"
       sodipodi:nodetypes="ccacacaac" />
  </g>
  <g
     inkscape:groupmode="layer"
     id="layer9"
     inkscape:label="Left Leg"
     style="display:inline">
    <path
       style="display:inline;fill:#000000;fill-opacity:1;stroke:#000000;stroke-width:2.19745;stroke-linecap:butt;stroke-linejoin:miter;stroke-miterlimit:4;stroke-dasharray:none;stroke-opacity:1"
       d="m 118.99108,259.2473 -0.62568,3.17392 c 0,0 -1.2613,0.81498 -1.48228,1.47642 -0.38488,1.15201 0.51753,3.60689 0.51753,3.60689 h 4.75468 l 1.71784,-2.64583 h 11.772 c 0,0 5.32675,2.62342 8.19818,2.64583 6.12072,0.0478 17.97603,0 17.97603,0 0,0 -3.61454,-3.59167 -5.73565,-4.97056 -2.42807,-1.57843 -7.86498,-3.69118 -7.86498,-3.69118 z"
       id="path1070-9"
       sodipodi:nodetypes="ccaccccscacc" />
    <path
       style="display:inline;fill:#000000;fill-opacity:1;stroke:none;stroke-width:3.29618;stroke-linecap:butt;stroke-linejoin:miter;stroke-miterlimit:4;stroke-dasharray:none;stroke-opacity:1"
       d="m 143.97206,232.21976 0.0946,25.78475 -23.97592,0.69142 -0.29324,-16.97663"
       id="path2571-1-6"
       sodipodi:nodetypes="cccc" />
  </g>
  <g
     inkscape:groupmode="layer"
     id="layer8"
     inkscape:label="Pants"
     style="display:inline">
    <path
       style="display:inline;fill:#000000;fill-opacity:1;stroke:none;stroke-width:0.330297;stroke-linecap:butt;stroke-linejoin:miter;stroke-miterlimit:4;stroke-dasharray:none;stroke-opacity:1"
       d="m 67.291817,247.08519 -0.870776,-15.97735 78.266999,-1.8011 -0.53721,19.17161 -17.71912,1.16532 -32.217328,0.70687 z"
       id="path2546"
       sodipodi:nodetypes="ccccccc" />
  </g>
  <g
     inkscape:groupmode="layer"
     id="layer10"
     inkscape:label="Right Leg"
     style="display:inline">
    <path
       style="display:inline;fill:#000000;fill-opacity:1;stroke:none;stroke-width:3.29618;stroke-linecap:butt;stroke-linejoin:miter;stroke-miterlimit:4;stroke-dasharray:none;stroke-opacity:1"
       d="m 66.788134,234.26718 0.200406,26.08967 26.292998,-0.21603 0.221952,-16.3741"
       id="path2571-1"
       sodipodi:nodetypes="cccc" />
    <path
       style="display:inline;fill:#000000;fill-opacity:1;stroke:#000000;stroke-width:2.19745;stroke-linecap:butt;stroke-linejoin:miter;stroke-miterlimit:4;stroke-dasharray:none;stroke-opacity:1"
       d="m 65.761898,259.70416 -1.684012,2.64475 c 0,0 -1.2613,0.81498 -1.48228,1.47642 -0.384881,1.15201 0.517535,3.60689 0.517535,3.60689 h 4.754682 l 1.717837,-2.64583 h 11.772004 c 0,0 5.326745,2.62342 8.198173,2.64583 6.120726,0.0478 17.976033,0 17.976033,0 0,0 -3.61184,-3.59583 -5.73565,-4.97056 -2.100171,-1.35943 -6.806653,-3.16201 -6.806653,-3.16201 z"
       id="path1070-9-6"
       sodipodi:nodetypes="ccaccccscacc" />
  </g>
  <g
     inkscape:groupmode="layer"
     id="layer7"
     inkscape:label="Clothes"
     style="display:inline">
    <rect
       style="display:inline;fill:#000000;fill-opacity:1;stroke:none;stroke-width:1.11667;stroke-miterlimit:4;stroke-dasharray:none;stroke-opacity:1"
       id="rect2526"
       width="74.403999"
       height="6.4225893"
       x="66.782402"
       y="224.92017"
       ry="1.695559"
       rx="1.3915335" />
    <path
       style="display:inline;fill:#00258f;fill-opacity:1;stroke:#00258f;stroke-width:0.264583;stroke-linecap:butt;stroke-linejoin:miter;stroke-miterlimit:4;stroke-dasharray:none;stroke-opacity:1"
       d="m 101.60046,252.99665 8.05433,2.11667 8.05434,-2.11667 -1.81571,-25.52326 -12.90297,-0.0909 z"
       id="path1026"
       sodipodi:nodetypes="cccccc" />
    <path
       style="display:inline;fill:#001d6c;fill-opacity:1;stroke:#001d6b;stroke-width:0.264583;stroke-linecap:butt;stroke-linejoin:miter;stroke-miterlimit:4;stroke-dasharray:none;stroke-opacity:1"
       d="m 65.209206,252.99665 10.836942,2.11667 8.05434,-2.11667 8.238457,-25.52326 -14.714743,-0.35997 z"
       id="path1030"
       sodipodi:nodetypes="cccccc" />
    <path
       style="display:inline;fill:#002fb3;fill-opacity:1;stroke:#002fb3;stroke-width:0.264583;stroke-linecap:butt;stroke-linejoin:miter;stroke-miterlimit:4;stroke-dasharray:none;stroke-opacity:1"
       d="m 133.24728,252.99665 8.05433,2.11667 8.05434,-2.11667 -17.69071,-25.52326 -8.66964,-0.0909 z"
       id="path1032"
       sodipodi:nodetypes="cccccc" />
    <path
       style="display:inline;fill:#002fb2;fill-opacity:1;stroke:#0030b8;stroke-width:0.264583;stroke-linecap:butt;stroke-linejoin:miter;stroke-miterlimit:4;stroke-dasharray:none;stroke-opacity:1"
       d="m 84.100488,252.99665 9.445641,2.11667 8.054331,-2.11667 1.38999,-25.61416 -10.651505,0.0909 z"
       id="path1038"
       sodipodi:nodetypes="cccccc" />
    <path
       style="display:inline;fill:#0038d6;fill-opacity:1;stroke:#0038d6;stroke-width:0.264583;stroke-linecap:butt;stroke-linejoin:miter;stroke-miterlimit:4;stroke-dasharray:none;stroke-opacity:1"
       d="m 117.70913,252.99665 8.05433,2.11667 7.48382,-2.11667 -10.25168,-25.61416 -7.10218,0.0909 z"
       id="path1040"
       sodipodi:nodetypes="cccccc" />
    <path
       style="display:inline;fill:#002494;fill-opacity:1;stroke:#002594;stroke-width:0.264583;stroke-linecap:butt;stroke-linejoin:miter;stroke-miterlimit:4;stroke-dasharray:none;stroke-opacity:1"
       d="m 55.763565,254.58415 9.445641,-1.5875 12.414996,-25.88323 -7.433758,0.25406 z"
       id="path1042"
       sodipodi:nodetypes="ccccc" />
    <path
       style="display:inline;fill:#0040fa;fill-opacity:1;stroke:#0040fa;stroke-width:0.264583;stroke-linecap:butt;stroke-linejoin:miter;stroke-miterlimit:4;stroke-dasharray:none;stroke-opacity:1"
       d="m 149.35595,252.99665 7.86416,1.5875 -19.55714,-26.84741 -5.99773,-0.26335 z"
       id="path1044"
       sodipodi:nodetypes="ccccc" />
    <path
       style="display:inline;fill:none;fill-opacity:1;stroke:#000000;stroke-width:3.302;stroke-linecap:butt;stroke-linejoin:miter;stroke-miterlimit:4;stroke-dasharray:none;stroke-opacity:1"
       d="m 55.763565,254.58415 14.426879,-27.21667 67.472526,0.36926 19.55714,26.84741 -7.86416,-1.5875 -7.86417,2.11667 -7.86416,-2.11667 -7.86416,2.11667 -8.05433,-2.11667 -8.05434,2.11667 -8.05433,-2.11667 -8.054331,2.11667 -9.445641,-2.11667 -9.445641,2.11667 -9.445641,-2.11667 z"
       id="path1028"
       sodipodi:nodetypes="cccccccccccccccc" />
    <path
       style="fill:#ffffff;fill-opacity:1;stroke:none;stroke-width:2.64583;stroke-linecap:butt;stroke-linejoin:miter;stroke-miterlimit:4;stroke-dasharray:none;stroke-opacity:1"
       d="m 70.55384,224.92017 h 70.63256 l 6.75697,-73.50065 c 0,0 -10.47477,5.10126 -15.40189,8.18855 -7.09083,4.44306 -11.82647,14.79171 -20.27198,14.8065 -8.44551,0.0148 -13.042884,-11.26781 -20.701119,-15.00903 -9.436832,-4.6101 -30.267818,-8.75333 -30.267818,-8.75333 z"
       id="path952"
       sodipodi:nodetypes="cccazacc" />
    <path
       style="fill:none;fill-opacity:1;stroke:#000000;stroke-width:2.64583;stroke-linecap:butt;stroke-linejoin:miter;stroke-miterlimit:4;stroke-dasharray:none;stroke-opacity:1"
       d="m 67.378843,224.92017 71.634957,0.50499 8.92957,-74.00564 c 0,0 -8.99573,4.01891 -13.16429,6.61523 -7.91939,4.93247 -17.30616,16.86516 -22.30866,16.90376 -5.0025,0.0386 -15.160361,-12.46781 -23.947293,-16.6113 -8.527405,-4.02111 -27.222561,-7.675 -27.222561,-7.675 z"
       id="path1336"
       sodipodi:nodetypes="cccazacc" />
    <path
       id="path974"
       style="fill:#002380;fill-opacity:1;stroke:none;stroke-width:10;stroke-linecap:butt;stroke-linejoin:miter;stroke-miterlimit:4;stroke-dasharray:none;stroke-opacity:1"
       d="m 221.6875,559.39453 23.22019,253.56456 -10.24753,69.13271 111.2539,0.53711 26,-166.87598 -44,-124.87597 C 292.66588,583.45166 221.6875,559.39453 221.6875,559.39453 Z"
       sodipodi:nodetypes="ccccccc"
       transform="scale(0.26458334)" />
    <path
       id="path976"
       style="fill:#002fb5;fill-opacity:1;stroke:none;stroke-width:9.99999;stroke-linecap:butt;stroke-linejoin:miter;stroke-miterlimit:4;stroke-dasharray:none;stroke-opacity:1"
       d="m 569.24127,560.66944 c 0,0 -42.25983,22.48877 -58.3754,27.4237 -1.77311,0.54296 -4.99162,2.36006 -6.72915,3.02991 l -28,126.26171 12,164.26172 L 565.40625,882 550.43328,801.86196 Z"
       transform="scale(0.26458334)"
       sodipodi:nodetypes="cscccccc" />
    <path
       style="fill:#0036c2;fill-opacity:1;stroke:none;stroke-width:2.64583;stroke-linecap:butt;stroke-linejoin:miter;stroke-miterlimit:4;stroke-dasharray:none;stroke-opacity:1"
       d="m 91.523097,225.06224 c 0,0 1.75198,-14.60036 2.02061,-21.93959 0.0703,-1.9205 0.32246,-3.89132 -0.10763,-5.76436 -0.53811,-2.34346 -1.79655,-4.48146 -3.02502,-6.54839 -2.45894,-4.1372 -8.61975,-11.58298 -8.61975,-11.58298 l 6.57779,-12.10419 -9.72155,-0.45896 c 0,0 0.0987,-3.98855 -0.53814,-5.83511 -0.6544,-1.89753 -1.75531,-3.73473 -3.26074,-5.06234 -4.48935,-3.95906 -16.193848,-7.75985 -16.193848,-7.75985 l 28.105778,8.32973 11.64167,33.0401 z"
       id="path1010"
       sodipodi:nodetypes="caacccaaacccc" />
    <path
       style="fill:#001c61;fill-opacity:1;stroke:none;stroke-width:0.264583px;stroke-linecap:butt;stroke-linejoin:miter;stroke-opacity:1"
       d="m 64.151829,194.06283 0.646666,21.0326 -2.711326,18.29137 29.435928,0.1421 c 0,0 -15.198115,-4.4972 -18.176007,-10.90432"
       id="path1046"
       sodipodi:nodetypes="ccccc" />
    <path
       style="fill:none;stroke:#000000;stroke-width:2.64583;stroke-linecap:butt;stroke-linejoin:miter;stroke-miterlimit:4;stroke-dasharray:none;stroke-opacity:1"
       d="m 58.654819,148.00647 c 0,0 11.704498,3.80079 16.193848,7.75985 1.50543,1.32761 2.606341,3.16481 3.26074,5.06234 0.636823,1.84656 0.538141,5.83511 0.538141,5.83511 l 9.721547,0.45896 -6.577783,12.10419 c 0,0 6.160804,7.44578 8.619744,11.58298 1.228477,2.06693 2.486916,4.20493 3.025021,6.54839 0.430089,1.87304 0.153448,3.84312 0.10763,5.76436 -0.242173,10.15489 -2.02061,30.40625 -2.02061,30.40625"
       id="path1008"
       sodipodi:nodetypes="caacccaaac" />
    <path
       id="path1004"
       style="fill:none;fill-opacity:1;stroke:#000000;stroke-width:10;stroke-linecap:butt;stroke-linejoin:miter;stroke-miterlimit:4;stroke-dasharray:none;stroke-opacity:1"
       d="m 221.6875,559.39453 23.22019,253.56456 -10.24753,69.13271 111.2539,0.53711 26,-166.87598 -44,-124.87598 C 292.66588,583.45165 221.6875,559.39453 221.6875,559.39453 Z"
       sodipodi:nodetypes="ccccccc"
       transform="scale(0.26458334)" />
    <path
       style="fill:#0040f5;fill-opacity:1;stroke:none;stroke-width:2.64583;stroke-linecap:butt;stroke-linejoin:miter;stroke-miterlimit:4;stroke-dasharray:none;stroke-opacity:1"
       d="m 129.15284,233.26897 c 0,0 -0.34491,-19.85573 0.63175,-29.71456 0.21461,-2.16636 0.65811,-4.30793 1.14498,-6.42975 0.71406,-3.11198 1.63734,-7.15203 2.59986,-9.21896 1.92661,-4.1372 7.51298,-9.42769 7.51298,-9.42769 l -5.10914,-10.0898 c 0,0 4.29528,0.14541 5.52263,-1.29268 1.26596,-1.48333 0.10029,-3.91166 0.42164,-5.83511 0.32935,-1.97134 0.53375,-4.0665 1.53534,-5.79608 1.69141,-2.92077 7.19888,-7.12055 7.19888,-7.12055 l -17.22558,8.05752 -7.40837,33.40675 z"
       id="path1014"
       sodipodi:nodetypes="caacccaaacccc" />
    <path
       style="fill:none;stroke:#000000;stroke-width:2.64583;stroke-linecap:butt;stroke-linejoin:miter;stroke-miterlimit:4;stroke-dasharray:none;stroke-opacity:1"
       d="m 150.61176,148.34379 c 0,0 -5.30235,4.96098 -7.09234,8.05981 -0.85479,1.47981 -1.30391,3.18162 -1.64185,4.85682 -0.38563,1.9116 -0.42164,5.83511 -0.42164,5.83511 l -5.52266,1.29268 5.10914,10.0898 c 0,0 -6.78957,7.07432 -8.59019,11.51025 -1.67206,4.11922 -1.32518,8.79708 -1.7297,13.22428 -0.91287,9.99085 -1.56968,30.05643 -1.56968,30.05643"
       id="path1016"
       sodipodi:nodetypes="caacccaac" />
    <path
       id="path1006"
       style="fill:none;fill-opacity:1;stroke:#000000;stroke-width:9.99999;stroke-linecap:butt;stroke-linejoin:miter;stroke-miterlimit:4;stroke-dasharray:none;stroke-opacity:1"
       d="m 569.24127,560.66944 c -19.39728,12.01002 -44.73957,22.6307 -65.10455,30.45361 l -28,126.26171 12,164.26172 L 565.40625,882 550.43328,801.86196 Z"
       sodipodi:nodetypes="ccccccc"
       transform="scale(0.26458334)" />
  </g>
  <g
     inkscape:groupmode="layer"
     id="layer2"
     inkscape:label="Right Hand"
     style="display:inline">
    <path
       style="fill:#b400b4;fill-opacity:1;stroke:#000000;stroke-width:2.64583;stroke-linecap:butt;stroke-linejoin:miter;stroke-miterlimit:4;stroke-dasharray:none;stroke-opacity:1"
       d="m 76.201369,216.62498 c 0,0 1.127848,3.96189 1.417526,5.9947 0.256154,1.79755 0.712689,3.67738 0.277134,5.44009 -0.373819,1.51285 -1.207968,2.99968 -2.385085,4.02089 -1.106858,0.96025 -2.600976,1.5463 -4.059577,1.68666 -1.77658,0.17097 -3.676324,-0.22352 -5.245599,-1.07372 -1.181533,-0.64012 -2.444628,-1.58081 -2.834273,-2.86686 -0.470211,-1.552 0.78124,-3.16093 0.925065,-4.7762 0.236343,-2.65433 -0.109532,-7.99376 -0.109532,-7.99376 z"
       id="path956"
       sodipodi:nodetypes="caaaaaaacc" />
    <path
       style="fill:#ffffff;fill-opacity:0;stroke:#000000;stroke-width:2.91042;stroke-linecap:butt;stroke-linejoin:miter;stroke-miterlimit:4;stroke-dasharray:none;stroke-opacity:1"
       d="m 62.220447,183.02122 1.966584,34.03556 c 0,0 4.760846,-0.35616 7.143376,-0.29916 2.462717,0.0589 7.360556,0.662 7.360556,0.662 l 0.442385,-33.67433"
       id="path954"
       sodipodi:nodetypes="ccacc" />
    <path
       style="fill:#002380;fill-opacity:1;stroke:#000000;stroke-width:2.74681;stroke-linecap:butt;stroke-linejoin:miter;stroke-miterlimit:4;stroke-dasharray:none;stroke-opacity:1"
       d="m 62.220447,183.02122 1.966584,34.03556 c 0,0 4.760846,-0.35616 7.143376,-0.29916 2.462717,0.0589 7.360556,0.662 7.360556,0.662 l 0.442385,-33.67433"
       id="path966"
       sodipodi:nodetypes="ccacc" />
    <path
       style="fill:#001c61;fill-opacity:1;stroke:none;stroke-width:0.264583px;stroke-linecap:butt;stroke-linejoin:miter;stroke-opacity:1"
       d="m 64.187032,217.05678 -1.202772,-22.5301 c 0,0 2.713499,11.47671 6.208395,16.00958 2.387483,3.09655 9.498309,6.88336 9.498309,6.88336 l -7.159326,-1.00266 z"
       id="path1048"
       sodipodi:nodetypes="ccaccc" />
    <path
       style="fill:none;fill-opacity:1;stroke:#000000;stroke-width:2.74681;stroke-linecap:butt;stroke-linejoin:miter;stroke-miterlimit:4;stroke-dasharray:none;stroke-opacity:1"
       d="m 62.220447,183.02122 1.966584,34.03556 c 0,0 4.760846,-0.35616 7.143376,-0.29916 2.462717,0.0589 7.360556,0.662 7.360556,0.662 l 0.442385,-33.67433"
       id="path1058"
       sodipodi:nodetypes="ccacc" />
  </g>
  <g
     inkscape:groupmode="layer"
     id="layer5"
     inkscape:label="Facial Hair"
     style="display:inline;opacity:1">
    <path
       id="path968"
       style="display:inline;fill:#00b400;fill-opacity:1;stroke-width:2.64583;stroke-linecap:round"
       d="m 137.70475,81.684423 a 13.446865,12.236486 86.56947 0 0 -3.70537,0.619599 13.446865,12.236486 86.56947 0 0 -7.96624,8.994801 17.017808,15.189388 83.968631 0 1 7.72817,-6.310728 17.017808,15.189388 83.968631 0 1 12.25769,1.619541 v -1.345139 a 13.446865,12.236486 86.56947 0 0 -8.31425,-3.578074 z" />
    <path
       id="path964"
       style="display:inline;fill:#00b400;fill-opacity:1;stroke-width:2.64582;stroke-linecap:round"
       d="m 90.924572,81.750807 a 13.207989,13.466658 20.044148 0 0 -15.786046,5.582541 16.377558,17.061354 20.044148 0 1 15.937692,-2.890354 16.377558,17.061354 20.044148 0 1 8.099178,6.634372 13.207989,13.466658 20.044148 0 0 -8.250824,-9.326559 z" />
    <path
       id="path893"
       style="display:inline;fill:#004f00;fill-opacity:1;stroke-width:2.64583;stroke-linecap:round"
       d="m 85.818262,86.869232 a 6.5700383,6.4438401 37.419148 0 0 -0.299415,-8.163518 8.3237986,7.990192 37.419148 0 1 -0.976195,7.841898 8.3237986,7.990192 37.419148 0 1 -4.269032,2.804518 6.5700383,6.4438401 37.419148 0 0 5.544642,-2.482898 z" />
    <path
       id="path918"
       style="display:inline;fill:#004f00;fill-opacity:1;stroke-width:2.64583;stroke-linecap:round"
       d="m 89.558298,86.188007 a 6.5700383,6.4438401 37.419148 0 0 -0.299415,-8.163518 8.3237986,7.990192 37.419148 0 1 -0.976195,7.841898 8.3237986,7.990192 37.419148 0 1 -4.269032,2.804518 6.5700383,6.4438401 37.419148 0 0 5.544642,-2.482898 z" />
    <path
       id="path920"
       style="display:inline;fill:#004f00;fill-opacity:1;stroke-width:2.64583;stroke-linecap:round"
       d="m 93.55247,86.359327 a 6.5700383,6.4438401 37.419148 0 0 -0.299415,-8.163518 8.3237986,7.990192 37.419148 0 1 -0.976195,7.841898 8.3237986,7.990192 37.419148 0 1 -4.269032,2.804518 6.5700383,6.4438401 37.419148 0 0 5.544642,-2.482898 z" />
    <path
       id="path922"
       style="display:inline;fill:#004f00;fill-opacity:1;stroke-width:2.64583;stroke-linecap:round"
       d="m 95.746956,87.454606 a 6.5700383,6.4438401 37.419148 0 0 -0.299415,-8.163518 8.3237986,7.990192 37.419148 0 1 -0.976197,7.841898 8.3237986,7.990192 37.419148 0 1 -4.269032,2.804518 6.5700383,6.4438401 37.419148 0 0 5.544644,-2.482898 z" />
    <path
       id="path924"
       style="display:inline;fill:#004f00;fill-opacity:1;stroke-width:2.64583;stroke-linecap:round"
       d="m 98.375939,88.323188 a 6.5700383,6.4438401 37.419148 0 0 -0.299415,-8.163518 8.3237986,7.990192 37.419148 0 1 -0.976196,7.841898 8.3237986,7.990192 37.419148 0 1 -4.26903,2.804519 6.5700383,6.4438401 37.419148 0 0 5.544641,-2.482899 z" />
    <path
       id="path926"
       style="display:inline;fill:#004f00;fill-opacity:1;stroke-width:2.64583;stroke-linecap:round"
       d="m 82.431567,88.041863 a 6.5700383,6.4438401 37.419148 0 0 -0.299416,-8.163518 8.3237986,7.990192 37.419148 0 1 -0.976195,7.841898 8.3237986,7.990192 37.419148 0 1 -4.269032,2.804518 6.5700383,6.4438401 37.419148 0 0 5.544643,-2.482898 z" />
    <path
       id="path936"
       style="display:inline;fill:#004f00;fill-opacity:1;stroke-width:2.64583;stroke-linecap:round"
       d="m 135.29707,87.320439 a 6.5700383,6.4438401 33.330955 0 0 -0.88065,-8.1214 8.3237986,7.990192 33.330955 0 1 -0.41465,7.89154 8.3237986,7.990192 33.330955 0 1 -4.05823,3.101729 6.5700383,6.4438401 33.330955 0 0 5.35353,-2.871869 z" />
    <path
       id="path939"
       style="display:inline;fill:#004f00;fill-opacity:1;stroke-width:2.64583;stroke-linecap:round"
       d="m 138.97902,86.374314 a 6.5700383,6.4438401 33.330955 0 0 -0.88065,-8.1214 8.3237986,7.990192 33.330955 0 1 -0.41464,7.891539 8.3237986,7.990192 33.330955 0 1 -4.05823,3.101729 6.5700383,6.4438401 33.330955 0 0 5.35352,-2.871868 z" />
    <path
       id="path941"
       style="display:inline;fill:#004f00;fill-opacity:1;stroke-width:2.64583;stroke-linecap:round"
       d="m 141.42951,86.372275 a 6.5700383,6.4438401 33.330955 0 0 -0.88065,-8.1214 8.3237986,7.990192 33.330955 0 1 -0.41465,7.891539 8.3237986,7.990192 33.330955 0 1 -4.05823,3.10173 6.5700383,6.4438401 33.330955 0 0 5.35353,-2.871869 z" />
    <path
       id="path944"
       style="display:inline;fill:#004f00;fill-opacity:1;stroke-width:2.64583;stroke-linecap:round"
       d="m 144.18659,86.742773 a 6.5700383,6.4438401 33.330955 0 0 -0.88065,-8.1214 8.3237986,7.990192 33.330955 0 1 -0.41465,7.891539 8.3237986,7.990192 33.330955 0 1 -4.05823,3.101729 6.5700383,6.4438401 33.330955 0 0 5.35353,-2.871868 z" />
    <path
       id="path946"
       style="display:inline;fill:#004f00;fill-opacity:1;stroke-width:2.64583;stroke-linecap:round"
       d="m 146.37936,87.420373 a 6.5700383,6.4438401 33.330955 0 0 -0.88065,-8.1214 8.3237986,7.990192 33.330955 0 1 -0.41464,7.891539 8.3237986,7.990192 33.330955 0 1 -4.05823,3.10173 6.5700383,6.4438401 33.330955 0 0 5.35352,-2.871869 z" />
    <path
       id="path948"
       style="display:inline;fill:#004f00;fill-opacity:1;stroke-width:2.64583;stroke-linecap:round"
       d="m 131.96486,88.203711 a 6.5700383,6.4438401 33.330955 0 0 -0.88064,-8.1214 8.3237986,7.990192 33.330955 0 1 -0.41465,7.891539 8.3237986,7.990192 33.330955 0 1 -4.05823,3.101729 6.5700383,6.4438401 33.330955 0 0 5.35352,-2.871868 z" />
  </g>
  <g
     inkscape:groupmode="layer"
     id="layer6"
     inkscape:label="Facewear"
     style="display:inline" />
  <g
     inkscape:groupmode="layer"
     id="layer4"
     inkscape:label="Hat Hair"
     style="display:inline">
    <path
       style="fill:#00b4b4;fill-opacity:1;stroke:none;stroke-width:0.264583px;stroke-linecap:butt;stroke-linejoin:miter;stroke-opacity:1"
       d="m 141.76925,78.560369 c 2.69709,1.358963 5.86956,2.660835 8.82638,2.045732 2.84569,-0.591986 5.73688,-2.577665 7.00476,-5.193175 1.5549,-3.207595 1.34237,-7.536589 -0.32163,-10.688964 -1.04599,-1.981576 -5.43359,-3.957619 -5.43359,-3.957619 0,0 1.70409,-5.931382 0.33361,-8.360488 -1.39698,-2.476071 -7.4702,-4.115648 -7.4702,-4.115648 0,0 0.83533,-4.132618 -0.11155,-5.830113 -1.17077,-2.098862 -3.70767,-3.417688 -6.06115,-3.904586 -1.35775,-0.280896 -4.1035,0.680228 -4.1035,0.680228 0,0 -2.40476,-2.596909 -3.98303,-3.280884 -1.39323,-0.603784 -2.99952,-0.620554 -4.51754,-0.5853 -0.8125,0.01887 -2.40081,0.425185 -2.40081,0.425185 0,0 -1.62388,-2.016118 -2.67926,-2.732738 -1.022,-0.693955 -2.19676,-1.241204 -3.41673,-1.435434 -2.1684,-0.345228 -4.43774,-0.0046 -6.56503,0.539295 -0.86639,0.221512 -2.45107,1.090642 -2.45107,1.090642 0,0 -1.38387,-1.848603 -2.4117,-2.217902 -1.42661,-0.512579 -3.08993,-0.194028 -4.54115,0.244063 -1.45453,0.439093 -3.926599,2.314744 -3.926599,2.314744 0,0 -3.43626,-1.837045 -5.325838,-2.00904 -2.251293,-0.204919 -4.528165,0.495192 -6.673231,1.208636 -1.67999,0.558761 -3.432951,1.191543 -4.752213,2.372275 -0.97943,0.876584 -2.140212,3.311893 -2.140212,3.311893 0,0 -2.144754,0.09871 -3.217834,0.126526 -1.436135,0.03722 -2.923863,-0.325272 -4.309515,0.05399 -1.158039,0.316963 -2.150366,1.090822 -3.122572,1.795333 -1.105204,0.800889 -2.165355,1.693982 -3.044767,2.737789 -0.431362,0.511999 -0.412684,1.415567 -1.069962,1.699742 -0.657279,0.284174 -1.482943,-0.436117 -2.245609,-0.438441 -1.779994,-0.0054 -3.648215,0.209208 -5.247185,0.991322 -1.406418,0.687931 -2.766187,1.736687 -3.52153,3.108079 -0.594021,1.078498 -0.58561,3.647085 -0.58561,3.647085 0,0 -4.219104,-0.307626 -5.880646,0.763085 -2.489538,1.60428 -3.958914,4.6794 -4.681664,7.551532 -0.428145,1.701403 0.271392,3.499645 0.325702,5.253249 0.01945,0.628005 0,1.884918 0,1.884918 0,0 -2.047728,1.248795 -2.925614,2.054654 -1.356761,1.245444 -2.911933,2.506133 -3.549974,4.233801 -0.741966,2.009071 -0.757895,4.399035 -0.06278,6.424793 0.310859,0.905934 1.105762,1.576653 1.786263,2.250647 0.466999,0.462534 1.556231,1.21094 1.556231,1.21094 0,0 -1.468189,1.423169 -1.825731,2.347838 -0.464083,1.200201 -0.476291,2.574736 -0.296881,3.848968 0.145483,1.033272 0.519325,2.061817 1.093193,2.933306 0.624551,0.948457 1.436703,1.867234 2.462622,2.354188 0.945698,0.448877 3.11657,0.386665 3.11657,0.386665 0,0 -1.414464,2.625148 -1.180063,3.993177 0.137893,0.804783 0.69529,1.641843 1.43665,1.984003 1.1112,0.51286 2.452785,-0.0896 3.66,-0.29069 1.147284,-0.19107 2.337718,-0.34999 3.380097,-0.86595 1.077323,-0.53326 2.094932,-1.283989 2.830095,-2.235053 1.015755,-1.314059 1.612204,-2.947991 2.003316,-4.56216 0.253152,-1.044792 0.198763,-3.218942 0.198763,-3.218942 0,0 1.398271,2.218584 2.509518,2.796164 0.938065,0.487567 2.11374,0.591328 3.149085,0.377435 1.966501,-0.406263 4.019684,-1.409389 5.207529,-3.028401 0.995607,-1.356995 1.111218,-4.925365 1.111218,-4.925365 0,0 2.250798,0.553623 3.389443,0.479422 1.550118,-0.101016 3.266159,-0.290012 4.490557,-1.246002 1.232668,-0.962447 1.943903,-2.562063 2.313403,-4.081683 0.184025,-0.756832 -0.09014,-2.334912 -0.09014,-2.334912 0,0 2.656316,0.639858 4.012724,0.742074 1.188008,0.08953 2.408547,0.139395 3.572249,-0.115898 1.038208,-0.227763 2.116213,-0.565657 2.937619,-1.240226 0.979798,-0.804646 1.689234,-1.961701 2.132466,-3.149557 0.538599,-1.443437 0.549183,-4.589204 0.549183,-4.589204 0,0 1.768196,2.038567 2.779088,2.925984 0.968711,0.850388 1.920776,1.818337 3.125251,2.277467 1.202839,0.458506 2.571966,0.583816 3.843025,0.380225 1.86783,-0.299179 3.72134,-1.102843 5.19031,-2.294657 0.5595,-0.453938 0.69706,-1.307995 1.26265,-1.754322 0.41419,-0.32685 1.46448,-0.600628 1.46448,-0.600628 0,0 0.61394,1.855019 1.31625,2.468446 1.43603,1.254294 3.45753,2.043276 5.36341,1.988127 1.62298,-0.04696 3.19578,-0.937631 4.46175,-1.954282 1.0597,-0.851001 2.40354,-3.293556 2.40354,-3.293556 0,0 1.14143,3.312853 2.26205,4.60457 1.00577,1.159326 2.37436,2.036692 3.80473,2.593165 2.06105,0.801835 4.46509,1.641171 6.5661,0.950798 1.40573,-0.46191 3.15964,-3.117947 3.15964,-3.117947 0,0 2.28497,2.458095 3.75259,3.197567 z"
       id="path917"
       sodipodi:nodetypes="aaaacacaacaacaaacaacaaacaaaacaaacaaacaaaacaaaacaaaaaacaaacaaacaaaacaaaaacaaacaaaca" />
    <path
       id="path994"
       style="fill:#00d0d0;fill-opacity:1;stroke:none;stroke-width:2.64583;stroke-linecap:round;stroke-miterlimit:4;stroke-dasharray:none;stroke-opacity:1"
       d="m 129.74144,56.672796 a 8.9294102,8.8420601 63.408914 0 0 -11.88934,-3.997549 8.9294102,8.8420601 63.408914 0 0 -4.59787,10.078227 9.5094586,8.033989 63.408914 0 1 4.0925,-7.417755 9.5094586,8.033989 63.408914 0 1 11.44095,4.907382 9.5094586,8.033989 63.408914 0 1 1.14192,4.135321 8.9294102,8.8420601 63.408914 0 0 -0.17358,-7.676511 8.9294102,8.8420601 63.408914 0 0 -0.0146,-0.02917 z" />
    <path
       id="path973"
       style="fill:#00e6e6;fill-opacity:1;stroke:none;stroke-width:2.64583;stroke-linecap:round;stroke-miterlimit:4;stroke-dasharray:none;stroke-opacity:1"
       d="m 50.096686,53.332664 a 8.884921,7.787019 56.965147 0 0 -7.092591,6.220291 8.884921,7.787019 56.965147 0 0 5.006928,9.872266 9.0830611,7.3706087 32.342271 0 1 -3.308842,-7.77317 9.0830611,7.3706087 32.342271 0 1 9.709486,-4.984708 9.0830611,7.3706087 32.342271 0 1 1.221113,0.439767 4.1203823,3.1774591 34.71032 0 1 -1.172538,-2.484086 8.884921,7.787019 56.965147 0 0 -2.151806,-0.961181 8.884921,7.787019 56.965147 0 0 -0.02946,-0.0088 8.884921,7.787019 56.965147 0 0 -2.182294,-0.320392 z" />
    <path
       id="path943"
       style="fill:#008f8f;fill-opacity:1;stroke:none;stroke-width:2.64583;stroke-linecap:round;stroke-miterlimit:4;stroke-dasharray:none;stroke-opacity:1"
       d="m 61.728221,45.241591 a 9.0025251,7.3317003 0 0 0 -8.969462,7.331945 9.0025251,7.3317003 0 0 0 7.011038,7.149835 9.587323,6.6616602 0 0 1 -4.840569,-5.787656 9.587323,6.6616602 0 0 1 9.587361,-6.661783 9.587323,6.6616602 0 0 1 4.243511,0.68816 9.0025251,7.3317003 0 0 0 -6.999056,-2.720501 9.0025251,7.3317003 0 0 0 -0.03283,0 z" />
    <path
       id="path953"
       style="fill:#008f8f;fill-opacity:1;stroke:none;stroke-width:2.64583;stroke-linecap:round;stroke-miterlimit:4;stroke-dasharray:none;stroke-opacity:1"
       d="m 98.047249,34.101795 a 11.807399,8.8725921 0.93283055 0 0 -16.480382,1.751693 11.807399,8.8725921 0.93283055 0 0 0.535659,11.070137 12.107387,8.3726914 12.75788 0 1 0.446101,-8.465136 12.107387,8.3726914 12.75788 0 1 16.489221,-0.737397 12.107387,8.3726914 12.75788 0 1 3.812542,3.185721 11.807399,8.8725921 0.93283055 0 0 -4.768549,-6.785517 11.807399,8.8725921 0.93283055 0 0 -0.03459,-0.0195 z" />
    <path
       id="path981"
       style="fill:#00e6e6;fill-opacity:1;stroke:none;stroke-width:9.99999;stroke-linecap:round;stroke-miterlimit:4;stroke-dasharray:none;stroke-opacity:1"
       d="m 433.92773,120.61523 a 33.748952,33.418809 70.248777 0 0 -11.41992,1.94922 33.748952,33.418809 70.248777 0 0 -21.79101,35.75 35.94126,30.364682 70.248777 0 1 18.69726,-25.99414 35.94126,30.364682 70.248777 0 1 40.15821,22.07617 25.650423,25.786157 0 0 1 7.36523,-5.26953 33.748952,33.418809 70.248777 0 0 -1.57031,-6.09375 33.748952,33.418809 70.248777 0 0 -0.043,-0.11718 33.748952,33.418809 70.248777 0 0 -31.39649,-22.30079 z"
       transform="scale(0.26458334)" />
    <path
       id="path955"
       style="fill:#008f8f;fill-opacity:1;stroke:none;stroke-width:2.64583;stroke-linecap:round;stroke-miterlimit:4;stroke-dasharray:none;stroke-opacity:1"
       d="m 134.41102,39.211159 a 8.9294102,8.8420601 49.010213 0 0 -12.50995,-0.915479 8.9294102,8.8420601 49.010213 0 0 -1.94731,10.904991 9.5094586,8.033989 49.010213 0 1 2.11939,-8.202422 9.5094586,8.033989 49.010213 0 1 12.30188,1.908228 9.5094586,8.033989 49.010213 0 1 2.13437,3.72147 8.9294102,8.8420601 49.010213 0 0 -2.07702,-7.392211 8.9294102,8.8420601 49.010213 0 0 -0.0214,-0.02461 z" />
    <path
       id="path959"
       style="fill:#008f8f;fill-opacity:1;stroke:none;stroke-width:2.64583;stroke-linecap:round;stroke-miterlimit:4;stroke-dasharray:none;stroke-opacity:1"
       d="m 40.579263,78.874249 a 8.8420601,8.9294102 5.8664864 0 0 7.886718,9.7538 8.8420601,8.9294102 5.8664864 0 0 9.288351,-6.036335 8.033989,9.5094586 5.8664864 0 1 -7.434119,4.062681 8.033989,9.5094586 5.8664864 0 1 -7.020089,-10.280861 8.033989,9.5094586 5.8664864 0 1 1.255788,-4.10218 8.8420601,8.9294102 5.8664864 0 0 -3.973321,6.570506 8.8420601,8.9294102 5.8664864 0 0 -0.0033,0.03242 z" />
    <path
       id="path996"
       style="fill:#00f4f4;fill-opacity:1;stroke:none;stroke-width:2.64583;stroke-linecap:round;stroke-miterlimit:4;stroke-dasharray:none;stroke-opacity:1"
       d="m 62.017339,64.187005 a 8.9294102,8.8420601 78.868878 0 1 6.958474,-10.436307 8.9294102,8.8420601 78.868878 0 1 9.803051,5.158611 9.5094586,8.033989 78.868878 0 0 -7.77554,-3.363418 9.5094586,8.033989 78.868878 0 0 -6.047142,10.881636 9.5094586,8.033989 78.868878 0 0 1.626884,3.969647 8.9294102,8.8420601 78.868878 0 1 -4.559441,-6.178222 8.9294102,8.8420601 78.868878 0 1 -0.0063,-0.03198 z" />
    <path
       id="path961"
       style="fill:#008383;fill-opacity:1;stroke:none;stroke-width:2.64583;stroke-linecap:round;stroke-miterlimit:4;stroke-dasharray:none;stroke-opacity:1"
       d="m 80.557309,52.128614 a 8.9294102,8.8420601 22.857712 0 0 -11.63274,4.692152 8.9294102,8.8420601 22.857712 0 0 3.058555,10.646881 9.5094586,8.033989 22.857712 0 1 -1.712906,-8.296835 9.5094586,8.033989 22.857712 0 1 11.883544,-3.709331 9.5094586,8.033989 22.857712 0 1 3.556145,2.399732 8.9294102,8.8420601 22.857712 0 0 -5.122595,-5.719951 8.9294102,8.8420601 22.857712 0 0 -0.03004,-0.01266 z" />
    <path
       id="path963"
       style="fill:#008f8f;fill-opacity:1;stroke:none;stroke-width:2.64583;stroke-linecap:round;stroke-miterlimit:4;stroke-dasharray:none;stroke-opacity:1"
       d="m 67.685491,85.7006 a 8.2340503,8.1535024 25.104623 0 0 10.888251,-3.902877 8.2340503,8.1535024 25.104623 0 0 -2.433292,-9.920803 8.7689286,7.4083583 25.104623 0 1 1.278347,7.70678 8.7689286,7.4083583 25.104623 0 1 -11.083814,2.98822 8.7689286,7.4083583 25.104623 0 1 -3.189938,-2.339722 8.2340503,8.1535024 25.104623 0 0 4.513257,5.455663 8.2340503,8.1535024 25.104623 0 0 0.02722,0.01275 z" />
    <path
       id="path965"
       style="fill:#008686;fill-opacity:1;stroke:none;stroke-width:2.64583;stroke-linecap:round;stroke-miterlimit:4;stroke-dasharray:none;stroke-opacity:1"
       d="m 113.74197,49.518466 a 8.9294102,8.8420601 86.602889 0 0 -9.354,-8.357014 8.9294102,8.8420601 86.602889 0 0 -8.195509,7.452821 9.5094586,8.033989 86.602889 0 1 6.683169,-5.206413 9.5094586,8.033989 86.602889 0 1 8.58351,9.016706 9.5094586,8.033989 86.602889 0 1 -0.57905,4.250833 8.9294102,8.8420601 86.602889 0 0 2.86381,-7.124432 8.9294102,8.8420601 86.602889 0 0 -0.002,-0.03255 z" />
    <path
       id="path967"
       style="fill:#008f8f;fill-opacity:1;stroke:none;stroke-width:2.64583;stroke-linecap:round;stroke-miterlimit:4;stroke-dasharray:none;stroke-opacity:1"
       d="m 104.75434,68.183193 a 8.9294102,8.8420601 88.873366 0 0 9.01557,8.721031 8.9294102,8.8420601 88.873366 0 0 8.48434,-7.122291 9.5094586,8.033989 88.873366 0 1 -6.88419,4.937564 9.5094586,8.033989 88.873366 0 1 -8.21956,-9.349692 9.5094586,8.033989 88.873366 0 1 0.747,-4.224553 8.9294102,8.8420601 88.873366 0 0 -3.1438,7.005388 8.9294102,8.8420601 88.873366 0 0 6.2e-4,0.0326 z" />
    <path
       id="path969"
       style="fill:#008f8f;fill-opacity:1;stroke:none;stroke-width:2.64583;stroke-linecap:round;stroke-miterlimit:4;stroke-dasharray:none;stroke-opacity:1"
       d="m 141.87989,78.60234 a 8.9294102,8.8420601 23.366722 0 0 11.67396,-4.588625 8.9294102,8.8420601 23.366722 0 0 -2.96385,-10.673632 9.5094586,8.033989 23.366722 0 1 1.63913,8.311724 9.5094586,8.033989 23.366722 0 1 -11.91603,3.603611 9.5094586,8.033989 23.366722 0 1 -3.53469,-2.43123 8.9294102,8.8420601 23.366722 0 0 5.07159,5.765238 8.9294102,8.8420601 23.366722 0 0 0.0299,0.01293 z" />
    <path
       id="path938"
       style="fill:none;fill-opacity:1;stroke:#000000;stroke-width:2.64583;stroke-linecap:butt;stroke-linejoin:miter;stroke-miterlimit:4;stroke-dasharray:none;stroke-opacity:1"
       d="m 147.9207,81.994618 c 1.01138,0.0087 1.38881,0.05825 2.31881,-0.210862 3.11719,-0.902004 6.04025,-3.421893 7.3396,-6.395477 1.42729,-3.266376 1.34257,-7.536378 -0.32142,-10.688754 -1.046,-1.981576 -5.43378,-3.957897 -5.43378,-3.957897 0,0 1.70431,-5.931106 0.33383,-8.360214 -1.39698,-2.476072 -7.47035,-4.116028 -7.47035,-4.116028 0,0 0.83526,-4.132641 -0.11162,-5.830134 -1.17077,-2.098862 -3.70765,-3.417773 -6.06113,-3.904673 -1.35775,-0.280895 -4.10362,0.68058 -4.10362,0.68058 0,0 -2.40444,-2.596962 -3.98271,-3.280937 -1.39323,-0.603784 -2.99953,-0.620749 -4.51755,-0.585493 -0.8125,0.01886 -2.40089,0.425296 -2.40089,0.425296 0,0 -1.62404,-2.01603 -2.67942,-2.732651 -1.022,-0.693955 -2.19688,-1.24134 -3.41685,-1.435571 -2.1684,-0.345228 -4.43768,-0.0044 -6.56497,0.539504 -0.86639,0.221512 -2.45101,1.090372 -2.45101,1.090372 0,0 -1.38391,-1.848655 -2.41174,-2.217952 -0.53498,-0.192217 -1.10315,-0.267563 -1.68104,-0.263552 -0.96314,0.0067 -1.95327,0.234172 -2.86029,0.507979 -1.454531,0.439095 -3.926372,2.314588 -3.926372,2.314588 0,0 -3.436197,-1.837184 -5.325774,-2.009179 -2.251292,-0.20492 -4.528429,0.495268 -6.673496,1.208712 -1.67999,0.55876 -3.432903,1.191733 -4.752163,2.372466 -0.979432,0.876583 -2.139921,3.311943 -2.139921,3.311943 0,0 -2.144813,0.09827 -3.217892,0.12609 -1.436137,0.03722 -2.924164,-0.325001 -4.309816,0.05426 -1.158039,0.316963 -2.150084,1.090727 -3.12229,1.795238 -1.105204,0.800891 -2.165363,1.694011 -3.044775,2.737818 -0.431363,0.511998 -1.070218,1.699639 -1.070218,1.699639 0,0 -1.482675,-0.435893 -2.245342,-0.438216 -1.779995,-0.0054 -3.648255,0.209039 -5.247224,0.991153 -1.40642,0.687932 -2.766407,1.736944 -3.52175,3.108338 -0.594022,1.078497 -0.585494,3.646805 -0.585494,3.646805 0,0 -4.326851,-0.439088 -5.988392,0.631622 -2.489539,1.60428 -4.41296,3.977563 -4.675698,7.234769 -0.141062,1.748766 0.373195,3.948171 0.427506,5.701773 0.01945,0.628005 0,1.884641 0,1.884641 0,0 -2.047518,1.248796 -2.925403,2.054653 -1.356762,1.245444 -2.912131,2.506184 -3.550171,4.233852 -0.741966,2.009072 -0.757645,4.399172 -0.06253,6.424931 0.310859,0.905933 1.105437,1.576514 1.785938,2.250508 0.467,0.462534 1.556493,1.210779 1.556493,1.210779 0,0 -1.468186,1.423508 -1.825728,2.348177 -0.464082,1.2002 -0.476549,2.574629 -0.297138,3.848862 0.145481,1.033272 0.519605,2.061665 1.093473,2.933152 0.624552,0.948458 1.436463,1.867424 2.462382,2.354379 0.945697,0.448877 3.116604,0.386541 3.116604,0.386541 0,0 -1.414172,2.625008 -1.179772,3.993036 0.137893,0.804776 0.695245,1.642216 1.436605,1.984376 1.1112,0.51286 2.452511,-0.0898 3.659725,-0.29094 1.147284,-0.19107 2.337776,-0.35014 3.380155,-0.86609 1.077323,-0.533262 2.095157,-1.283945 2.83032,-2.235011 1.015754,-1.314059 1.611865,-2.947827 2.002978,-4.561997 0.25315,-1.044792 0.198953,-3.218923 0.198953,-3.218923 0,0 1.065825,1.334983 1.395418,1.785475 0.329594,0.450493 0.40168,1.413623 0.38694,2.063675"
       sodipodi:nodetypes="cssscscsscsscssscssscssscssssccsscssscsssscsssscsscssscsc" />
    <path
       id="path971"
       style="fill:#00e6e6;fill-opacity:1;stroke:none;stroke-width:2.64583;stroke-linecap:round;stroke-miterlimit:4;stroke-dasharray:none;stroke-opacity:1"
       d="m 50.290084,75.949333 a 8.9294102,8.8420601 88.873366 0 0 9.01557,8.721031 8.9294102,8.8420601 88.873366 0 0 8.48434,-7.122291 9.5094586,8.033989 88.873366 0 1 -6.88419,4.937564 9.5094586,8.033989 88.873366 0 1 -8.21956,-9.349692 9.5094586,8.033989 88.873366 0 1 0.747,-4.224553 8.9294102,8.8420601 88.873366 0 0 -3.1438,7.005388 8.9294102,8.8420601 88.873366 0 0 6.2e-4,0.0326 z" />
    <path
       id="path975"
       style="fill:#00e6e6;fill-opacity:1;stroke:none;stroke-width:2.64583;stroke-linecap:round;stroke-miterlimit:4;stroke-dasharray:none;stroke-opacity:1"
       d="m 90.634144,67.347886 a 8.9294102,8.8420601 88.873366 0 0 9.01557,8.721031 8.9294102,8.8420601 88.873366 0 0 8.484336,-7.122291 9.5094586,8.033989 88.873366 0 1 -6.88419,4.937564 9.5094586,8.033989 88.873366 0 1 -8.219556,-9.349692 9.5094586,8.033989 88.873366 0 1 0.747,-4.224553 8.9294102,8.8420601 88.873366 0 0 -3.1438,7.005388 8.9294102,8.8420601 88.873366 0 0 6.2e-4,0.0326 z" />
    <path
       id="path977"
       style="fill:#00dada;fill-opacity:1;stroke:none;stroke-width:2.64583;stroke-linecap:round;stroke-miterlimit:4;stroke-dasharray:none;stroke-opacity:1"
       d="m 124.04256,77.27953 a 8.9294102,8.8420601 51.392171 0 0 12.4611,1.434612 8.9294102,8.8420601 51.392171 0 0 2.39884,-10.814642 9.5094586,8.033989 51.392171 0 1 -2.45845,8.10725 9.5094586,8.033989 51.392171 0 1 -12.21195,-2.417858 9.5094586,8.033989 51.392171 0 1 -1.97785,-3.806959 8.9294102,8.8420601 51.392171 0 0 1.76799,7.472152 8.9294102,8.8420601 51.392171 0 0 0.0204,0.02544 z" />
    <path
       id="path979"
       style="fill:#00dede;fill-opacity:1;stroke:none;stroke-width:2.64583;stroke-linecap:round;stroke-miterlimit:4;stroke-dasharray:none;stroke-opacity:1"
       d="m 144.31796,63.901116 a 7.7959072,7.8729225 20.983185 0 0 -4.47029,-10.115597 7.7959072,7.8729225 20.983185 0 0 -9.29395,3.002299 7.0834435,8.3843422 20.983185 0 1 7.26188,-1.748718 7.0834435,8.3843422 20.983185 0 1 3.61143,10.364949 7.0834435,8.3843422 20.983185 0 1 -2.0121,3.202929 7.7959072,7.8729225 20.983185 0 0 4.89275,-4.679059 7.7959072,7.8729225 20.983185 0 0 0.0101,-0.02693 z" />
    <path
       id="path957"
       style="fill:#008f8f;fill-opacity:1;stroke:none;stroke-width:2.64583;stroke-linecap:round;stroke-miterlimit:4;stroke-dasharray:none;stroke-opacity:1"
       d="m 146.53793,63.99487 a 8.8420601,8.9294102 20.983185 0 0 -5.07017,-11.473035 8.8420601,8.9294102 20.983185 0 0 -10.54113,3.405185 8.033989,9.5094586 20.983185 0 1 8.23637,-1.983383 8.033989,9.5094586 20.983185 0 1 4.09606,11.755848 8.033989,9.5094586 20.983185 0 1 -2.28212,3.632739 8.8420601,8.9294102 20.983185 0 0 5.54933,-5.306954 8.8420601,8.9294102 20.983185 0 0 0.0115,-0.03054 z" />
  </g>
</svg>
