<?xml version="1.0" encoding="UTF-8" standalone="no"?>
<svg
   xmlns:dc="http://purl.org/dc/elements/1.1/"
   xmlns:cc="http://creativecommons.org/ns#"
   xmlns:rdf="http://www.w3.org/1999/02/22-rdf-syntax-ns#"
   xmlns:svg="http://www.w3.org/2000/svg"
   xmlns="http://www.w3.org/2000/svg"
   xmlns:sodipodi="http://sodipodi.sourceforge.net/DTD/sodipodi-0.dtd"
   xmlns:inkscape="http://www.inkscape.org/namespaces/inkscape"
   width="768"
   height="1024"
   viewBox="0 0 203.2 270.93334"
   version="1.1"
   id="svg8"
   inkscape:version="1.0.2 (e86c870879, 2021-01-15)"
   sodipodi:docname="character-prototype.svg"
   inkscape:export-filename="brown_suit.png"
   inkscape:export-xdpi="96"
   inkscape:export-ydpi="96">
  <title
     id="title912">Sunglasses guy</title>
  <defs
     id="defs2" />
  <sodipodi:namedview
     id="base"
     pagecolor="#ffffff"
     bordercolor="#666666"
     borderopacity="1.0"
     inkscape:pageopacity="0.0"
     inkscape:pageshadow="2"
     inkscape:zoom="0.55420998"
     inkscape:cx="-78.161229"
     inkscape:cy="558.03713"
     inkscape:document-units="px"
     inkscape:current-layer="layer3"
     inkscape:document-rotation="0"
     showgrid="false"
     inkscape:window-width="1920"
     inkscape:window-height="1016"
     inkscape:window-x="0"
     inkscape:window-y="0"
     inkscape:window-maximized="1"
     showguides="true"
     units="px" />
  <metadata
     id="metadata5">
    <rdf:RDF>
      <cc:Work
         rdf:about="">
        <dc:format>image/svg+xml</dc:format>
        <dc:type
           rdf:resource="http://purl.org/dc/dcmitype/StillImage" />
        <dc:title>Sunglasses guy</dc:title>
        <dc:creator>
          <cc:Agent>
            <dc:title>Luke Connor and Nice Micro</dc:title>
          </cc:Agent>
        </dc:creator>
      </cc:Work>
    </rdf:RDF>
  </metadata>
  <g
     inkscape:groupmode="layer"
     id="layer3"
     inkscape:label="Left hand"
     style="display:inline;mix-blend-mode:normal">
    <path
       style="fill:#b400b4;fill-opacity:1;stroke:#000000;stroke-width:2.64583;stroke-linecap:butt;stroke-linejoin:miter;stroke-miterlimit:4;stroke-dasharray:none;stroke-opacity:1"
       d="m 144.67618,216.62498 c 0,0 1.12785,3.96189 1.41752,5.9947 0.25616,1.79755 0.71269,3.67738 0.27714,5.44009 -0.37382,1.51285 -1.20797,2.99968 -2.38509,4.02089 -1.10686,0.96025 -2.60097,1.5463 -4.05958,1.68666 -1.77657,0.17097 -3.67632,-0.22352 -5.24559,-1.07372 -1.18154,-0.64012 -2.44463,-1.58081 -2.83428,-2.86686 -0.47021,-1.552 0.78124,-3.16093 0.92507,-4.7762 0.23634,-2.65433 -0.10953,-7.99376 -0.10953,-7.99376 z"
       id="path956-6"
       sodipodi:nodetypes="caaaaaaacc" />
    <path
       style="fill:#4a2c10;fill-opacity:1;stroke:#000000;stroke-width:2.91042;stroke-linecap:butt;stroke-linejoin:miter;stroke-miterlimit:4;stroke-dasharray:none;stroke-opacity:1"
       d="m 130.69525,183.02122 1.96659,34.03556 c 0,0 4.76084,-0.35616 7.14338,-0.29916 2.46271,0.0589 7.36055,0.662 7.36055,0.662 l 0.44239,-33.67433"
       id="path954-7"
       sodipodi:nodetypes="ccacc" />
    <path
       style="display:inline;mix-blend-mode:normal;fill:#412511;fill-opacity:1;stroke:none;stroke-width:0.264583px;stroke-linecap:butt;stroke-linejoin:miter;stroke-opacity:1"
       d="m 132.66184,217.05678 -1.20278,-22.5301 c 0,0 2.7135,11.47671 6.2084,16.00958 2.38748,3.09655 9.49831,6.88336 9.49831,6.88336 l -7.15933,-1.00266 z"
       id="path1048-3"
       sodipodi:nodetypes="ccaccc" />
    <path
       style="fill:#4b2c10;fill-opacity:0;stroke:#000000;stroke-width:2.74681;stroke-linecap:butt;stroke-linejoin:miter;stroke-miterlimit:4;stroke-dasharray:none;stroke-opacity:1"
       d="m 130.69525,183.02122 1.96659,34.03556 c 0,0 4.76084,-0.35616 7.14338,-0.29916 2.46271,0.0589 7.36055,0.662 7.36055,0.662 l 0.44239,-33.67433"
       id="path966-6"
       sodipodi:nodetypes="ccacc" />
  </g>
  <g
     inkscape:label="Body"
     inkscape:groupmode="layer"
     id="layer1"
     style="display:inline">
    <path
       id="path889-7"
       style="display:inline;fill:#b400b4;fill-opacity:0.998408;stroke:#000000;stroke-width:2.64583;stroke-linecap:butt;stroke-linejoin:miter;stroke-miterlimit:4;stroke-dasharray:none;stroke-opacity:1"
       d="m 101.53042,36.985856 c -8.824771,-0.0057 -16.457444,2.1374 -24.052793,6.753593 -6.99573,5.578325 -15.800833,10.919241 -20.025837,17.541566 -0.203158,0.799588 -0.112437,1.714429 -0.128669,2.573021 -0.304454,16.104306 0.58756,48.317984 0.58756,48.317984 -0.02564,-1.41023 -0.257657,-6.79318 -2.313041,-8.42069 -1.314598,-1.04094 -3.480573,-0.77925 -5.028634,-0.13487 -1.801902,0.75004 -3.289183,2.45109 -4.012673,4.26382 -1.570969,3.93611 -0.877441,8.55623 -0.05633,12.71395 0.433744,2.19627 1.203687,4.43516 2.580203,6.20066 2.912856,3.73597 11.393104,8.4956 11.393104,8.4956 l 0.806928,17.19753 17.740261,72.80111 h 53.505261 l 15.4975,-72.80111 -0.90666,-86.071362 c 0.0271,-1.138539 0.0407,-2.618574 -0.0672,-3.122809 -6.27173,-7.924938 -13.59006,-16.092189 -21.15199,-20.033401 -8.66833,-4.412033 -15.88052,-6.269049 -24.36699,-6.274555 z"
       sodipodi:nodetypes="cccacssssscccccccccc" />
    <path
       style="display:inline;fill:none;stroke:#000000;stroke-width:2.64583;stroke-linecap:butt;stroke-linejoin:miter;stroke-miterlimit:4;stroke-dasharray:none;stroke-opacity:1"
       d="m 113.7669,97.914019 c 0,0 1.71655,5.883591 2.77356,8.757401 1.28358,3.48983 2.58835,6.99475 4.32534,10.28251 0.61385,1.16189 2.12008,1.99669 2.14033,3.31061 0.0196,1.2702 -0.96443,2.48574 -1.96949,3.26268 -0.75609,0.58448 -1.79296,0.82911 -2.74852,0.81555 -2.47964,-0.0352 -4.63746,-1.83247 -7.06938,-2.31787 -2.8884,-0.57651 -8.8098,-0.68131 -8.8098,-0.68131"
       id="path942"
       sodipodi:nodetypes="caaaaaac" />
    <ellipse
       style="fill:#000000;fill-opacity:1;stroke:none;stroke-width:4.12258;stroke-miterlimit:4;stroke-dasharray:none;stroke-opacity:1"
       id="path2642"
       cx="86.562805"
       cy="95.314499"
       rx="6.1046596"
       ry="5.9811177" />
    <ellipse
       style="fill:#000000;fill-opacity:1;stroke:none;stroke-width:4.12258;stroke-miterlimit:4;stroke-dasharray:none;stroke-opacity:1"
       id="ellipse2644"
       cx="136.19608"
       cy="95.314499"
       rx="6.1046596"
       ry="5.9811177" />
  </g>
  <g
     inkscape:groupmode="layer"
     id="layer11"
     inkscape:label="Mouth"
     style="display:inline">
    <path
       style="display:inline;fill:#440303;fill-opacity:1;stroke:none;stroke-width:2.64583;stroke-linecap:butt;stroke-linejoin:miter;stroke-miterlimit:4;stroke-dasharray:none;stroke-opacity:1"
       d="m 92.164146,139.89079 c 0,0 1.979009,1.1139 3.070344,1.13921 5.98029,0.13873 10.26787,-0.83853 15.41437,-0.89911 5.25492,-0.0619 8.81584,-0.008 15.75637,0.54738 0.74129,0.0593 1.65798,-1.8322 1.65798,-1.8322 0,0 -8.89785,-1.05677 -13.37023,-1.18941 -3.7357,-0.11078 -7.4878,-0.0358 -11.2072,0.3299 -3.80851,0.37457 -11.321634,1.90423 -11.321634,1.90423 z"
       id="path905"
       sodipodi:nodetypes="csascaac" />
  </g>
  <g
     inkscape:groupmode="layer"
     id="layer9"
     inkscape:label="Left Leg"
     style="display:inline">
    <path
       style="fill:#4a2c10;fill-opacity:1;stroke:none;stroke-width:3.29617;stroke-linecap:butt;stroke-linejoin:miter;stroke-miterlimit:4;stroke-dasharray:none;stroke-opacity:1"
       d="m 117.85449,246.65785 -0.0933,10.30751 29.21872,-0.1682 0.68257,-20.84001"
       id="path2571"
       sodipodi:nodetypes="cccc" />
    <path
       style="display:inline;fill:#1a1a1a;fill-opacity:1;stroke:none;stroke-width:2.19745;stroke-linecap:butt;stroke-linejoin:miter;stroke-miterlimit:4;stroke-dasharray:none;stroke-opacity:1"
       d="m 117.76119,256.96536 c 0,0 -1.34967,2.66721 -0.96272,3.97417 0.20407,0.68928 1.5576,0.76291 1.56693,1.4817 0.009,0.6973 -1.2613,0.81498 -1.48228,1.47641 -0.38488,1.15202 0.51754,3.6069 0.51754,3.6069 h 44.41872 c 0,0 -1.25954,-3.90562 -2.755,-5.15401 -1.8097,-1.51072 -3.70612,-1.51667 -6.73229,-2.16615 -2.20894,-0.4741 -6.53196,-2.88756 -6.53196,-2.88756 z"
       id="path1070-9-3"
       sodipodi:nodetypes="caaaccascc" />
    <path
       id="path999-3"
       style="display:inline;fill:#412511;fill-opacity:1;stroke:none;stroke-width:0.999999px;stroke-linecap:butt;stroke-linejoin:miter;stroke-opacity:1"
       d="m 464.95703,925.24219 -19.20117,6.89258 -0.67383,39.07226 101.87891,-0.58594 c -15.45321,-2.90531 -43.72992,-9.22969 -57.5586,-18.73828 -8.06685,-5.54676 -16.8878,-16.16254 -24.44531,-26.64062 z"
       transform="scale(0.26458334)" />
    <path
       style="display:inline;fill:#141414;fill-opacity:1;stroke:none;stroke-width:0.264583px;stroke-linecap:butt;stroke-linejoin:miter;stroke-opacity:1"
       d="m 117.40066,267.50454 h 44.41873 c 0,0 -21.03068,-0.99549 -30.9979,-4.03271 -4.65255,-1.41773 -13.0603,-6.50647 -13.0603,-6.50647 z"
       id="path999-36-7"
       sodipodi:nodetypes="ccacc" />
    <path
       style="fill:none;fill-opacity:1;stroke:#000000;stroke-width:3.29617;stroke-linecap:butt;stroke-linejoin:miter;stroke-miterlimit:4;stroke-dasharray:none;stroke-opacity:1"
       d="m 117.85449,246.65785 -0.0933,10.30751 29.21872,-0.1682 0.68257,-20.84001"
       id="path1056"
       sodipodi:nodetypes="cccc" />
    <path
       style="display:inline;fill:none;fill-opacity:1;stroke:#000000;stroke-width:2.19745;stroke-linecap:butt;stroke-linejoin:miter;stroke-miterlimit:4;stroke-dasharray:none;stroke-opacity:1"
       d="m 117.76119,256.96536 c 0,0 -1.34967,2.66721 -0.96272,3.97417 0.20407,0.68928 1.5576,0.76291 1.56693,1.4817 0.009,0.6973 -1.2613,0.81498 -1.48228,1.47641 -0.38488,1.15202 0.51754,3.6069 0.51754,3.6069 h 44.41872 c 0,0 -1.25954,-3.90562 -2.755,-5.15401 -1.8097,-1.51072 -3.70612,-1.51667 -6.73229,-2.16615 -2.20894,-0.4741 -6.53196,-2.88756 -6.53196,-2.88756 z"
       id="path929"
       sodipodi:nodetypes="caaaccascc" />
  </g>
  <g
     inkscape:groupmode="layer"
     id="layer8"
     inkscape:label="Pants"
     style="display:inline">
    <path
       style="fill:none;stroke:#000000;stroke-width:3.29617;stroke-linecap:butt;stroke-linejoin:miter;stroke-miterlimit:4;stroke-dasharray:none;stroke-opacity:1"
       d="m 127.48721,249.64367 -32.755511,0.70687"
       id="path2536"
       sodipodi:nodetypes="cc" />
    <path
       style="fill:#4a2c10;fill-opacity:1;stroke:none;stroke-width:0.330297;stroke-linecap:butt;stroke-linejoin:miter;stroke-miterlimit:4;stroke-dasharray:none;stroke-opacity:1"
       d="m 64.116817,247.08519 -0.870776,-15.97735 83.029499,-1.8011 -0.53721,19.17161 -19.30662,1.16532 -32.217328,0.70687 z"
       id="path2546"
       sodipodi:nodetypes="ccccccc" />
    <path
       style="display:inline;fill:#412511;fill-opacity:1;stroke:none;stroke-width:0.264583px;stroke-linecap:butt;stroke-linejoin:miter;stroke-opacity:1"
       d="m 64.116817,247.08519 30.614882,3.26535 32.755511,-0.70687 -0.23434,-1.51311 c 0,0 -23.76747,-2.97334 -35.017525,-6.82889 -9.812846,-3.363 -27.776798,-14.03085 -27.776798,-14.03085 z"
       id="path999-3-6"
       sodipodi:nodetypes="ccccacc" />
    <path
       style="fill:none;stroke:#000000;stroke-width:3.2676;stroke-linecap:butt;stroke-linejoin:miter;stroke-miterlimit:4;stroke-dasharray:none;stroke-opacity:1"
       d="m 94.731698,250.35054 32.755512,-0.70687"
       id="path2550" />
    <path
       style="fill:none;fill-opacity:1;stroke:#000000;stroke-width:3.29644;stroke-linecap:butt;stroke-linejoin:miter;stroke-miterlimit:4;stroke-dasharray:none;stroke-opacity:1"
       d="m 147.75011,237.06532 -0.0876,-7.75858 -84.416479,1.8011 0.624748,10.90652"
       id="path2528"
       sodipodi:nodetypes="cccc" />
    <rect
       style="fill:#000000;fill-opacity:1;stroke:none;stroke-width:1.11667;stroke-miterlimit:4;stroke-dasharray:none;stroke-opacity:1"
       id="rect2526"
       width="89.629105"
       height="6.4225893"
       x="60.191002"
       y="224.92017"
       ry="1.695559"
       rx="1.6762795" />
  </g>
  <g
     inkscape:groupmode="layer"
     id="layer10"
     inkscape:label="Right Leg"
     style="display:inline">
    <path
       style="fill:#1a1a1a;fill-opacity:1;stroke:none;stroke-width:2.19745;stroke-linecap:butt;stroke-linejoin:miter;stroke-miterlimit:4;stroke-dasharray:none;stroke-opacity:1"
       d="m 63.473673,256.89304 c 0,0 -1.349667,2.66721 -0.962719,3.97417 0.204071,0.68928 1.557597,0.76291 1.566933,1.4817 0.009,0.69731 -1.2613,0.81498 -1.48228,1.47642 -0.384881,1.15201 0.517535,3.60689 0.517535,3.60689 h 44.418728 c 0,0 -1.25955,-3.90562 -2.755,-5.154 -1.80971,-1.51073 -3.70613,-1.51667 -6.732299,-2.16616 -2.20894,-0.47409 -6.531958,-2.88756 -6.531958,-2.88756 z"
       id="path1070-9"
       sodipodi:nodetypes="caaaccascc" />
    <path
       style="display:inline;fill:#141414;fill-opacity:1;stroke:none;stroke-width:0.264583px;stroke-linecap:butt;stroke-linejoin:miter;stroke-opacity:1"
       d="m 63.113142,267.43222 h 44.418728 c 0,0 -21.030673,-0.99549 -30.997894,-4.03271 -4.652549,-1.41773 -13.060303,-6.50647 -13.060303,-6.50647 z"
       id="path999-36"
       sodipodi:nodetypes="ccacc" />
    <path
       style="fill:#412511;fill-opacity:1;stroke:none;stroke-width:3.29617;stroke-linecap:butt;stroke-linejoin:miter;stroke-miterlimit:4;stroke-dasharray:none;stroke-opacity:1"
       d="m 63.815402,237.07867 0.222706,20.31403 29.218725,-0.1682 0.246652,-12.74927"
       id="path2571-1"
       sodipodi:nodetypes="cccc" />
    <path
       style="display:inline;fill:#33200a;fill-opacity:1;stroke:none;stroke-width:0.264583px;stroke-linecap:butt;stroke-linejoin:miter;stroke-opacity:1"
       d="m 63.473673,256.89304 29.78316,0.33146 c 0,0 -12.876365,-1.88285 -18.056461,-5.44468 -5.107208,-3.51171 -11.38497,-14.70115 -11.38497,-14.70115 z"
       id="path999"
       sodipodi:nodetypes="ccacc" />
    <path
       style="fill:none;fill-opacity:1;stroke:#000000;stroke-width:3.29617;stroke-linecap:butt;stroke-linejoin:miter;stroke-miterlimit:4;stroke-dasharray:none;stroke-opacity:1"
       d="m 63.815402,237.07867 0.222706,20.31403 29.218725,-0.1682 0.246652,-12.74927"
       id="path1021"
       sodipodi:nodetypes="cccc" />
    <path
       style="fill:none;fill-opacity:1;stroke:#000000;stroke-width:2.19745;stroke-linecap:butt;stroke-linejoin:miter;stroke-miterlimit:4;stroke-dasharray:none;stroke-opacity:1"
       d="m 63.473673,256.89304 c 0,0 -1.349667,2.66721 -0.962719,3.97417 0.204071,0.68928 1.557597,0.76291 1.566933,1.4817 0.009,0.69731 -1.2613,0.81498 -1.48228,1.47642 -0.384881,1.15201 0.517535,3.60689 0.517535,3.60689 h 44.418728 c 0,0 -1.25955,-3.90562 -2.755,-5.154 -1.80971,-1.51073 -3.70613,-1.51667 -6.732299,-2.16616 -2.20894,-0.47409 -6.531958,-2.88756 -6.531958,-2.88756 z"
       id="path927"
       sodipodi:nodetypes="caaaccascc" />
  </g>
  <g
     inkscape:groupmode="layer"
     id="layer7"
     inkscape:label="Clothes"
     style="display:inline">
    <path
       id="path987"
       style="fill:#412511;fill-opacity:1;stroke:none;stroke-width:9.99999;stroke-linecap:butt;stroke-linejoin:miter;stroke-miterlimit:4;stroke-dasharray:none;stroke-opacity:1"
       d="m 231.6875,569.39453 2.97266,280.69727 182.47461,1.04101 V 629.55859 l -20.59961,-16.42968 z"
       transform="scale(0.26458334)"
       sodipodi:nodetypes="cccccc" />
    <path
       style="fill:#33200a;fill-opacity:1;stroke:none;stroke-width:0.264583px;stroke-linecap:butt;stroke-linejoin:miter;stroke-opacity:1"
       d="m 62.087177,224.92017 48.619253,-0.20416 c 0,0 -28.276819,-1.90171 -37.456989,-11.14369 -10.968748,-11.04261 -13.014197,-44.8431 -13.014197,-44.8431 z"
       id="path995"
       sodipodi:nodetypes="ccacc" />
    <path
       id="path952"
       style="fill:#4a2c10;fill-opacity:1;stroke:none;stroke-width:9.99999;stroke-linecap:butt;stroke-linejoin:miter;stroke-miterlimit:4;stroke-dasharray:none;stroke-opacity:1"
       d="m 559.15625,572.29492 -133.55859,66.50586 -8.46289,-9.24219 V 851.13281 L 565.40625,852 Z"
       transform="scale(0.26458334)"
       sodipodi:nodetypes="cccccc" />
    <path
       id="path950"
       style="fill:#2f1d09;fill-opacity:1;stroke:none;stroke-width:1.32292;stroke-linecap:butt;stroke-linejoin:miter;stroke-miterlimit:4;stroke-dasharray:none;stroke-opacity:1"
       d="m 81.731089,163.26651 -6.535002,5.73247 -14.713829,-3.82871 -0.247015,3.55895 14.112836,3.67316 6.535002,-5.73298 5.268928,8.97775 24.909241,5.71323 v -3.59719 l -24.06123,-5.51893 z"
       sodipodi:nodetypes="ccccccccccc" />
    <path
       style="fill:none;fill-opacity:1;stroke:#000000;stroke-width:1.05833;stroke-linecap:butt;stroke-linejoin:miter;stroke-miterlimit:4;stroke-dasharray:none;stroke-opacity:1"
       d="m 62.087176,224.92017 87.509954,0.50499 -1.65376,-74.00564 -35.33737,17.5967 -7.68941,-6.79229 -43.616024,-11.57172 z"
       id="path976"
       sodipodi:nodetypes="ccccccc" />
    <path
       id="path963"
       style="fill:#3c250c;fill-opacity:1;stroke:none;stroke-width:5.00001;stroke-linecap:butt;stroke-linejoin:miter;stroke-miterlimit:4;stroke-dasharray:none;stroke-opacity:1"
       d="m 562.0918,585.43555 -1.77735,0.88476 1.77735,21.52539 z m 0,28.76172 -29.97071,19.25 -22.61523,-11.14454 -2.97461,30.05665 -57.4668,15.18945 1.97461,13.62695 61.4668,-17.18945 2.97461,-30.05469 22.61328,11.14258 23.99805,-15.41406 z"
       transform="scale(0.26458334)"
       sodipodi:nodetypes="ccccccccccccccc" />
    <path
       style="fill:#6b4924;fill-opacity:1;stroke:#000000;stroke-width:1.32292;stroke-linecap:butt;stroke-linejoin:miter;stroke-miterlimit:4;stroke-dasharray:none;stroke-opacity:1"
       d="m 112.606,169.01622 35.33737,-17.5967 0.90868,11.00201 -8.06193,5.17799 -5.98312,-2.94839 -0.78731,7.95236 -15.20452,4.01882 z"
       id="path946"
       sodipodi:nodetypes="cccccccc" />
    <path
       id="path944"
       style="fill:#6b4924;fill-opacity:1;stroke:none;stroke-width:5.00001;stroke-linecap:butt;stroke-linejoin:miter;stroke-miterlimit:4;stroke-dasharray:none;stroke-opacity:1"
       d="m 419.75586,672.29492 -1.33789,177.02539 30.87891,-0.46679 -0.22657,-176.5586 z"
       transform="scale(0.26458334)" />
    <path
       id="path971"
       style="fill:#6b4924;fill-opacity:1;stroke:#000000;stroke-width:5.00001;stroke-linecap:butt;stroke-linejoin:miter;stroke-miterlimit:4;stroke-dasharray:none;stroke-opacity:1"
       d="m 231.6875,569.39453 -3.25586,54.82813 55.77344,14.51367 24.69922,-21.66602 19.91406,33.93164 90.94141,20.85938 -0.004,0.43359 h 29.31445 l -0.006,-4.74609 -18.33984,-20.33203 -13.78125,-23.97657 -46.62695,-17.80859 -95.86329,-26.24023 z"
       transform="scale(0.26458334)" />
    <path
       style="fill:none;fill-opacity:1;stroke:#000000;stroke-width:2.64583;stroke-linecap:butt;stroke-linejoin:miter;stroke-miterlimit:4;stroke-dasharray:none;stroke-opacity:1"
       d="m 62.087176,224.92017 87.509954,0.50499 -1.65376,-74.00564 -35.33737,17.5967 -7.68941,-6.79229 -43.616024,-11.57172 z"
       id="path961"
       sodipodi:nodetypes="ccccccc" />
    <path
       style="fill:#000000;fill-opacity:1;stroke:none;stroke-width:0.290704px;stroke-linecap:butt;stroke-linejoin:miter;stroke-opacity:1"
       d="m 96.724781,157.13876 0.96912,14.87713 7.969789,-0.64849 3.20601,-3.24597 c 0,0 1.51125,0.63521 2.31331,0.75888 1.0908,0.16817 2.23478,0.20876 3.31086,-0.0366 0.65727,-0.14984 1.83213,-0.85637 1.83213,-0.85637 l 2.02547,2.77163 9.1219,0.84052 1.39208,-14.18812 -7.67588,-0.40261 -3.49666,3.48645 c 0,0 -1.08472,-1.96903 -1.93612,-2.02083 -1.62118,-0.0987 -2.99011,-0.26271 -4.49549,0.016 -0.88752,0.16431 -2.01527,1.80859 -2.01527,1.80859 l -3.93296,-4.16695 z"
       id="path948"
       sodipodi:nodetypes="ccccaaccccccssccc" />
    <circle
       style="fill:#000000;stroke:none;stroke-width:0.165906;stroke-miterlimit:4;stroke-dasharray:none;stroke-opacity:1"
       id="path1025"
       cx="114.89309"
       cy="185.77652"
       r="2.9128811" />
    <circle
       style="fill:#000000;stroke:none;stroke-width:0.165906;stroke-miterlimit:4;stroke-dasharray:none;stroke-opacity:1"
       id="circle1027"
       cx="114.89309"
       cy="199.50827"
       r="2.9128811" />
    <circle
       style="fill:#000000;stroke:none;stroke-width:0.165906;stroke-miterlimit:4;stroke-dasharray:none;stroke-opacity:1"
       id="circle1029"
       cx="114.89309"
       cy="212.28262"
       r="2.9128811" />
    <path
       id="rect979"
       style="fill:#573a1e;fill-opacity:1;stroke:none;stroke-width:0.264583;stroke-linecap:round"
       d="m 111.06126,177.87804 h 7.75527 l -2.64583,3.48234 h -5.10945 z"
       sodipodi:nodetypes="ccccc" />
    <path
       id="path985"
       style="fill:none;fill-opacity:1;stroke:#000000;stroke-width:5.00001;stroke-linecap:butt;stroke-linejoin:miter;stroke-miterlimit:4;stroke-dasharray:none;stroke-opacity:1"
       d="m 419.75586,672.29492 -1.33789,177.02539 30.87891,-0.46679 -0.22657,-176.5586 z"
       transform="scale(0.26458334)" />
  </g>
  <g
     inkscape:groupmode="layer"
     id="layer2"
     inkscape:label="Right Hand"
     style="display:inline">
    <path
       style="fill:#b400b4;fill-opacity:1;stroke:#000000;stroke-width:2.64583;stroke-linecap:butt;stroke-linejoin:miter;stroke-miterlimit:4;stroke-dasharray:none;stroke-opacity:1"
       d="m 76.201369,216.62498 c 0,0 1.127848,3.96189 1.417526,5.9947 0.256154,1.79755 0.712689,3.67738 0.277134,5.44009 -0.373819,1.51285 -1.207968,2.99968 -2.385085,4.02089 -1.106858,0.96025 -2.600976,1.5463 -4.059577,1.68666 -1.77658,0.17097 -3.676324,-0.22352 -5.245599,-1.07372 -1.181533,-0.64012 -2.444628,-1.58081 -2.834273,-2.86686 -0.470211,-1.552 0.78124,-3.16093 0.925065,-4.7762 0.236343,-2.65433 -0.109532,-7.99376 -0.109532,-7.99376 z"
       id="path956"
       sodipodi:nodetypes="caaaaaaacc" />
    <path
       style="fill:#412511;fill-opacity:1;stroke:#000000;stroke-width:2.91042;stroke-linecap:butt;stroke-linejoin:miter;stroke-miterlimit:4;stroke-dasharray:none;stroke-opacity:1"
       d="m 62.220447,183.02122 1.966584,34.03556 c 0,0 4.760846,-0.35616 7.143376,-0.29916 2.462717,0.0589 7.360556,0.662 7.360556,0.662 l 0.442385,-33.67433"
       id="path954"
       sodipodi:nodetypes="ccacc" />
    <path
       style="display:inline;fill:#33200a;fill-opacity:1;stroke:none;stroke-width:0.264583px;stroke-linecap:butt;stroke-linejoin:miter;stroke-opacity:1"
       d="m 64.187032,215.99844 -1.202772,-22.5301 c 0,0 2.713499,11.47671 6.208395,16.00958 2.387483,3.09655 9.498309,6.88336 9.498309,6.88336 l -7.159326,-1.00266 z"
       id="path1048"
       sodipodi:nodetypes="ccaccc" />
    <path
       style="fill:#4b2c10;fill-opacity:0;stroke:#000000;stroke-width:2.74681;stroke-linecap:butt;stroke-linejoin:miter;stroke-miterlimit:4;stroke-dasharray:none;stroke-opacity:1"
       d="m 62.220447,183.02122 1.966584,34.03556 c 0,0 4.760846,-0.35616 7.143376,-0.29916 2.462717,0.0589 7.360556,0.662 7.360556,0.662 l 0.442385,-33.67433"
       id="path966"
       sodipodi:nodetypes="ccacc" />
  </g>
  <g
     inkscape:groupmode="layer"
     id="layer5"
     inkscape:label="Facial Hair"
     style="display:inline">
    <path
       id="rect891-3"
       style="display:inline;fill:#00b400;fill-opacity:1;stroke:none;stroke-width:0.264134;stroke-miterlimit:4;stroke-dasharray:none;stroke-opacity:1"
       d="m 58.622473,61.961984 c 0,0 2.781451,-1.304919 4.635581,-1.332568 4.129475,-0.06158 12.373174,2.94009 12.373174,2.94009 0,0 1.997974,5.635926 -3.309077,11.965084 -11.401484,7.98718 -9.021231,40.05253 -8.904369,40.04241 l -5.04785,-4.63547 z"
       sodipodi:nodetypes="csccccc" />
    <path
       style="display:inline;fill:#00b400;fill-opacity:1;stroke:none;stroke-width:0.270603px;stroke-linecap:butt;stroke-linejoin:miter;stroke-opacity:1"
       d="m 73.270845,86.315315 c 0,0 7.370603,-2.688534 11.267719,-3.358338 3.435668,-0.590494 7.001955,-0.828454 10.490182,-0.549576 2.852801,0.228077 7.535264,-0.571174 8.337494,1.801933 0.38692,1.14457 -1.55895,2.171181 -2.84916,2.598113 -3.082115,1.019891 -5.557308,-0.726489 -9.870882,-0.688013 -4.369961,0.03898 -7.96572,1.109933 -13.06391,1.271397 -1.132265,0.03586 -4.311443,-1.075516 -4.311443,-1.075516 z"
       id="path897-6"
       sodipodi:nodetypes="caaaassc" />
    <path
       id="path899-7"
       style="display:inline;fill:#00b400;fill-opacity:1;stroke:none;stroke-width:0.290703px;stroke-linecap:butt;stroke-linejoin:miter;stroke-opacity:1"
       d="m 138.25514,82.861753 c -2.43781,0.128427 -4.95654,0.275529 -7.23059,1.163271 -1.95036,0.76138 -4.95629,1.392887 -5.23715,3.467669 -0.0815,0.601922 0.6736,1.508943 1.19722,1.373752 3.71327,-0.958731 5.94104,-1.732947 9.0039,-1.998244 3.34182,-0.289461 5.46604,0.124626 10.05255,0.458585 l -0.0304,-3.194904 c -1.95769,-0.508095 -3.12962,-0.876889 -4.73375,-1.10604 -0.99859,-0.14265 -2.01441,-0.217157 -3.02174,-0.164089 z"
       sodipodi:nodetypes="aaasaccaa" />
    <path
       id="rect891-6"
       style="display:inline;fill:none;fill-opacity:1;stroke:#000000;stroke-width:2.64583;stroke-miterlimit:4;stroke-dasharray:none;stroke-opacity:1"
       d="M 57.914743,111.99654 57.284993,61.981611"
       sodipodi:nodetypes="cc" />
    <path
       id="path1301"
       style="display:inline;fill:#00a000;fill-opacity:1;stroke:none;stroke-width:0.290703px;stroke-linecap:butt;stroke-linejoin:miter;stroke-opacity:1"
       d="m 92.401079,82.292628 c -2.63566,-0.02305 -5.285819,0.221689 -7.86257,0.664559 -1.834555,0.315309 -4.427096,1.076793 -6.669876,1.795756 0.239043,-0.04442 6.876153,-1.274273 8.961726,-1.233517 3.865232,0.199959 7.60839,0.131064 11.303188,1.283642 1.096888,0.342173 2.488913,0.725377 3.853513,1.350823 0.89696,-0.511755 1.63032,-1.201852 1.37924,-1.944585 -0.80223,-2.373106 -5.484671,-1.573879 -8.337474,-1.801955 -0.872057,-0.06972 -1.749193,-0.10704 -2.627747,-0.114723 z" />
    <path
       id="path1330"
       style="display:inline;fill:#00a000;fill-opacity:1;stroke:none;stroke-width:0.290703px;stroke-linecap:butt;stroke-linejoin:miter;stroke-opacity:1"
       d="m 139.01167,82.845048 c -0.25249,-0.0019 -0.50471,0.0033 -0.75654,0.01654 -2.43781,0.128429 -4.95652,0.275495 -7.23057,1.163238 -0.61525,0.240181 -1.33404,0.471638 -2.0407,0.735356 -0.27319,0.113811 -0.5426,0.221002 -0.80873,0.321427 -8e-4,2.64e-4 -0.001,7.94e-4 -0.002,0.0011 -0.0335,0.01482 -0.0655,0.0309 -0.0987,0.04599 3.27356,0.07682 9.73587,-1.127567 12.82867,-0.16278 1.45338,0.453377 3.26838,1.357413 5.03742,2.353345 1.8e-4,1.3e-5 2.7e-4,-1.3e-5 5.3e-4,0 0.0354,0.0026 0.0646,0.0052 0.10025,0.0078 l -0.0305,-3.195153 c -1.22377,-0.317619 -2.14022,-0.580483 -3.04736,-0.789102 -0.1814,-0.04173 -0.36216,-0.08149 -0.54518,-0.118853 -0.36602,-0.07472 -0.73998,-0.140634 -1.14102,-0.197922 -0.22289,-0.03184 -0.44695,-0.05933 -0.67127,-0.08372 -0.0688,-0.0075 -0.13782,-0.01347 -0.20671,-0.02016 -0.16339,-0.01587 -0.32714,-0.02918 -0.49093,-0.04031 -0.072,-0.0049 -0.14392,-0.01005 -0.216,-0.01394 -0.22675,-0.01228 -0.45375,-0.02117 -0.68058,-0.02273 z" />
  </g>
  <g
     inkscape:groupmode="layer"
     id="layer6"
     inkscape:label="Facewear"
     style="display:inline">
    <path
       style="fill:none;stroke:#000000;stroke-width:1.64809;stroke-linecap:butt;stroke-linejoin:miter;stroke-miterlimit:4;stroke-dasharray:none;stroke-opacity:1"
       d="m 57.22544,104.3261 c 0,0 5.098477,-2.96589 7.859364,-3.95541 3.87191,-1.38772 12.036361,-2.717187 12.036361,-2.717187"
       id="path926"
       sodipodi:nodetypes="cac" />
    <g
       id="g1012"
       transform="matrix(0.90476728,0,0,1,10.785902,-0.10665266)"
       inkscape:export-filename="sunglasses.png"
       inkscape:export-xdpi="96"
       inkscape:export-ydpi="96">
      <ellipse
         style="fill:#a6a6a6;fill-opacity:1;stroke:none;stroke-width:2.24922;stroke-miterlimit:4;stroke-dasharray:none;stroke-opacity:1"
         id="path934"
         cx="88.344574"
         cy="99.279366"
         rx="14.719551"
         ry="13.515297" />
      <path
         style="fill:#d4d4d4;fill-opacity:1;stroke:none;stroke-width:1.09872;stroke-linecap:butt;stroke-linejoin:miter;stroke-miterlimit:4;stroke-dasharray:none;stroke-opacity:1"
         d="m 78.023243,89.736052 5.228486,11.580908 4.135614,-2.007346 5.42635,12.773736 6.132305,-2.55479 -7.870625,-16.905704 -2.992346,2.460035 -4.265943,-8.672283 z"
         id="path928" />
      <path
         style="fill:none;stroke:#000000;stroke-width:0.290704px;stroke-linecap:butt;stroke-linejoin:miter;stroke-opacity:1"
         d="m 78.023243,89.736052 5.228486,11.580908 4.135614,-2.007346 5.42635,12.773736"
         id="path1090" />
      <path
         style="fill:none;stroke:#000000;stroke-width:0.290704px;stroke-linecap:butt;stroke-linejoin:miter;stroke-opacity:1"
         d="m 83.817084,86.410606 4.265943,8.672285 2.992346,-2.460037 7.870625,16.905706"
         id="path1092" />
      <ellipse
         style="fill:none;fill-opacity:1;stroke:#010501;stroke-width:1.45521;stroke-miterlimit:4;stroke-dasharray:none;stroke-opacity:1"
         id="ellipse1001"
         cx="88.344574"
         cy="99.279366"
         rx="14.719551"
         ry="13.515297" />
    </g>
    <g
       id="g1019"
       transform="matrix(0.89394512,0,0,1,14.389732,-1.0281166)">
      <ellipse
         style="fill:#a6a6a6;fill-opacity:1;stroke:none;stroke-width:2.05958;stroke-miterlimit:4;stroke-dasharray:none;stroke-opacity:1"
         id="ellipse940"
         cx="139.74977"
         cy="101.35081"
         rx="13.0347"
         ry="12.797073" />
      <path
         style="fill:#d4d4d4;fill-opacity:1;stroke:none;stroke-width:1.09872;stroke-linecap:butt;stroke-linejoin:miter;stroke-miterlimit:4;stroke-dasharray:none;stroke-opacity:1"
         d="m 131.7346,91.49687 6.44953,13.01173 4.23295,-2.7043 4.58971,10.86121 4.33056,-4.09307 -5.31556,-12.355577 -3.52921,1.801864 -5.11921,-9.177614 z"
         id="path932"
         sodipodi:nodetypes="ccccccccc" />
      <path
         style="fill:none;stroke:#000000;stroke-width:0.290704px;stroke-linecap:butt;stroke-linejoin:miter;stroke-opacity:1"
         d="m 131.7346,91.496869 6.44953,13.011731 4.23295,-2.7043 4.58971,10.86121"
         id="path1094" />
      <path
         style="fill:none;stroke:#000000;stroke-width:0.290704px;stroke-linecap:butt;stroke-linejoin:miter;stroke-opacity:1"
         d="m 137.37337,88.841112 5.11921,9.177614 3.52921,-1.801863 5.31556,12.355577"
         id="path1096" />
      <ellipse
         style="fill:none;fill-opacity:1;stroke:#010501;stroke-width:1.45521;stroke-miterlimit:4;stroke-dasharray:none;stroke-opacity:1"
         id="ellipse1003"
         cx="139.74977"
         cy="101.35081"
         rx="13.0347"
         ry="12.797073" />
    </g>
    <path
       style="fill:none;stroke:#000000;stroke-width:1.64809;stroke-linecap:butt;stroke-linejoin:miter;stroke-miterlimit:4;stroke-dasharray:none;stroke-opacity:1"
       d="m 103.84052,95.933821 c 0,0 9.61549,-4.13915 14.64773,-3.796368 3.5004,0.238437 9.73667,3.998006 9.73667,3.998006"
       id="path1005"
       sodipodi:nodetypes="cac" />
  </g>
  <g
     inkscape:groupmode="layer"
     id="layer4"
     inkscape:label="Hat Hair"
     style="display:inline">
    <path
       id="path865"
       style="fill:#4a2c10;fill-opacity:1;stroke:none;stroke-width:2.11667;stroke-linecap:butt;stroke-linejoin:miter;stroke-miterlimit:4;stroke-dasharray:none;stroke-opacity:1"
       d="m 100.14184,20.394163 c -6.7524,0.03502 -13.504707,0.751223 -20.047232,2.111012 -5.085326,1.056927 -10.557514,2.572018 -14.312638,6.16043 -3.738088,3.572139 -5.163041,9.040792 -6.772495,13.954363 -0.946437,2.889428 -1.182579,6.636908 -1.502351,9.96343 -1.440246,1.878788 -3.115457,3.602876 -4.853963,5.564257 -3.262094,0.642365 -13.066923,2.528332 -13.066923,2.528332 l 0.01703,2.084892 c 0,0 0.219253,0.01 0.249256,0.01135 l 0.08346,0.943654 c 0,0 4.821657,-0.261128 10.854278,-0.561536 18.005356,-0.423531 34.398834,-1.027461 51.275028,-1.024 16.51981,-0.381644 34.87745,1.247901 50.33457,1.024572 6.03267,0.300411 10.85427,0.560969 10.85427,0.560969 l 0.0835,-0.943655 c 0.03,-0.0014 0.24925,-0.01135 0.24925,-0.01135 l 0.017,-2.084891 c 0,0 -9.80482,-1.885967 -13.06693,-2.528333 -1.73869,-1.961598 -3.4136,-3.685788 -4.85395,-5.564826 -0.31974,-3.326379 -0.55541,-7.073596 -1.50178,-9.962861 -1.60946,-4.91357 -3.03441,-10.382224 -6.7725,-13.954363 -3.75512,-3.588411 -9.22731,-5.103502 -14.31263,-6.16043 -7.01197,-1.457358 -14.26561,-2.173871 -21.50132,-2.106469 -0.48424,-0.0045 -0.96863,-0.007 -1.45295,-0.0045 z"
       sodipodi:nodetypes="cssscccccccccccccccsssccc" />
    <path
       id="path925"
       style="fill:#412511;fill-opacity:1;stroke:none;stroke-width:8.00001;stroke-linecap:butt;stroke-linejoin:miter;stroke-miterlimit:4;stroke-dasharray:none;stroke-opacity:1"
       d="m 326.51758,80.900391 c -7.99581,1.137595 -15.93587,2.524382 -23.79688,4.158203 -19.22013,3.994684 -39.90311,9.720701 -54.0957,23.283206 -14.12821,13.50099 -19.51468,34.17121 -25.59766,52.74218 -3.57708,10.92068 -4.46914,25.08357 -5.67773,37.65625 -5.44345,7.10094 -11.77497,13.61816 -18.3457,21.03125 -12.32918,2.42784 -49.38672,9.55469 -49.38672,9.55469 l 0.0644,7.88086 c 0,0 0.82801,0.0379 0.94141,0.043 l 0.3164,3.56641 c 0,0 18.22298,-0.98765 41.02344,-2.12305 58.02933,-1.365 111.6326,-3.21423 165.71094,-3.72461 A 273.82679,270.52555 0 0 1 325.21875,107.2207 273.82679,270.52555 0 0 1 326.51758,80.900391 Z"
       transform="scale(0.26458334)" />
    <path
       style="fill:#1b1a18;fill-opacity:1;stroke:#000000;stroke-width:1.63648;stroke-linecap:butt;stroke-linejoin:miter;stroke-miterlimit:4;stroke-dasharray:none;stroke-opacity:1"
       d="m 58.758021,52.583414 86.938729,-5.81e-4 4.78586,5.564826 -96.510446,-5e-6 z"
       id="path874" />
    <path
       id="path876"
       style="fill:#000000;fill-opacity:1;stroke:#000000;stroke-width:1.64809;stroke-linecap:butt;stroke-linejoin:miter;stroke-miterlimit:4;stroke-dasharray:none;stroke-opacity:1"
       d="m 52.653007,58.14793 c -3.262093,0.642366 -13.066923,2.52833 -13.066923,2.52833 l 0.01703,2.084895 c 0,0 0.219253,0.01 0.249256,0.01137 l 0.08346,0.943652 c 0,0 4.821657,-0.261128 10.854278,-0.561536 18.005356,-0.42353 34.399012,-1.027738 51.275202,-1.024276 16.51982,-0.381645 34.87728,1.248173 50.3344,1.024846 6.03267,0.300411 10.85428,0.560966 10.85428,0.560966 l 0.0835,-0.943652 c 0.03,-0.0015 0.24926,-0.01137 0.24926,-0.01137 l 0.017,-2.084895 c 0,0 -8.65074,-2.105009 -13.06692,-2.52833 -32.47907,-3.113327 -65.255878,0 -97.883818,0 -10e-7,0 -2e-6,0 -2e-6,0 z"
       sodipodi:nodetypes="ccccccccccccacc" />
    <path
       id="path923"
       style="fill:none;fill-opacity:1;stroke:#000000;stroke-width:2.11667;stroke-linecap:butt;stroke-linejoin:miter;stroke-miterlimit:4;stroke-dasharray:none;stroke-opacity:1"
       d="m 100.14184,20.394163 c -6.7524,0.03502 -13.504707,0.751223 -20.047232,2.111012 -5.085326,1.056927 -10.557514,2.572018 -14.312638,6.16043 -3.738088,3.572139 -5.163041,9.040792 -6.772495,13.954363 -0.946437,2.889428 -1.182579,6.636908 -1.502351,9.96343 -1.440246,1.878788 -3.115457,3.602876 -4.853963,5.564257 -3.262094,0.642365 -13.066923,2.528332 -13.066923,2.528332 l 0.01703,2.084892 c 0,0 0.219253,0.01 0.249256,0.01135 l 0.08346,0.943654 c 0,0 4.821657,-0.261128 10.854278,-0.561536 18.005356,-0.423531 34.398834,-1.027461 51.275028,-1.024 16.51981,-0.381644 34.87745,1.247901 50.33457,1.024572 6.03267,0.300411 10.85427,0.560969 10.85427,0.560969 l 0.0835,-0.943655 c 0.03,-0.0014 0.24925,-0.01135 0.24925,-0.01135 l 0.017,-2.084891 c 0,0 -9.80482,-1.885967 -13.06693,-2.528333 -1.73869,-1.961598 -3.4136,-3.685788 -4.85395,-5.564826 -0.31974,-3.326379 -0.55541,-7.073596 -1.50178,-9.962861 -1.60946,-4.91357 -3.03441,-10.382224 -6.7725,-13.954363 -3.75512,-3.588411 -9.22731,-5.103502 -14.31263,-6.16043 -7.01197,-1.457358 -14.26561,-2.173871 -21.50132,-2.106469 -0.48424,-0.0045 -0.96863,-0.007 -1.45295,-0.0045 z"
       sodipodi:nodetypes="cssscccccccccccccccsssccc" />
  </g>
</svg>
