<?xml version="1.0" encoding="UTF-8" standalone="no"?>
<svg
   xmlns:dc="http://purl.org/dc/elements/1.1/"
   xmlns:cc="http://creativecommons.org/ns#"
   xmlns:rdf="http://www.w3.org/1999/02/22-rdf-syntax-ns#"
   xmlns:svg="http://www.w3.org/2000/svg"
   xmlns="http://www.w3.org/2000/svg"
   xmlns:sodipodi="http://sodipodi.sourceforge.net/DTD/sodipodi-0.dtd"
   xmlns:inkscape="http://www.inkscape.org/namespaces/inkscape"
   width="768"
   height="1024"
   viewBox="0 0 203.2 270.93334"
   version="1.1"
   id="svg8"
   inkscape:version="1.0.2 (e86c870879, 2021-01-15)"
   sodipodi:docname="character-scientist.svg"
   inkscape:export-filename="labcoat.png"
   inkscape:export-xdpi="96"
   inkscape:export-ydpi="96">
  <title
     id="title927">Crazy Science Guy</title>
  <defs
     id="defs2" />
  <sodipodi:namedview
     id="base"
     pagecolor="#ffffff"
     bordercolor="#666666"
     borderopacity="1.0"
     inkscape:pageopacity="0.0"
     inkscape:pageshadow="2"
     inkscape:zoom="0.701247"
     inkscape:cx="442.24244"
     inkscape:cy="609.90741"
     inkscape:document-units="px"
     inkscape:current-layer="layer8"
     inkscape:document-rotation="0"
     showgrid="false"
     inkscape:window-width="1920"
     inkscape:window-height="1016"
     inkscape:window-x="0"
     inkscape:window-y="0"
     inkscape:window-maximized="1"
     showguides="true"
     units="px"
     inkscape:pagecheckerboard="true"
     inkscape:snap-global="true"
     inkscape:snap-bbox="true" />
  <metadata
     id="metadata5">
    <rdf:RDF>
      <cc:Work
         rdf:about="">
        <dc:format>image/svg+xml</dc:format>
        <dc:type
           rdf:resource="http://purl.org/dc/dcmitype/StillImage" />
        <dc:title>Crazy Science Guy</dc:title>
        <dc:creator>
          <cc:Agent>
            <dc:title>NiceMicro</dc:title>
          </cc:Agent>
        </dc:creator>
        <dc:contributor>
          <cc:Agent>
            <dc:title>Monacle by Moxvallix</dc:title>
          </cc:Agent>
        </dc:contributor>
      </cc:Work>
    </rdf:RDF>
  </metadata>
  <g
     inkscape:groupmode="layer"
     id="layer3"
     inkscape:label="Left hand"
     style="display:inline;mix-blend-mode:normal">
    <path
       style="display:inline;fill:#b400b4;fill-opacity:1;stroke:#000000;stroke-width:2.64583;stroke-linecap:butt;stroke-linejoin:miter;stroke-miterlimit:4;stroke-dasharray:none;stroke-opacity:1"
       d="m 144.67618,216.62498 c 0,0 1.12785,3.96189 1.41752,5.9947 0.25616,1.79755 0.71269,3.67738 0.27714,5.44009 -0.37382,1.51284 -1.20797,2.99968 -2.38509,4.02089 -1.10685,0.96025 -2.60097,1.54629 -4.05957,1.68666 -1.77658,0.17096 -3.67633,-0.22352 -5.2456,-1.07373 -1.18154,-0.64011 -2.44463,-1.5808 -2.83428,-2.86685 -0.47021,-1.552 0.78124,-3.16093 0.92507,-4.7762 0.23634,-2.65433 -0.10953,-7.99376 -0.10953,-7.99376 z"
       id="path956-3"
       sodipodi:nodetypes="caaaaaaacc" />
    <path
       style="display:inline;fill:#fafafa;fill-opacity:1;stroke:none;stroke-width:2.91042;stroke-linecap:butt;stroke-linejoin:miter;stroke-miterlimit:4;stroke-dasharray:none;stroke-opacity:1"
       d="m 130.69526,183.02122 0.75481,35.49568 c 0,0 5.56709,-0.72539 8.36583,-0.71443 2.78045,0.0109 8.30535,0.77486 8.30535,0.77486 l -0.51309,-34.83204"
       id="path954-7"
       sodipodi:nodetypes="ccacc" />
    <path
       style="display:inline;fill:#f0f0f0;fill-opacity:1;stroke:none;stroke-width:0.264583px;stroke-linecap:butt;stroke-linejoin:miter;stroke-opacity:1"
       d="m 131.45007,218.5169 -0.75481,-35.49568 c 0,0 1.62557,17.20363 5.79918,24.47536 2.66504,4.64332 11.62681,11.08075 11.62681,11.08075 l -7.54832,-1.02206 z"
       id="path1048-6"
       sodipodi:nodetypes="ccaccc" />
    <path
       style="display:inline;fill:#4b2c10;fill-opacity:0;stroke:#000000;stroke-width:2.7468;stroke-linecap:butt;stroke-linejoin:miter;stroke-miterlimit:4;stroke-dasharray:none;stroke-opacity:1"
       d="m 130.69526,183.02122 0.75481,35.49568 c 0,0 5.62304,-0.83264 8.45426,-0.81842 2.75456,0.0138 8.21692,0.87885 8.21692,0.87885 l -0.51309,-34.83204"
       id="path966-5"
       sodipodi:nodetypes="ccacc" />
  </g>
  <g
     inkscape:label="Body"
     inkscape:groupmode="layer"
     id="layer1"
     style="display:inline">
    <path
       id="path889-7-3"
       style="display:inline;fill:#b400b4;fill-opacity:0.998408;stroke:#000000;stroke-width:2.64583;stroke-linecap:butt;stroke-linejoin:miter;stroke-miterlimit:4;stroke-dasharray:none;stroke-opacity:1"
       d="m 101.53042,36.985856 c -8.824771,-0.0057 -16.457444,2.1374 -24.052793,6.753593 -6.99573,5.578325 -15.800833,10.919241 -20.025837,17.541566 -0.203158,0.799588 -0.112437,1.714429 -0.128669,2.573021 -0.304454,16.104306 0.58756,48.317984 0.58756,48.317984 -0.02564,-1.41023 -0.257657,-6.79318 -2.313041,-8.42069 -1.314598,-1.04094 -3.480573,-0.77925 -5.028634,-0.13487 -1.801902,0.75004 -3.289183,2.45109 -4.012673,4.26382 -1.570969,3.93611 -0.877441,8.55623 -0.05633,12.71395 0.433744,2.19627 1.203687,4.43516 2.580203,6.20066 2.912856,3.73597 11.393104,8.4956 11.393104,8.4956 l 0.806928,17.19753 17.740261,72.80111 h 53.505261 l 15.4975,-72.80111 -0.90666,-86.071362 c 0.0271,-1.138539 0.0407,-2.618574 -0.0672,-3.122809 -6.27173,-7.924938 -13.59006,-16.092189 -21.15199,-20.033401 -8.66833,-4.412033 -15.88052,-6.269049 -24.36699,-6.274555 z"
       sodipodi:nodetypes="cccacssssscccccccccc" />
    <path
       style="display:inline;fill:none;stroke:#000000;stroke-width:2.64583;stroke-linecap:butt;stroke-linejoin:miter;stroke-miterlimit:4;stroke-dasharray:none;stroke-opacity:1"
       d="m 113.7669,97.914019 c 0,0 1.71655,5.883591 2.77356,8.757401 1.28358,3.48983 2.58835,6.99475 4.32534,10.28251 0.61385,1.16189 2.12008,1.99669 2.14033,3.31061 0.0196,1.2702 -0.96443,2.48574 -1.96949,3.26268 -0.75609,0.58448 -1.79296,0.82911 -2.74852,0.81555 -2.47964,-0.0352 -4.63746,-1.83247 -7.06938,-2.31787 -2.8884,-0.57651 -8.8098,-0.68131 -8.8098,-0.68131"
       id="path942"
       sodipodi:nodetypes="caaaaaac" />
    <path
       style="fill:none;stroke:#000000;stroke-width:2.64583;stroke-linecap:butt;stroke-linejoin:miter;stroke-miterlimit:4;stroke-dasharray:none;stroke-opacity:1"
       d="m 79.051878,95.216119 c 0,0 4.843506,0.508961 7.275199,0.557621 2.319354,0.04641 6.954825,-0.253834 6.954825,-0.253834"
       id="path943"
       sodipodi:nodetypes="cac" />
    <path
       style="fill:none;stroke:#000000;stroke-width:2.64583;stroke-linecap:butt;stroke-linejoin:miter;stroke-miterlimit:4;stroke-dasharray:none;stroke-opacity:1"
       d="m 128.42907,95.026321 c 0,0 5.61148,0.514731 8.42539,0.526007 2.13759,0.0086 6.40335,-0.348277 6.40335,-0.348277"
       id="path945"
       sodipodi:nodetypes="cac" />
  </g>
  <g
     inkscape:groupmode="layer"
     id="layer11"
     inkscape:label="Mouth"
     style="display:inline">
    <path
       style="fill:none;stroke:#000000;stroke-width:2.64583;stroke-linecap:butt;stroke-linejoin:miter;stroke-miterlimit:4;stroke-dasharray:none;stroke-opacity:1"
       d="m 93.382154,132.84273 c 0,0 12.546546,-1.19866 18.837536,-1.5357 3.5981,-0.19277 7.20864,-0.48028 10.8062,-0.27784 2.04653,0.11516 6.09071,0.8467 6.09071,0.8467 l 0.2396,4.25632 -4.63955,0.98897 -0.18859,3.29787"
       id="path947"
       sodipodi:nodetypes="caacccc" />
  </g>
  <g
     inkscape:groupmode="layer"
     id="layer9"
     inkscape:label="Left Leg"
     style="display:inline">
    <path
       style="fill:#fafafa;fill-opacity:1;stroke:none;stroke-width:3.29617;stroke-linecap:butt;stroke-linejoin:miter;stroke-miterlimit:4;stroke-dasharray:none;stroke-opacity:1"
       d="m 117.85449,246.65785 -0.0933,10.30751 29.21872,-0.1682 0.68257,-20.84001"
       id="path2571"
       sodipodi:nodetypes="cccc" />
    <path
       id="path999-3"
       style="display:inline;fill:#f0f0f0;fill-opacity:1;stroke:none;stroke-width:0.264583px;stroke-linecap:butt;stroke-linejoin:miter;stroke-opacity:1"
       d="m 123.01988,244.80367 -5.08031,1.82366 -0.17828,10.33787 26.95546,-0.15503 c -4.08866,-0.7687 -11.57021,-2.44202 -15.22904,-4.95784 -2.13436,-1.46758 -4.46823,-4.27634 -6.46783,-7.04866 z" />
    <path
       style="display:inline;fill:#bdbd9a;fill-opacity:1;stroke:none;stroke-width:2.19745;stroke-linecap:butt;stroke-linejoin:miter;stroke-miterlimit:4;stroke-dasharray:none;stroke-opacity:1"
       d="m 117.76119,256.96536 c 0,0 -1.34967,2.66721 -0.96272,3.97417 0.20407,0.68928 1.5576,0.76291 1.56693,1.4817 0.009,0.6973 -1.2613,0.81498 -1.48228,1.47641 -0.38488,1.15202 0.51754,3.6069 0.51754,3.6069 h 44.41872 c 0,0 -1.25954,-3.90562 -2.755,-5.15401 -1.8097,-1.51072 -3.70612,-1.51667 -6.73229,-2.16615 -2.20894,-0.4741 -6.53196,-2.88756 -6.53196,-2.88756 z"
       id="path1070-9-3"
       sodipodi:nodetypes="caaaccascc" />
    <path
       style="display:inline;fill:#91916f;fill-opacity:1;stroke:none;stroke-width:0.264583px;stroke-linecap:butt;stroke-linejoin:miter;stroke-opacity:1"
       d="m 117.47853,267.39504 42.78215,-0.76227 c 0,0 -22.70399,0.19901 -33.24386,-3.40584 -3.35517,-1.14754 -9.02997,-5.6237 -9.02997,-5.6237 z"
       id="path999-36-3"
       sodipodi:nodetypes="ccacc" />
    <path
       style="display:inline;fill:none;fill-opacity:1;stroke:#000000;stroke-width:2.19745;stroke-linecap:butt;stroke-linejoin:miter;stroke-miterlimit:4;stroke-dasharray:none;stroke-opacity:1"
       d="m 117.76119,256.96536 c 0,0 -1.34967,2.66721 -0.96272,3.97417 0.20407,0.68928 1.5576,0.76291 1.56693,1.4817 0.009,0.6973 -1.2613,0.81498 -1.48228,1.47641 -0.38488,1.15202 0.51754,3.6069 0.51754,3.6069 h 44.41872 c 0,0 -1.25954,-3.90562 -2.755,-5.15401 -1.8097,-1.51072 -3.70612,-1.51667 -6.73229,-2.16615 -2.20894,-0.4741 -6.53196,-2.88756 -6.53196,-2.88756 z"
       id="path904"
       sodipodi:nodetypes="caaaccascc" />
    <path
       style="fill:none;fill-opacity:1;stroke:#000000;stroke-width:3.29617;stroke-linecap:butt;stroke-linejoin:miter;stroke-miterlimit:4;stroke-dasharray:none;stroke-opacity:1"
       d="m 117.85449,246.65785 -0.0933,10.30751 29.21872,-0.1682 0.68257,-20.84001"
       id="path935"
       sodipodi:nodetypes="cccc" />
  </g>
  <g
     inkscape:groupmode="layer"
     id="layer8"
     inkscape:label="Pants"
     style="display:inline">
    <path
       style="fill:none;stroke:#000000;stroke-width:3.29617;stroke-linecap:butt;stroke-linejoin:miter;stroke-miterlimit:4;stroke-dasharray:none;stroke-opacity:1"
       d="m 127.48721,249.64367 -32.755511,0.70687"
       id="path2536"
       sodipodi:nodetypes="cc" />
    <path
       style="fill:#fafafa;fill-opacity:1;stroke:none;stroke-width:0.330297;stroke-linecap:butt;stroke-linejoin:miter;stroke-miterlimit:4;stroke-dasharray:none;stroke-opacity:1"
       d="m 64.116817,247.08519 -0.870776,-15.97735 83.029499,-1.8011 -0.53721,19.17161 -19.30662,1.16532 -32.217328,0.70687 z"
       id="path2546"
       sodipodi:nodetypes="ccccccc" />
    <path
       style="display:inline;fill:#f0f0f0;fill-opacity:1;stroke:none;stroke-width:0.264583px;stroke-linecap:butt;stroke-linejoin:miter;stroke-opacity:1"
       d="m 64.116817,247.08519 30.614882,3.26535 32.755511,-0.70687 -0.23434,-1.51311 c 0,0 -23.76747,-2.97334 -35.017525,-6.82889 -9.812846,-3.363 -27.776798,-14.03085 -27.776798,-14.03085 z"
       id="path999-3-6"
       sodipodi:nodetypes="ccccacc" />
    <path
       style="fill:none;stroke:#000000;stroke-width:3.2676;stroke-linecap:butt;stroke-linejoin:miter;stroke-miterlimit:4;stroke-dasharray:none;stroke-opacity:1"
       d="m 94.731698,250.35054 32.755512,-0.70687"
       id="path2550" />
    <path
       style="fill:none;fill-opacity:1;stroke:#000000;stroke-width:3.29644;stroke-linecap:butt;stroke-linejoin:miter;stroke-miterlimit:4;stroke-dasharray:none;stroke-opacity:1"
       d="m 147.75011,237.06532 -0.0876,-7.75858 -84.416479,1.8011 0.624748,10.90652"
       id="path2528"
       sodipodi:nodetypes="cccc" />
    <rect
       style="fill:#000000;fill-opacity:1;stroke:none;stroke-width:1.11667;stroke-miterlimit:4;stroke-dasharray:none;stroke-opacity:1"
       id="rect2526"
       width="87.013412"
       height="6.4225893"
       x="61.498848"
       y="224.92017"
       ry="1.695559"
       rx="1.6273597" />
    <path
       id="rect906"
       style="fill:#4c3825;fill-opacity:1;stroke:none;stroke-width:1.11667;stroke-miterlimit:4;stroke-dasharray:none;stroke-opacity:1"
       d="M 64.170516,224.95549 H 145.8406 c 0.87908,0 1.58679,0.67797 1.58679,1.5201 v 1.57826 c 0,0.84213 -0.70781,2.0776 -1.58679,2.08986 l -81.670084,1.13952 c -0.878982,0.0123 -1.586781,-0.67797 -1.586781,-1.52012 v -3.28752 c 0,-0.84213 0.707704,-1.5201 1.586781,-1.5201 z"
       sodipodi:nodetypes="sssssssss" />
  </g>
  <g
     inkscape:groupmode="layer"
     id="layer10"
     inkscape:label="Right Leg"
     style="display:inline">
    <path
       style="fill:#bdbd9a;fill-opacity:1;stroke:none;stroke-width:2.19745;stroke-linecap:butt;stroke-linejoin:miter;stroke-miterlimit:4;stroke-dasharray:none;stroke-opacity:1"
       d="m 63.473673,256.89304 c 0,0 -1.349667,2.66721 -0.962719,3.97417 0.204071,0.68928 1.557597,0.76291 1.566933,1.4817 0.009,0.69731 -1.2613,0.81498 -1.48228,1.47642 -0.384881,1.15201 0.517535,3.60689 0.517535,3.60689 h 44.418728 c 0,0 -1.25955,-3.90562 -2.755,-5.154 -1.80971,-1.51073 -3.70613,-1.51667 -6.732299,-2.16616 -2.20894,-0.47409 -6.531958,-2.88756 -6.531958,-2.88756 z"
       id="path1070-9"
       sodipodi:nodetypes="caaaccascc" />
    <path
       style="display:inline;fill:#91916f;fill-opacity:1;stroke:none;stroke-width:0.264583px;stroke-linecap:butt;stroke-linejoin:miter;stroke-opacity:1"
       d="m 63.113142,267.43222 44.302948,-0.93907 c 0,0 -23.478647,0.165 -34.538153,-3.20739 -3.482466,-1.06192 -9.588636,-5.23022 -9.588636,-5.23022 z"
       id="path999-36"
       sodipodi:nodetypes="ccacc" />
    <path
       style="fill:#f0f0f0;fill-opacity:1;stroke:none;stroke-width:3.29617;stroke-linecap:butt;stroke-linejoin:miter;stroke-miterlimit:4;stroke-dasharray:none;stroke-opacity:1"
       d="m 63.815402,237.07867 0.222706,20.31403 29.218725,-0.1682 0.246652,-12.74927"
       id="path2571-1"
       sodipodi:nodetypes="cccc" />
    <path
       style="fill:none;fill-opacity:1;stroke:#000000;stroke-width:2.19745;stroke-linecap:butt;stroke-linejoin:miter;stroke-miterlimit:4;stroke-dasharray:none;stroke-opacity:1"
       d="m 63.473673,256.89304 c 0,0 -1.349667,2.66721 -0.962719,3.97417 0.204071,0.68928 1.557597,0.76291 1.566933,1.4817 0.009,0.69731 -1.2613,0.81498 -1.48228,1.47642 -0.384881,1.15201 0.517535,3.60689 0.517535,3.60689 h 44.418728 c 0,0 -1.25955,-3.90562 -2.755,-5.154 -1.80971,-1.51073 -3.70613,-1.51667 -6.732299,-2.16616 -2.20894,-0.47409 -6.531958,-2.88756 -6.531958,-2.88756 z"
       id="path902"
       sodipodi:nodetypes="caaaccascc" />
    <path
       style="display:inline;fill:#e5e5e5;fill-opacity:1;stroke:none;stroke-width:0.264583px;stroke-linecap:butt;stroke-linejoin:miter;stroke-opacity:1"
       d="m 63.473673,256.89304 29.78316,0.33146 c 0,0 -12.876365,-1.88285 -18.056461,-5.44468 -5.107208,-3.51171 -11.38497,-14.70115 -11.38497,-14.70115 z"
       id="path999"
       sodipodi:nodetypes="ccacc" />
    <path
       style="fill:none;fill-opacity:1;stroke:#000000;stroke-width:3.29617;stroke-linecap:butt;stroke-linejoin:miter;stroke-miterlimit:4;stroke-dasharray:none;stroke-opacity:1"
       d="m 63.815402,237.07867 0.222706,20.31403 29.218725,-0.1682 0.246652,-12.74927"
       id="path946"
       sodipodi:nodetypes="cccc" />
  </g>
  <g
     inkscape:groupmode="layer"
     id="layer7"
     inkscape:label="Clothes"
     style="display:inline">
    <path
       style="display:inline;fill:#ffffff;fill-opacity:1;stroke:none;stroke-width:2.64583;stroke-linecap:butt;stroke-linejoin:miter;stroke-miterlimit:4;stroke-dasharray:none;stroke-opacity:1"
       d="m 92.431437,159.0966 23.386093,49.71261 17.92196,-49.71261 -17.63543,5.21168 z"
       id="path1065"
       sodipodi:nodetypes="ccccc" />
    <path
       id="path917"
       style="fill:#861414;fill-opacity:1;stroke:#000000;stroke-width:5;stroke-linecap:butt;stroke-linejoin:miter;stroke-miterlimit:4;stroke-dasharray:none;stroke-opacity:1"
       d="m 438.81836,621.00781 -30.17969,28.98242 8.08594,15.33594 11.81055,7.63281 c 0,0 -1.71092,4.82888 -1.91993,8.19141 -0.22261,3.5828 3.17774,9.44141 3.17774,9.44141 l -12.38281,8.24414 4.1289,98.05468 15.12305,21.82813 15.12305,-21.82813 4.13086,-98.05468 -12.38477,-8.24414 c 0,0 3.4023,-5.85861 3.17969,-9.44141 -0.20901,-3.36253 -1.92188,-8.19141 -1.92188,-8.19141 L 460.91211,665.32617 469,649.99023 Z"
       transform="scale(0.26458334)"
       sodipodi:nodetypes="ccccscccccccscccc" />
    <path
       id="path993"
       style="display:inline;fill:#f0f0f0;fill-opacity:1;stroke:none;stroke-width:9.99999;stroke-linecap:butt;stroke-linejoin:miter;stroke-miterlimit:4;stroke-dasharray:none;stroke-opacity:1"
       d="m 231.61034,576.33266 -1.80134,105.2457 22.23726,92.22422 -27.76274,151.61336 212.37916,-78.69626 1.07286,-57.51954 -88.38839,-187.89017 z"
       transform="scale(0.26458334)"
       sodipodi:nodetypes="cccccccc" />
    <path
       id="path1063"
       style="display:inline;fill:#fafafa;fill-opacity:1;stroke:none;stroke-width:9.99999;stroke-linecap:butt;stroke-linejoin:miter;stroke-miterlimit:4;stroke-dasharray:none;stroke-opacity:1"
       d="m 559.45798,576.33266 -47.9859,24.97731 -73.73654,187.89017 -1.07286,57.51954 137.45831,91.19304 -31.45232,-169.71046 c 0,0 15.6845,-57.23392 18.54766,-86.6239 3.40204,-34.92147 -1.75835,-105.2457 -1.75835,-105.2457 z"
       transform="scale(0.26458334)"
       sodipodi:nodetypes="ccccccac" />
    <path
       id="path1020"
       style="fill:#e5e5e5;fill-opacity:1;stroke:none;stroke-width:0.999999px;stroke-linecap:butt;stroke-linejoin:miter;stroke-opacity:1"
       d="m 231.61034,576.33266 2.87254,8.2582 47.29838,12.67569 34.4663,31.91062 -23.52914,8.35912 145.16441,161.87602 -0.14729,-10.21217 -88.38839,-187.89017 z"
       transform="scale(0.26458334)"
       sodipodi:nodetypes="ccccccccc" />
    <path
       style="fill:#ffffff;fill-opacity:1;stroke:#000000;stroke-width:1.32292;stroke-linecap:butt;stroke-linejoin:miter;stroke-miterlimit:4;stroke-dasharray:none;stroke-opacity:1"
       d="m 116.10406,164.30828 5.03543,12.98655 8.72002,-7.88707 3.87998,-10.31116 z"
       id="path913"
       sodipodi:nodetypes="ccccc" />
    <path
       id="path1009"
       style="fill:#fafafa;fill-opacity:1;stroke:none;stroke-width:0.264583px;stroke-linecap:butt;stroke-linejoin:miter;stroke-opacity:1"
       d="m 148.48849,152.48802 -14.749,6.60858 -17.92196,49.71261 25.7547,-40.40935 -4.81761,-2.71943"
       sodipodi:nodetypes="ccccc" />
    <path
       id="path1005"
       style="fill:#f0f0f0;fill-opacity:1;stroke:none;stroke-width:0.264583px;stroke-linecap:butt;stroke-linejoin:miter;stroke-opacity:1"
       d="m 61.280238,152.48802 31.151199,6.60858 23.386093,49.71261 -29.866936,-40.0992 5.286733,-2.40136 -16.076627,-10.4062"
       sodipodi:nodetypes="cccccc" />
    <path
       style="display:inline;fill:none;fill-opacity:1;stroke:#000000;stroke-width:2.64583;stroke-linecap:butt;stroke-linejoin:miter;stroke-miterlimit:4;stroke-dasharray:none;stroke-opacity:1"
       d="m 92.431437,159.0966 23.386093,49.71261 17.92196,-49.71261 -17.63543,5.21168 z"
       id="path1036"
       sodipodi:nodetypes="ccccc" />
    <path
       style="display:inline;fill:none;stroke:#000000;stroke-width:2.64583;stroke-linecap:round;stroke-linejoin:miter;stroke-miterlimit:4;stroke-dasharray:none;stroke-opacity:1"
       d="m 75.1607,155.90245 16.076627,10.4062 -5.286733,2.40136 29.866936,40.0992 -0.28386,15.21871"
       id="path1067"
       sodipodi:nodetypes="ccccc" />
    <path
       style="display:inline;fill:none;stroke:#000000;stroke-width:2.64583;stroke-linecap:butt;stroke-linejoin:miter;stroke-miterlimit:4;stroke-dasharray:none;stroke-opacity:1"
       d="m 148.48849,152.48802 -11.73387,13.19241 4.81761,2.71943 -25.7547,40.40935"
       id="path1069"
       sodipodi:nodetypes="cccc" />
    <ellipse
       style="display:inline;fill:#000000;fill-opacity:1;stroke:none;stroke-width:3.3052;stroke-miterlimit:4;stroke-dasharray:none;stroke-opacity:1"
       id="path1071"
       cx="120.53001"
       cy="211.37454"
       rx="2.4453847"
       ry="2.4509189" />
    <path
       style="fill:#ffffff;fill-opacity:1;stroke:#000000;stroke-width:1.32292;stroke-linecap:butt;stroke-linejoin:miter;stroke-miterlimit:4;stroke-dasharray:none;stroke-opacity:1"
       d="m 116.10406,164.30828 -5.84569,12.7841 -12.498932,-7.52739 -5.328001,-10.46839 z"
       id="path911"
       sodipodi:nodetypes="cc" />
    <path
       style="display:inline;fill:#e5e5e5;fill-opacity:1;stroke:none;stroke-width:0.264583px;stroke-linecap:butt;stroke-linejoin:miter;stroke-opacity:1"
       d="M 59.341682,249.61214 100.28415,229.607 c 0,0 -15.720536,-6.6154 -21.178592,-12.80019 -10.08848,-11.43174 -18.6079,-41.78403 -18.6079,-41.78403 0,0 0.04609,3.55721 0.305975,5.3115 1.226102,8.27644 5.883608,24.40099 5.883608,24.40099 z"
       id="path995"
       sodipodi:nodetypes="ccacacc" />
    <path
       style="display:inline;fill:none;fill-opacity:1;stroke:#000000;stroke-width:2.64583;stroke-linecap:butt;stroke-linejoin:miter;stroke-miterlimit:4;stroke-dasharray:none;stroke-opacity:1"
       d="m 61.280238,152.48802 c 0,0 -1.493378,18.61866 -0.476604,27.84626 0.916375,8.31643 5.883607,24.40099 5.883607,24.40099 l -7.345559,44.87687 56.191988,-25.58422 36.36918,24.12816 -8.32176,-44.90256 c 0,0 4.08493,-15.14974 4.9074,-22.91924 0.97713,-9.23051 0,-27.84626 0,-27.84626 l -14.749,6.60858 -17.63543,5.21168 -23.672623,-5.21168 z"
       id="path991"
       sodipodi:nodetypes="cacccccaccccc" />
    <ellipse
       style="display:inline;fill:#000000;fill-opacity:1;stroke:none;stroke-width:3.3052;stroke-miterlimit:4;stroke-dasharray:none;stroke-opacity:1"
       id="ellipse909"
       cx="120.53001"
       cy="219.31194"
       rx="2.4453847"
       ry="2.4509189" />
    <path
       style="fill:#e5e5e5;fill-opacity:1;stroke:#000000;stroke-width:1.32292;stroke-linecap:butt;stroke-linejoin:miter;stroke-miterlimit:4;stroke-dasharray:none;stroke-opacity:1"
       d="m 75.401583,210.46361 h 17.664832 l -0.12625,11.28468 c 0,0 -5.043191,3.88112 -8.020316,3.93296 -3.349184,0.0583 -9.171204,-4.10767 -9.171204,-4.10767 z"
       id="path906"
       sodipodi:nodetypes="cccacc" />
    <path
       style="fill:#f0f0f0;fill-opacity:1;stroke:#000000;stroke-width:1.32292;stroke-linecap:butt;stroke-linejoin:miter;stroke-miterlimit:4;stroke-dasharray:none;stroke-opacity:1"
       d="m 132.27718,210.46361 h 11.06384 l 1.4971,11.28468 c 0,0 -2.2693,3.65622 -4.15656,3.93296 -3.01173,0.44163 -8.1558,-4.10767 -8.1558,-4.10767 z"
       id="path908"
       sodipodi:nodetypes="cccacc" />
  </g>
  <g
     inkscape:groupmode="layer"
     id="layer2"
     inkscape:label="Right Hand"
     style="display:inline">
    <path
       style="fill:#b400b4;fill-opacity:1;stroke:#000000;stroke-width:2.64583;stroke-linecap:butt;stroke-linejoin:miter;stroke-miterlimit:4;stroke-dasharray:none;stroke-opacity:1"
       d="m 76.201369,216.62498 c 0,0 1.127848,3.96189 1.417526,5.9947 0.256154,1.79755 0.712689,3.67738 0.277134,5.44009 -0.373819,1.51285 -1.207968,2.99968 -2.385085,4.02089 -1.106858,0.96025 -2.600976,1.5463 -4.059577,1.68666 -1.77658,0.17097 -3.676324,-0.22352 -5.245599,-1.07372 -1.181533,-0.64012 -2.444628,-1.58081 -2.834273,-2.86686 -0.470211,-1.552 0.78124,-3.16093 0.925065,-4.7762 0.236343,-2.65433 -0.109532,-7.99376 -0.109532,-7.99376 z"
       id="path956"
       sodipodi:nodetypes="caaaaaaacc" />
    <path
       style="fill:#f0f0f0;fill-opacity:1;stroke:none;stroke-width:2.91042;stroke-linecap:butt;stroke-linejoin:miter;stroke-miterlimit:4;stroke-dasharray:none;stroke-opacity:1"
       d="m 62.220447,183.02122 0.754809,35.49568 c 0,0 5.567093,-0.72539 8.365833,-0.71443 2.780452,0.0109 8.305352,0.77486 8.305352,0.77486 l -0.513093,-34.83204"
       id="path954"
       sodipodi:nodetypes="ccacc" />
    <path
       style="display:inline;fill:#e5e5e5;fill-opacity:1;stroke:none;stroke-width:0.264583px;stroke-linecap:butt;stroke-linejoin:miter;stroke-opacity:1"
       d="m 62.975256,218.5169 -0.754809,-35.49568 c 0,0 1.329349,17.37187 5.552904,24.6643 2.691697,4.64752 11.87309,10.89181 11.87309,10.89181 l -8.438988,-0.81281 z"
       id="path1048"
       sodipodi:nodetypes="ccaccc" />
    <path
       style="fill:none;fill-opacity:1;stroke:#000000;stroke-width:2.74681;stroke-linecap:butt;stroke-linejoin:miter;stroke-miterlimit:4;stroke-dasharray:none;stroke-opacity:1"
       d="m 62.220447,183.02122 0.754809,35.49568 c 0,0 5.623038,-0.83263 8.454264,-0.81841 2.75456,0.0138 8.216921,0.87884 8.216921,0.87884 l -0.513093,-34.83204"
       id="path967"
       sodipodi:nodetypes="ccacc" />
  </g>
  <g
     inkscape:groupmode="layer"
     id="layer5"
     inkscape:label="Facial Hair"
     style="display:inline">
    <path
       id="path871"
       style="display:inline;fill:#00b400;fill-opacity:1;stroke-width:0.999999"
       d="m 221.24299,233.75908 c -3.02854,5.26042 -4.65139,6.80384 -6.34168,11.70772 -5.57464,16.17311 -6.68726,41.01686 -7.22561,61.72553 -0.68276,26.26363 5.08407,78.65337 5.08407,78.65337 l 7.97856,2.85032 2.85479,35.98191 c 0,0 25.05062,107.19676 32.34243,110.8084 7.29181,3.61164 9.05386,3.09494 13.76119,2.22031 4.70734,-0.87463 -10.16334,-32.33915 -12.21581,-49.06943 -4.34859,-35.44666 -0.96594,-71.43744 -0.0161,-107.13721 0.73286,-27.54459 -2.72777,-55.93106 4.40799,-82.54539 4.0003,-14.91994 17.97725,-26.15792 21.01031,-41.30413 1.93051,-9.64041 5.29217,-23.06725 -2.21851,-29.41186 -15.1962,-12.83695 -37.65318,5.34755 -59.42164,5.52046 z"
       transform="scale(0.26458334)"
       sodipodi:nodetypes="csaccczzaaaaacc" />
    <path
       id="path924"
       style="display:inline;fill:none;fill-opacity:1;stroke:#000000;stroke-width:2.64583;stroke-miterlimit:4;stroke-dasharray:none;stroke-opacity:1"
       d="m 57.660097,61.032878 c -0.319263,0.392748 -0.779168,1.789344 -0.991904,2.735727 -1.109285,4.9348 -1.386137,10.048522 -1.430183,15.106271 -0.07075,8.124031 1.874305,24.300844 1.874305,24.300844"
       sodipodi:nodetypes="caac" />
    <path
       style="display:inline;fill:#00b400;fill-opacity:1;stroke:none;stroke-width:0.270602px;stroke-linecap:butt;stroke-linejoin:miter;stroke-opacity:1"
       d="m 73.270845,86.315314 c 0,0 7.370603,-2.688534 11.26772,-3.358338 3.435666,-0.590494 7.001955,-0.828454 10.49018,-0.549576 2.852803,0.228077 7.535265,-0.571174 8.337495,1.801933 0.38692,1.14457 -1.55895,2.171181 -2.84916,2.598113 -3.082115,1.019891 -5.557308,-0.726489 -9.870881,-0.688013 -4.369961,0.03898 -7.965722,1.109934 -13.063911,1.271399 -1.132265,0.03586 -4.311443,-1.075518 -4.311443,-1.075518 z"
       id="path897"
       sodipodi:nodetypes="caaaassc" />
    <path
       id="path899"
       style="display:inline;fill:#00b400;fill-opacity:1;stroke:none;stroke-width:0.290703px;stroke-linecap:butt;stroke-linejoin:miter;stroke-opacity:1"
       d="m 138.25514,82.861752 c -2.43781,0.128427 -4.95654,0.275529 -7.23059,1.163271 -1.95036,0.76138 -4.95629,1.392887 -5.23715,3.467671 -0.0815,0.60192 0.6736,1.508942 1.19722,1.373749 3.71327,-0.95873 5.94104,-1.732946 9.0039,-1.998243 3.34182,-0.289461 5.46604,0.124626 10.05255,0.458585 l -0.0304,-3.194904 c -1.95769,-0.508095 -3.12962,-0.876889 -4.73375,-1.10604 -0.99859,-0.14265 -2.01441,-0.217157 -3.02174,-0.164089 z"
       sodipodi:nodetypes="aaasaccaa" />
    <path
       id="path1301"
       style="display:inline;fill:#00a000;fill-opacity:1;stroke:none;stroke-width:0.290703px;stroke-linecap:butt;stroke-linejoin:miter;stroke-opacity:1"
       d="m 92.40108,82.292652 c -2.63566,-0.02305 -5.285819,0.22169 -7.86257,0.66456 -1.834555,0.315309 -4.427096,1.076793 -6.669876,1.795756 0.239043,-0.04442 6.876153,-1.274273 8.961726,-1.233517 3.865232,0.199959 7.60839,0.131064 11.303188,1.283642 1.096889,0.342173 2.488912,0.725377 3.853512,1.350823 0.89696,-0.511755 1.63032,-1.201852 1.37924,-1.944585 -0.80223,-2.373106 -5.48467,-1.573879 -8.337473,-1.801955 -0.872057,-0.06972 -1.749193,-0.10704 -2.627747,-0.114724 z" />
    <path
       id="path1330"
       style="display:inline;fill:#00a000;fill-opacity:1;stroke:none;stroke-width:0.290703px;stroke-linecap:butt;stroke-linejoin:miter;stroke-opacity:1"
       d="m 139.01167,82.845073 c -0.25249,-0.0019 -0.50471,0.0033 -0.75654,0.01654 -2.43781,0.128429 -4.95652,0.275495 -7.23057,1.163238 -0.61525,0.240181 -1.33404,0.471638 -2.0407,0.735356 -0.27319,0.113811 -0.5426,0.221001 -0.80873,0.321427 -8e-4,2.64e-4 -0.001,7.93e-4 -0.002,0.0011 -0.0335,0.01482 -0.0655,0.0309 -0.0987,0.04599 3.27356,0.07682 9.73588,-1.127567 12.82867,-0.16278 1.45338,0.453377 3.26838,1.357413 5.03742,2.353345 1.8e-4,1.3e-5 2.7e-4,-1.3e-5 5.3e-4,0 0.0354,0.0026 0.0646,0.0052 0.10026,0.0078 l -0.0305,-3.195153 c -1.22377,-0.317619 -2.14022,-0.580483 -3.04736,-0.789102 -0.1814,-0.04173 -0.36216,-0.08149 -0.54518,-0.118853 -0.36602,-0.07472 -0.73998,-0.140634 -1.14102,-0.197922 -0.22289,-0.03184 -0.44695,-0.05933 -0.67127,-0.08372 -0.0688,-0.0075 -0.13782,-0.01347 -0.20671,-0.02016 -0.16339,-0.01588 -0.32714,-0.02918 -0.49092,-0.04031 -0.072,-0.0049 -0.14393,-0.01005 -0.21601,-0.01394 -0.22675,-0.01228 -0.45375,-0.02117 -0.68058,-0.02273 z" />
    <path
       id="path912"
       style="display:inline;fill:#00b400;fill-opacity:1;stroke:none;stroke-width:2.64583;stroke-linecap:butt;stroke-linejoin:miter;stroke-miterlimit:4;stroke-dasharray:none;stroke-opacity:1"
       d="m 145.3003,62.912555 c 0,0 -3.19166,-0.313295 -3.93848,0.798757 -1.9566,2.913463 1.13993,6.932452 1.9669,10.343121 0.74457,3.07084 2.69094,9.089493 2.69094,9.089493 l 3.23487,-9.875335 c 0,0 -1.66461,-4.617046 -2.55188,-6.904756 -0.44902,-1.157744 -1.40235,-3.45128 -1.40235,-3.45128 z"
       sodipodi:nodetypes="caaccac" />
    <path
       id="path918"
       style="display:inline;fill:#00b400;fill-opacity:1;stroke:none;stroke-width:2.64583;stroke-linecap:butt;stroke-linejoin:miter;stroke-miterlimit:4;stroke-dasharray:none;stroke-opacity:1"
       d="m 145.86707,129.54507 c -0.68777,4.28879 -4.68015,12.09429 -3.49901,12.5522 1.18115,0.45792 2.95071,-0.60327 4.07792,-1.51559 0.69029,-0.5587 0.39752,-0.0725 1.4282,-2.24901 v -2.6e-4 -2.5e-4 c 0,0 1.44016,-6.33543 1.20209,-9.52761 -0.24954,-3.34593 -2.72739,-9.68913 -2.72739,-9.68913 0,0 0.0693,6.9933 -0.48181,10.42965 z"
       sodipodi:nodetypes="asacccaca" />
    <path
       style="display:inline;fill:none;stroke:#000000;stroke-width:2.64583;stroke-linecap:butt;stroke-linejoin:miter;stroke-miterlimit:4;stroke-dasharray:none;stroke-opacity:1"
       d="m 146.35986,62.609686 0.77136,5.043631 c 0,0 1.81316,3.652005 1.97257,5.636028 0.27732,3.451508 -1.82207,10.226848 -1.82207,10.226848"
       id="path921"
       sodipodi:nodetypes="ccac" />
    <path
       style="display:inline;fill:none;stroke:#000000;stroke-width:2.64583;stroke-linecap:butt;stroke-linejoin:miter;stroke-miterlimit:4;stroke-dasharray:none;stroke-opacity:1"
       d="m 147.64525,118.84035 c 0,0 0.85099,6.7501 0.90406,10.14463 0.0606,3.87814 -0.67003,11.61655 -0.67003,11.61655"
       id="path923"
       sodipodi:nodetypes="cac" />
  </g>
  <g
     inkscape:groupmode="layer"
     id="layer6"
     inkscape:label="Facewear"
     style="display:inline">
    <g
       id="g908"
       transform="translate(-107.37796,-48.334385)">
      <g
         id="g890"
         transform="translate(102.67245,39.758336)">
        <path
           style="fill:none;stroke:#000000;stroke-width:2.565;stroke-linecap:butt;stroke-linejoin:miter;stroke-miterlimit:4;stroke-dasharray:none;stroke-opacity:1"
           d="m 152.09654,101.09039 c 3.71575,-2.211993 6.52737,1.05404 6.91358,1.85721 0.38621,0.80316 2.23945,5.11304 0.16483,7.83449 -2.07462,2.72145 -6.20909,4.50212 -6.13662,7.23508 0.0725,2.73295 2.53609,2.73552 2.53609,2.73552"
           id="path886"
           sodipodi:nodetypes="csssc" />
        <circle
           style="opacity:1;fill:#00ffff;fill-opacity:0.225312;stroke:#000000;stroke-width:2.766;stroke-linejoin:round;stroke-miterlimit:4;stroke-dasharray:none;paint-order:normal"
           id="circle888"
           cx="140.75938"
           cy="106.46598"
           r="12.479989" />
      </g>
      <path
         style="fill:#ffffff;fill-opacity:1;stroke:#ffffff;stroke-width:2.065;stroke-linecap:butt;stroke-linejoin:miter;stroke-miterlimit:4;stroke-dasharray:none;stroke-opacity:0.683017"
         d="m 235.18411,145.67393 7.12339,-7.12339"
         id="path892" />
      <path
         style="fill:#ffffff;fill-opacity:1;stroke:#ffffff;stroke-width:2.065;stroke-linecap:butt;stroke-linejoin:miter;stroke-miterlimit:4;stroke-dasharray:none;stroke-opacity:0.683017"
         d="M 236.25154,150.99968 248.03912,139.2121"
         id="path894" />
    </g>
  </g>
  <g
     inkscape:groupmode="layer"
     id="layer4"
     inkscape:label="Hat Hair"
     style="display:inline">
    <path
       id="path1015"
       style="display:inline;fill:#00b4b4;fill-opacity:1;stroke-width:0.999999"
       d="m 373.5,131.84375 c -17.20271,-0.0108 -35.30287,-2.91355 -50.745,1.28518 -15.44213,4.19873 -28.22623,15.499 -43.03234,24.21287 -26.61066,15.66122 -43.8437,53.25011 -58.11133,76.4414 0.0117,1.55724 -2.18649,3.45437 -4.40821,5.33985 l -0.0195,-0.0449 -0.043,-7.46484 c -5.04539,6.66398 -5.62394,8.04361 -8.32421,12.14063 -3.44006,5.21944 -0.36936,13.37384 -3.42765,18.82577 -4.34053,7.73774 -13.96288,13.19169 -18.37118,20.89102 -5.30783,9.27039 -6.13956,19.19743 -10.49173,28.95303 -5.96652,13.37421 -6.87929,26.71396 -10.94549,40.7829 -4.55222,15.75054 -0.60191,37.19847 -3.16953,53.39136 -4.27512,26.96141 -7.28166,51.52631 -7.79182,78.81976 -0.41905,22.41808 -12.62716,40.96239 -13.83581,63.35178 -0.78101,14.46781 -3.44922,43.32813 -3.44922,43.32813 0,0 14.7827,-48.52882 32.98047,-44.86914 7.04972,1.41772 9.66496,11.7082 10.51172,21.8496 1.02922,-16.10853 4.67073,-35.73209 16.35547,-36.67187 17.05202,-1.37144 21.83008,46.44727 21.83008,46.44727 l 9.54883,-67.51954 c 0,0 -35.35167,-45.53716 -36.59961,-72.61328 -0.87201,-18.91963 16.54647,-34.41885 20.79883,-52.875 4.70121,-20.40432 4.90429,-62.625 4.90429,-62.625 0,0 4.08651,-11.15477 6.871,-16.38012 11.83228,-22.20443 19.11214,-51.55838 41.49331,-63.05285 5.2898,-2.71672 17.06294,-0.0322 25.02293,-2.67953 7.63198,-2.53822 12.78848,-11.18164 20.75171,-12.31155 10.56495,-1.49906 20.32507,8.42052 30.98871,8.03045 11.09997,-0.40604 20.48028,-9.90639 31.55976,-10.69344 11.31319,-0.80365 22.10573,6.04009 33.44541,6.25398 11.34271,0.21395 22.33994,-5.63223 33.66645,-4.98959 11.16568,0.63351 21.30188,7.42363 32.41905,8.64115 11.98354,1.3124 24.34554,-4.05594 36.13317,-1.53023 15.02878,3.22019 24.01601,18.65724 41.22467,20.65509 -0.18897,-7.32265 2.62165,-23.71363 -1.64453,-26.88476 C 547.52516,226.74028 548.875,211.61814 542,205.61917 529.55469,194.75967 529.35111,187.69941 517.2412,179.44721 505.13128,171.195 482.5331,166.55548 469.91806,160.33786 453.02031,152.0094 436.12389,141.28761 420.73414,137.44996 405.34439,133.61231 373.5,131.85417 373.5,131.84378 v -2e-5 z M 180.82617,569.07812 c -0.72689,11.37679 -0.16211,21.01563 -0.16211,21.01563 0,0 1.04622,-10.42691 0.16211,-21.01563 z"
       transform="scale(0.26458334)"
       sodipodi:nodetypes="cssccccsssssssscscsccsscasaaaaaaaacssssssccccc" />
    <path
       id="path1116"
       style="display:inline;fill:none;fill-opacity:1;stroke:#000000;stroke-width:2.64583;stroke-miterlimit:4;stroke-dasharray:none;stroke-opacity:1"
       d="m 57.451574,61.280806 c -1.334927,1.763178 -1.620188,2.268046 -2.180258,3.533734 -0.663957,1.500459 -0.603026,3.275543 -1.362171,4.73016 -1.083787,2.076675 -3.360789,3.371737 -4.427614,5.457176 -1.26177,2.466517 -1.343034,5.379041 -2.169557,8.023399 -0.992756,3.176196 -2.553133,6.173852 -3.346135,9.405715 -1.180155,4.809696 -1.670537,9.77626 -2.064959,14.7129 -0.583703,7.30571 0.534266,14.71862 -0.440053,21.98256 -0.501742,3.74067 -2.036398,7.27657 -2.764527,10.97985 -1.075254,5.46876 -2.360153,16.55299 -2.360153,16.55299 0,0 3.911281,-12.83995 8.726109,-11.87166 3.812745,0.76676 2.738632,11.34127 2.738632,11.34127 0,0 -0.905111,-14.83872 4.369934,-15.26298 4.51168,-0.36286 5.775857,12.2891 5.775857,12.2891 l 2.526631,-17.86453 c 0,0 -9.156786,-12.05827 -9.302827,-19.15492 -0.104035,-5.0554 4.807177,-9.00756 6.060018,-13.90636 1.386456,-5.42126 1.505392,-16.719586 1.505392,-16.719586"
       sodipodi:nodetypes="caaaaaaaacacaccaac" />
    <path
       id="path930"
       style="display:inline;fill:#00a3a3;fill-opacity:1;stroke:none;stroke-width:1.09418px;stroke-linecap:butt;stroke-linejoin:miter;stroke-opacity:1"
       d="m 497.99219,174.92578 -4.92383,2.6543 c 0,0 29.41262,18.56386 38.37891,32.80664 4.3257,6.87128 7.03453,15.45606 6.26562,23.53906 -0.42887,4.50832 -1.61601,9.61953 -3.32812,14.53125 4.95296,3.23822 10.30766,5.94686 16.85546,6.70703 -0.18897,-7.32265 2.62165,-23.71363 -1.64453,-26.88476 -2.07054,-1.53905 -0.7207,-16.66119 -7.5957,-22.66016 -8.62389,-7.52502 -11.37293,-13.2265 -16.27539,-18.76367 -11.60985,-6.18046 -27.73242,-11.92969 -27.73242,-11.92969 z"
       transform="scale(0.26458334)" />
    <path
       id="path884"
       style="display:inline;fill:none;fill-opacity:1;stroke:#000000;stroke-width:2.64583;stroke-miterlimit:4;stroke-dasharray:none;stroke-opacity:1"
       d="m 147.13122,67.653317 c 0.0874,-0.823998 0.43882,-3.906089 0.25993,-4.742329 -1.37128,-3.113609 -1.29907,-6.308332 -3.02012,-8.941882 -1.86336,-2.851311 -4.65692,-5.090214 -7.55406,-6.881484 -3.5416,-2.18973 -7.91332,-2.669194 -11.65224,-4.501751 -3.37975,-1.656514 -6.09857,-4.640613 -9.66886,-5.832163 -3.94143,-1.315415 -8.27323,-0.789131 -12.40129,-1.262716 -4.167904,-0.478155 -8.315329,-2.061685 -12.484393,-1.593796 -5.385372,0.604394 -10.891008,2.388588 -15.269113,5.582288 -4.445473,3.242842 -6.618543,8.797689 -10.131973,13.032551 -2.49182,3.00348 -7.509937,8.366833 -7.757528,8.768771"
       sodipodi:nodetypes="ccaaaaaaaac" />
    <path
       id="path874-3-5"
       style="display:inline;fill:#00a8a8;fill-opacity:1;stroke:none;stroke-width:1.09418px;stroke-linecap:butt;stroke-linejoin:miter;stroke-opacity:1"
       d="m 388.8457,138.83789 c 0,0 36.81144,23.66017 39.07001,42.85936 1.30405,11.08511 -10.69136,19.59749 -16.19947,29.30526 -3.86698,6.81537 -3.54813,16.07051 -11.82757,20.31585 2.61553,0.59623 5.24618,1.01815 7.90821,1.06836 11.34205,0.21394 22.33824,-5.63014 33.66406,-4.98828 6.5e-4,3e-5 0.001,-4e-5 0.002,0 1.01883,-0.57573 3.60162,-4.83225 3.22734,-7.54057 -0.58779,-4.25333 -7.26651,-5.80973 -8.09021,-10.02374 -2.03496,-10.41067 11.04253,-20.02208 9.191,-30.46694 -1.08775,-6.13625 -6.53163,-10.8503 -11.22309,-14.95238 -13.14656,-11.49498 -45.72223,-25.57692 -45.72223,-25.57692 z"
       transform="scale(0.26458334)"
       sodipodi:nodetypes="caacsscaaaac" />
    <path
       id="path1113"
       style="display:inline;fill:#00c7c7;fill-opacity:1;stroke:none;stroke-width:1.09418px;stroke-linecap:butt;stroke-linejoin:miter;stroke-opacity:1"
       d="m 464.63477,162.33398 c 0,0 4.19827,19.26685 7.5214,28.51987 3.13622,8.73258 13.83573,16.26479 11.64789,25.28185 -2.16405,8.91904 -15.09772,12.50898 -21.70054,16.94633 3.86146,1.3443 7.75618,2.51643 11.77929,2.95703 4.20623,0.46066 8.45852,0.0943 12.7168,-0.46094 4.5163,-5.0233 20.09288,-14.11937 19.38609,-24.51274 -0.75509,-11.10375 -16.90019,-14.62749 -24.06586,-23.14317 -6.62721,-7.87578 -17.28507,-25.58823 -17.28507,-25.58823 z"
       transform="scale(0.26458334)"
       sodipodi:nodetypes="caacscaac" />
    <path
       id="path928"
       style="display:inline;fill:#00a3a3;fill-opacity:1;stroke:none;stroke-width:1.09418px;stroke-linecap:butt;stroke-linejoin:miter;stroke-opacity:1"
       d="m 298.06836,146.71094 -4.92383,2.65429 c 0,0 29.41261,18.56386 38.37891,32.80665 4.32569,6.87128 7.03454,15.45605 6.26562,23.53906 -0.83244,8.75079 -4.48751,19.7856 -9.39453,27.17968 4.71872,2.0826 9.46,4.11613 14.39649,3.93555 3.58229,-0.13104 6.98522,-1.21373 10.32421,-2.64062 -0.9753,-3.44556 -1.68734,-6.585 -1.29687,-8.21875 1.49278,-6.24589 6.19926,-11.56907 7.02539,-17.9375 0.85813,-6.61519 0.50515,-13.83001 -2.30273,-19.88086 -4.85301,-10.45797 -14.32893,-18.45835 -23.66797,-25.21875 -10.36783,-7.50512 -34.80469,-16.21875 -34.80469,-16.21875 z"
       transform="scale(0.26458334)" />
    <path
       id="path939"
       style="display:inline;fill:#00c2c2;fill-opacity:1;stroke:none;stroke-width:1.09418px;stroke-linecap:butt;stroke-linejoin:miter;stroke-opacity:1"
       d="m 366.79688,135.49609 c 0,0 4.19835,24.82943 7.52148,36.75391 3.13622,11.25378 13.47698,21.19275 11.64648,32.58008 -1.32904,8.26778 -8.40886,15.96099 -14.76367,21.77734 1.03768,-0.22121 2.0843,-0.39888 3.15039,-0.47461 6.52101,-0.46323 12.87047,1.60997 19.25,3.49414 6.44146,-8.19299 15.63303,-20.63552 14.54492,-31.33007 -1.29305,-12.70889 -16.89877,-18.85192 -24.06445,-29.82618 -6.6272,-10.14961 -17.28516,-32.97461 -17.28515,-32.97461 z"
       transform="scale(0.26458334)" />
  </g>
</svg>
