<?xml version="1.0" encoding="UTF-8" standalone="no"?>
<svg
   xmlns:dc="http://purl.org/dc/elements/1.1/"
   xmlns:cc="http://creativecommons.org/ns#"
   xmlns:rdf="http://www.w3.org/1999/02/22-rdf-syntax-ns#"
   xmlns:svg="http://www.w3.org/2000/svg"
   xmlns="http://www.w3.org/2000/svg"
   xmlns:sodipodi="http://sodipodi.sourceforge.net/DTD/sodipodi-0.dtd"
   xmlns:inkscape="http://www.inkscape.org/namespaces/inkscape"
   width="768"
   height="1024"
   viewBox="0 0 203.2 270.93334"
   version="1.1"
   id="svg8"
   inkscape:version="1.0.2 (e86c870879, 2021-01-15)"
   sodipodi:docname="character-polizei.svg"
   inkscape:export-filename="police_uniform.png"
   inkscape:export-xdpi="96"
   inkscape:export-ydpi="96">
  <title
     id="title927">Crazy Science Guy</title>
  <defs
     id="defs2" />
  <sodipodi:namedview
     id="base"
     pagecolor="#ffffff"
     bordercolor="#666666"
     borderopacity="1.0"
     inkscape:pageopacity="0.0"
     inkscape:pageshadow="2"
     inkscape:zoom="1.699064"
     inkscape:cx="476.3031"
     inkscape:cy="797.11836"
     inkscape:document-units="px"
     inkscape:current-layer="layer8"
     inkscape:document-rotation="0"
     showgrid="false"
     inkscape:window-width="1920"
     inkscape:window-height="1016"
     inkscape:window-x="0"
     inkscape:window-y="0"
     inkscape:window-maximized="1"
     showguides="false"
     units="px"
     inkscape:pagecheckerboard="true"
     inkscape:snap-global="true"
     inkscape:snap-bbox="true" />
  <metadata
     id="metadata5">
    <rdf:RDF>
      <cc:Work
         rdf:about="">
        <dc:format>image/svg+xml</dc:format>
        <dc:type
           rdf:resource="http://purl.org/dc/dcmitype/StillImage" />
        <dc:title>Crazy Science Guy</dc:title>
        <dc:creator>
          <cc:Agent>
            <dc:title>NiceMicro</dc:title>
          </cc:Agent>
        </dc:creator>
        <dc:contributor>
          <cc:Agent>
            <dc:title>Monacle by Moxvallix</dc:title>
          </cc:Agent>
        </dc:contributor>
      </cc:Work>
    </rdf:RDF>
  </metadata>
  <g
     inkscape:groupmode="layer"
     id="layer3"
     inkscape:label="Left hand"
     style="display:inline;mix-blend-mode:normal">
    <path
       style="display:inline;fill:#b400b4;fill-opacity:1;stroke:#000000;stroke-width:2.64583;stroke-linecap:butt;stroke-linejoin:miter;stroke-miterlimit:4;stroke-dasharray:none;stroke-opacity:1"
       d="m 144.67618,216.62498 c 0,0 1.12785,3.96189 1.41752,5.9947 0.25616,1.79755 0.71269,3.67738 0.27714,5.44009 -0.37382,1.51284 -1.20797,2.99968 -2.38509,4.02089 -1.10685,0.96025 -2.60097,1.54629 -4.05957,1.68666 -1.77658,0.17096 -3.67633,-0.22352 -5.2456,-1.07373 -1.18154,-0.64011 -2.44463,-1.5808 -2.83428,-2.86685 -0.47021,-1.552 0.78124,-3.16093 0.92507,-4.7762 0.23634,-2.65433 -0.10953,-7.99376 -0.10953,-7.99376 z"
       id="path956-3"
       sodipodi:nodetypes="caaaaaaacc" />
    <path
       style="display:inline;fill:#222f37;fill-opacity:1;stroke:none;stroke-width:2.91042;stroke-linecap:butt;stroke-linejoin:miter;stroke-miterlimit:4;stroke-dasharray:none;stroke-opacity:1"
       d="m 130.69526,183.02122 0.75481,35.49568 c 0,0 5.56709,-0.72539 8.36583,-0.71443 2.78045,0.0109 8.30535,0.77486 8.30535,0.77486 l -0.51309,-34.83204"
       id="path954-7"
       sodipodi:nodetypes="ccacc" />
    <path
       style="display:inline;fill:#1b272c;fill-opacity:1;stroke:none;stroke-width:0.264583px;stroke-linecap:butt;stroke-linejoin:miter;stroke-opacity:1"
       d="m 131.45007,218.5169 -0.75481,-35.49568 c 0,0 1.62557,17.20363 5.79918,24.47536 2.66504,4.64332 11.62681,11.08075 11.62681,11.08075 l -7.54832,-1.02206 z"
       id="path1048-6"
       sodipodi:nodetypes="ccaccc" />
    <path
       style="display:inline;fill:#4b2c10;fill-opacity:0;stroke:#000000;stroke-width:2.7468;stroke-linecap:butt;stroke-linejoin:miter;stroke-miterlimit:4;stroke-dasharray:none;stroke-opacity:1"
       d="m 130.69526,183.02122 0.75481,35.49568 c 0,0 5.62304,-0.83264 8.45426,-0.81842 2.75456,0.0138 8.21692,0.87885 8.21692,0.87885 l -0.51309,-34.83204"
       id="path966-5"
       sodipodi:nodetypes="ccacc" />
  </g>
  <g
     inkscape:label="Body"
     inkscape:groupmode="layer"
     id="layer1"
     style="display:inline">
    <path
       id="path889-7-3"
       style="display:inline;fill:#b400b4;fill-opacity:0.998408;stroke:#000000;stroke-width:2.64583;stroke-linecap:butt;stroke-linejoin:miter;stroke-miterlimit:4;stroke-dasharray:none;stroke-opacity:1"
       d="m 101.53042,36.985856 c -8.824771,-0.0057 -16.457444,2.1374 -24.052793,6.753593 -6.99573,5.578325 -15.800833,10.919241 -20.025837,17.541566 -0.203158,0.799588 -0.112437,1.714429 -0.128669,2.573021 -0.304454,16.104306 0.58756,48.317984 0.58756,48.317984 -0.02564,-1.41023 -0.257657,-6.79318 -2.313041,-8.42069 -1.314598,-1.04094 -3.480573,-0.77925 -5.028634,-0.13487 -1.801902,0.75004 -3.289183,2.45109 -4.012673,4.26382 -1.570969,3.93611 -0.877441,8.55623 -0.05633,12.71395 0.433744,2.19627 1.203687,4.43516 2.580203,6.20066 2.912856,3.73597 11.393104,8.4956 11.393104,8.4956 l 0.806928,17.19753 17.740261,72.80111 h 53.505261 l 15.4975,-72.80111 -0.90666,-86.071362 c 0.0271,-1.138539 0.0407,-2.618574 -0.0672,-3.122809 -6.27173,-7.924938 -13.59006,-16.092189 -21.15199,-20.033401 -8.66833,-4.412033 -15.88052,-6.269049 -24.36699,-6.274555 z"
       sodipodi:nodetypes="cccacssssscccccccccc" />
    <path
       style="display:inline;fill:none;stroke:#000000;stroke-width:2.64583;stroke-linecap:butt;stroke-linejoin:miter;stroke-miterlimit:4;stroke-dasharray:none;stroke-opacity:1"
       d="m 113.7669,97.914019 c 0,0 1.71655,5.883591 2.77356,8.757401 1.28358,3.48983 2.58835,6.99475 4.32534,10.28251 0.61385,1.16189 2.12008,1.99669 2.14033,3.31061 0.0196,1.2702 -0.96443,2.48574 -1.96949,3.26268 -0.75609,0.58448 -1.79296,0.82911 -2.74852,0.81555 -2.47964,-0.0352 -4.63746,-1.83247 -7.06938,-2.31787 -2.8884,-0.57651 -8.8098,-0.68131 -8.8098,-0.68131"
       id="path942"
       sodipodi:nodetypes="caaaaaac" />
    <path
       style="fill:none;stroke:#000000;stroke-width:2.64583;stroke-linecap:butt;stroke-linejoin:miter;stroke-miterlimit:4;stroke-dasharray:none;stroke-opacity:1"
       d="m 79.051878,95.216119 c 0,0 4.843506,0.508961 7.275199,0.557621 2.319354,0.04641 6.954825,-0.253834 6.954825,-0.253834"
       id="path943"
       sodipodi:nodetypes="cac" />
    <path
       style="fill:none;stroke:#000000;stroke-width:2.64583;stroke-linecap:butt;stroke-linejoin:miter;stroke-miterlimit:4;stroke-dasharray:none;stroke-opacity:1"
       d="m 128.42907,95.026321 c 0,0 5.61148,0.514731 8.42539,0.526007 2.13759,0.0086 6.40335,-0.348277 6.40335,-0.348277"
       id="path945"
       sodipodi:nodetypes="cac" />
  </g>
  <g
     inkscape:groupmode="layer"
     id="layer11"
     inkscape:label="Mouth"
     style="display:inline">
    <path
       style="fill:none;stroke:#000000;stroke-width:2.64583;stroke-linecap:butt;stroke-linejoin:miter;stroke-miterlimit:4;stroke-dasharray:none;stroke-opacity:1"
       d="m 93.382154,132.84273 c 0,0 12.546546,-1.19866 18.837536,-1.5357 3.5981,-0.19277 7.20864,-0.48028 10.8062,-0.27784 2.04653,0.11516 6.09071,0.8467 6.09071,0.8467 l 0.2396,4.25632 -4.63955,0.98897 -0.18859,3.29787"
       id="path947"
       sodipodi:nodetypes="caacccc" />
  </g>
  <g
     inkscape:groupmode="layer"
     id="layer9"
     inkscape:label="Left Leg"
     style="display:inline">
    <path
       style="fill:#222f37;fill-opacity:1;stroke:none;stroke-width:3.29617;stroke-linecap:butt;stroke-linejoin:miter;stroke-miterlimit:4;stroke-dasharray:none;stroke-opacity:1"
       d="m 117.85449,246.65785 -0.0933,10.30751 29.21872,-0.1682 0.68257,-20.84001"
       id="path2571"
       sodipodi:nodetypes="cccc" />
    <path
       id="path999-3"
       style="display:inline;fill:#1b272c;fill-opacity:1;stroke:none;stroke-width:0.264583px;stroke-linecap:butt;stroke-linejoin:miter;stroke-opacity:1"
       d="m 123.01988,244.80367 -5.08031,1.82366 -0.17828,10.33787 26.95546,-0.15503 c -4.08866,-0.7687 -11.57021,-2.44202 -15.22904,-4.95784 -2.13436,-1.46758 -4.46823,-4.27634 -6.46783,-7.04866 z" />
    <path
       style="display:inline;fill:#131313;fill-opacity:1;stroke:none;stroke-width:2.19745;stroke-linecap:butt;stroke-linejoin:miter;stroke-miterlimit:4;stroke-dasharray:none;stroke-opacity:1"
       d="m 117.76119,256.96536 c 0,0 -1.34967,2.66721 -0.96272,3.97417 0.20407,0.68928 1.5576,0.76291 1.56693,1.4817 0.009,0.6973 -1.2613,0.81498 -1.48228,1.47641 -0.38488,1.15202 0.51754,3.6069 0.51754,3.6069 h 44.41872 c 0,0 -1.25954,-3.90562 -2.755,-5.15401 -1.8097,-1.51072 -3.70612,-1.51667 -6.73229,-2.16615 -2.20894,-0.4741 -6.53196,-2.88756 -6.53196,-2.88756 z"
       id="path1070-9-3"
       sodipodi:nodetypes="caaaccascc" />
    <path
       style="display:inline;fill:#000000;fill-opacity:1;stroke:none;stroke-width:0.264583px;stroke-linecap:butt;stroke-linejoin:miter;stroke-opacity:1"
       d="m 117.47853,267.39504 42.78215,-0.76227 c 0,0 -22.70399,0.19901 -33.24386,-3.40584 -3.35517,-1.14754 -9.02997,-5.6237 -9.02997,-5.6237 z"
       id="path999-36-3"
       sodipodi:nodetypes="ccacc" />
    <path
       style="display:inline;fill:none;fill-opacity:1;stroke:#000000;stroke-width:2.19745;stroke-linecap:butt;stroke-linejoin:miter;stroke-miterlimit:4;stroke-dasharray:none;stroke-opacity:1"
       d="m 117.76119,256.96536 c 0,0 -1.34967,2.66721 -0.96272,3.97417 0.20407,0.68928 1.5576,0.76291 1.56693,1.4817 0.009,0.6973 -1.2613,0.81498 -1.48228,1.47641 -0.38488,1.15202 0.51754,3.6069 0.51754,3.6069 h 44.41872 c 0,0 -1.25954,-3.90562 -2.755,-5.15401 -1.8097,-1.51072 -3.70612,-1.51667 -6.73229,-2.16615 -2.20894,-0.4741 -6.53196,-2.88756 -6.53196,-2.88756 z"
       id="path904"
       sodipodi:nodetypes="caaaccascc" />
    <path
       style="fill:none;fill-opacity:1;stroke:#000000;stroke-width:3.29617;stroke-linecap:butt;stroke-linejoin:miter;stroke-miterlimit:4;stroke-dasharray:none;stroke-opacity:1"
       d="m 117.85449,246.65785 -0.0933,10.30751 29.21872,-0.1682 0.68257,-20.84001"
       id="path935"
       sodipodi:nodetypes="cccc" />
  </g>
  <g
     inkscape:groupmode="layer"
     id="layer8"
     inkscape:label="Pants"
     style="display:inline">
    <path
       style="fill:none;stroke:#000000;stroke-width:3.29617;stroke-linecap:butt;stroke-linejoin:miter;stroke-miterlimit:4;stroke-dasharray:none;stroke-opacity:1"
       d="m 127.48721,249.64367 -32.755511,0.70687"
       id="path2536"
       sodipodi:nodetypes="cc" />
    <path
       style="fill:#222f37;fill-opacity:1;stroke:none;stroke-width:0.330297;stroke-linecap:butt;stroke-linejoin:miter;stroke-miterlimit:4;stroke-dasharray:none;stroke-opacity:1"
       d="m 64.116817,247.08519 -0.870776,-15.97735 83.029499,-1.8011 -0.53721,19.17161 -19.30662,1.16532 -32.217328,0.70687 z"
       id="path2546"
       sodipodi:nodetypes="ccccccc" />
    <path
       style="display:inline;fill:#1b272c;fill-opacity:1;stroke:none;stroke-width:0.264583px;stroke-linecap:butt;stroke-linejoin:miter;stroke-opacity:1"
       d="m 64.116817,247.08519 30.614882,3.26535 32.755511,-0.70687 -0.23434,-1.51311 c 0,0 -23.76747,-2.97334 -35.017525,-6.82889 -9.812846,-3.363 -27.776798,-14.03085 -27.776798,-14.03085 z"
       id="path999-3-6"
       sodipodi:nodetypes="ccccacc" />
    <path
       style="fill:none;stroke:#000000;stroke-width:3.2676;stroke-linecap:butt;stroke-linejoin:miter;stroke-miterlimit:4;stroke-dasharray:none;stroke-opacity:1"
       d="m 94.731698,250.35054 32.755512,-0.70687"
       id="path2550" />
    <path
       style="fill:none;fill-opacity:1;stroke:#000000;stroke-width:3.29644;stroke-linecap:butt;stroke-linejoin:miter;stroke-miterlimit:4;stroke-dasharray:none;stroke-opacity:1"
       d="m 147.75011,237.06532 -0.0876,-7.75858 -84.416479,1.8011 0.624748,10.90652"
       id="path2528"
       sodipodi:nodetypes="cccc" />
    <rect
       style="fill:#000000;fill-opacity:1;stroke:none;stroke-width:1.11667;stroke-miterlimit:4;stroke-dasharray:none;stroke-opacity:1"
       id="rect2526"
       width="87.733192"
       height="6.4225893"
       x="61.527611"
       y="224.92017"
       ry="1.695559"
       rx="1.6408213" />
  </g>
  <g
     inkscape:groupmode="layer"
     id="layer10"
     inkscape:label="Right Leg"
     style="display:inline">
    <path
       style="fill:#131313;fill-opacity:1;stroke:none;stroke-width:2.19745;stroke-linecap:butt;stroke-linejoin:miter;stroke-miterlimit:4;stroke-dasharray:none;stroke-opacity:1"
       d="m 63.473673,256.89304 c 0,0 -1.349667,2.66721 -0.962719,3.97417 0.204071,0.68928 1.557597,0.76291 1.566933,1.4817 0.009,0.69731 -1.2613,0.81498 -1.48228,1.47642 -0.384881,1.15201 0.517535,3.60689 0.517535,3.60689 h 44.418728 c 0,0 -1.25955,-3.90562 -2.755,-5.154 -1.80971,-1.51073 -3.70613,-1.51667 -6.732299,-2.16616 -2.20894,-0.47409 -6.531958,-2.88756 -6.531958,-2.88756 z"
       id="path1070-9"
       sodipodi:nodetypes="caaaccascc" />
    <path
       style="display:inline;fill:#000000;fill-opacity:1;stroke:none;stroke-width:0.264583px;stroke-linecap:butt;stroke-linejoin:miter;stroke-opacity:1"
       d="m 63.113142,267.43222 44.302948,-0.93907 c 0,0 -23.478647,0.165 -34.538153,-3.20739 -3.482466,-1.06192 -9.588636,-5.23022 -9.588636,-5.23022 z"
       id="path999-36"
       sodipodi:nodetypes="ccacc" />
    <path
       style="fill:#1b272c;fill-opacity:1;stroke:none;stroke-width:3.29617;stroke-linecap:butt;stroke-linejoin:miter;stroke-miterlimit:4;stroke-dasharray:none;stroke-opacity:1"
       d="m 63.815402,237.07867 0.222706,20.31403 29.218725,-0.1682 0.246652,-12.74927"
       id="path2571-1"
       sodipodi:nodetypes="cccc" />
    <path
       style="fill:none;fill-opacity:1;stroke:#000000;stroke-width:2.19745;stroke-linecap:butt;stroke-linejoin:miter;stroke-miterlimit:4;stroke-dasharray:none;stroke-opacity:1"
       d="m 63.473673,256.89304 c 0,0 -1.349667,2.66721 -0.962719,3.97417 0.204071,0.68928 1.557597,0.76291 1.566933,1.4817 0.009,0.69731 -1.2613,0.81498 -1.48228,1.47642 -0.384881,1.15201 0.517535,3.60689 0.517535,3.60689 h 44.418728 c 0,0 -1.25955,-3.90562 -2.755,-5.154 -1.80971,-1.51073 -3.70613,-1.51667 -6.732299,-2.16616 -2.20894,-0.47409 -6.531958,-2.88756 -6.531958,-2.88756 z"
       id="path902"
       sodipodi:nodetypes="caaaccascc" />
    <path
       style="display:inline;fill:#151e23;fill-opacity:1;stroke:none;stroke-width:0.264583px;stroke-linecap:butt;stroke-linejoin:miter;stroke-opacity:1"
       d="m 63.473673,256.89304 29.78316,0.33146 c 0,0 -12.876365,-1.88285 -18.056461,-5.44468 -5.107208,-3.51171 -11.38497,-14.70115 -11.38497,-14.70115 z"
       id="path999"
       sodipodi:nodetypes="ccacc" />
    <path
       style="fill:none;fill-opacity:1;stroke:#000000;stroke-width:3.29617;stroke-linecap:butt;stroke-linejoin:miter;stroke-miterlimit:4;stroke-dasharray:none;stroke-opacity:1"
       d="m 63.815402,237.07867 0.222706,20.31403 29.218725,-0.1682 0.246652,-12.74927"
       id="path946"
       sodipodi:nodetypes="cccc" />
  </g>
  <g
     inkscape:groupmode="layer"
     id="layer7"
     inkscape:label="Clothes"
     style="display:inline">
    <path
       style="display:inline;fill:#eafbff;fill-opacity:1;stroke:none;stroke-width:2.64583;stroke-linecap:butt;stroke-linejoin:miter;stroke-miterlimit:4;stroke-dasharray:none;stroke-opacity:1"
       d="m 92.431437,159.0966 23.386093,49.71261 17.92196,-49.71261 -17.63543,5.21168 z"
       id="path1065"
       sodipodi:nodetypes="ccccc" />
    <path
       id="path917"
       style="opacity:0.998;fill:#0d0f0c;fill-opacity:1;stroke:#000000;stroke-width:5;stroke-linecap:butt;stroke-linejoin:miter;stroke-miterlimit:4;stroke-dasharray:none;stroke-opacity:1"
       d="m 438.81836,621.00781 -30.17969,28.98242 8.08594,15.33594 11.81055,7.63281 c 0,0 -1.71092,4.82888 -1.91993,8.19141 -0.22261,3.5828 3.17774,9.44141 3.17774,9.44141 l -12.38281,8.24414 4.1289,98.05468 15.12305,21.82813 15.12305,-21.82813 4.13086,-98.05468 -12.38477,-8.24414 c 0,0 3.4023,-5.85861 3.17969,-9.44141 -0.20901,-3.36253 -1.92188,-8.19141 -1.92188,-8.19141 L 460.91211,665.32617 469,649.99023 Z"
       transform="scale(0.26458334)"
       sodipodi:nodetypes="ccccscccccccscccc" />
    <path
       id="path993"
       style="display:inline;fill:#1b272c;fill-opacity:1;stroke:none;stroke-width:9.99999;stroke-linecap:butt;stroke-linejoin:miter;stroke-miterlimit:4;stroke-dasharray:none;stroke-opacity:1"
       d="m 231.61034,576.33266 -1.80134,105.2457 22.23726,92.22422 -27.76274,151.61336 177.73699,-26.14193 V 781.43227 L 432.41846,737.60374 379.08732,610.7513 Z"
       transform="scale(0.26458334)"
       sodipodi:nodetypes="ccccccccc" />
    <path
       id="path1063"
       style="display:inline;fill:#222f37;fill-opacity:1;stroke:none;stroke-width:9.99999;stroke-linecap:butt;stroke-linejoin:miter;stroke-miterlimit:4;stroke-dasharray:none;stroke-opacity:1"
       d="m 559.45798,576.33266 -47.9859,24.97731 -109.45157,154.12229 v 143.84175 l 172.10048,22.63872 -31.45232,-153.71047 c 0,0 15.6845,-57.23392 18.54766,-86.6239 3.40204,-34.92147 -1.75835,-105.2457 -1.75835,-105.2457 z"
       transform="scale(0.26458334)"
       sodipodi:nodetypes="ccccccac" />
    <path
       style="fill:#eafbff;fill-opacity:1;stroke:#000000;stroke-width:1.32292;stroke-linecap:butt;stroke-linejoin:miter;stroke-miterlimit:4;stroke-dasharray:none;stroke-opacity:1"
       d="m 116.10406,164.30828 5.03543,12.98655 8.72002,-7.88707 3.87998,-10.31116 z"
       id="path913"
       sodipodi:nodetypes="ccccc" />
    <path
       id="path1154"
       style="fill:#151e23;fill-opacity:1;stroke:none;stroke-width:0.264583px;stroke-linecap:butt;stroke-linejoin:miter;stroke-opacity:1"
       d="m 80.852659,157.8359 31.967251,31.9824 -3.21455,5.84395 -14.534032,-11.36622 9.921252,-4.92964 -14.171642,0.32279 -12.762936,-19.94847"
       sodipodi:nodetypes="ccccccc" />
    <path
       style="fill:#eafbff;fill-opacity:1;stroke:#000000;stroke-width:1.32292;stroke-linecap:butt;stroke-linejoin:miter;stroke-miterlimit:4;stroke-dasharray:none;stroke-opacity:1"
       d="m 116.10406,164.30828 -5.84569,12.7841 -12.498932,-7.52739 -5.328001,-10.46839 z"
       id="path911"
       sodipodi:nodetypes="cc" />
    <path
       id="path1005"
       style="fill:#222f37;fill-opacity:1;stroke:none;stroke-width:0.264583px;stroke-linecap:butt;stroke-linejoin:miter;stroke-opacity:1"
       d="m 100.30019,161.59462 15.14264,25.22606 -3.21455,5.84395 -14.534036,-11.36622 9.921256,-4.92964 -14.171646,0.32279 -12.762936,-19.94847"
       sodipodi:nodetypes="ccccccc" />
    <path
       style="display:inline;fill:none;stroke:#000000;stroke-width:2.64583;stroke-linecap:round;stroke-linejoin:miter;stroke-miterlimit:4;stroke-dasharray:none;stroke-opacity:1"
       d="m 80.680918,156.74309 12.762936,19.94847 14.171646,-0.32279 -9.921256,4.92964 14.534036,11.36622 3.21455,-5.84395 -15.14264,-25.22606 z"
       id="path1067"
       sodipodi:nodetypes="cccccccc" />
    <path
       style="display:inline;fill:#151e23;fill-opacity:1;stroke:none;stroke-width:0.264583px;stroke-linecap:butt;stroke-linejoin:miter;stroke-opacity:1"
       d="m 59.341682,245.37881 47.026248,-7.44589 c 0,0 -20.165995,-12.08102 -27.262372,-21.12611 -9.411151,-11.99551 -18.6079,-41.78403 -18.6079,-41.78403 0,0 0.04609,3.55721 0.305975,5.3115 1.226102,8.27644 5.883608,24.40099 5.883608,24.40099 z"
       id="path995"
       sodipodi:nodetypes="ccacacc" />
    <path
       style="display:inline;fill:none;fill-opacity:1;stroke:#000000;stroke-width:2.64583;stroke-linecap:butt;stroke-linejoin:round;stroke-miterlimit:4;stroke-dasharray:none;stroke-opacity:1"
       d="m 78.367385,154.41087 -18.203407,-3.17011 -0.818576,8.48479 c 0,0 1.273321,-0.77032 1.203692,0.48282 -0.220433,7.02615 -0.459971,13.20432 0.254542,20.12591 0.916374,8.31643 5.883607,24.40099 5.883607,24.40099 l -7.345559,40.64354 47.026246,-7.44589 45.53492,5.98983 -8.32176,-40.66923 c 0,0 4.14985,-15.14314 4.9074,-22.91924 0.90012,-9.23964 -0.46523,-27.84626 -0.46523,-27.84626 l -14.30741,6.34363 -17.61179,5.47663 -15.80387,-2.71366 -18.426976,-4.63073 z"
       id="path991"
       sodipodi:nodetypes="ccccccccccacccccc" />
    <circle
       style="display:inline;fill:#eaf5ff;fill-opacity:1;stroke:none;stroke-width:2.67906;stroke-miterlimit:4;stroke-dasharray:none;stroke-opacity:1"
       id="ellipse909"
       cx="111.01701"
       cy="206.59035"
       r="1.984375" />
    <path
       style="fill:#28353e;fill-opacity:1;stroke:#000000;stroke-width:1.32292;stroke-linecap:butt;stroke-linejoin:miter;stroke-miterlimit:4;stroke-dasharray:none;stroke-opacity:1"
       d="m 74.343249,221.04698 h 17.664832 l -0.12625,7.05135 c 0,0 -5.043191,3.88112 -8.020316,3.93296 -3.349184,0.0583 -9.171204,-4.10767 -9.171204,-4.10767 z"
       id="path906"
       sodipodi:nodetypes="cccacc" />
    <path
       style="fill:#2e3f47;fill-opacity:1;stroke:#000000;stroke-width:1.32292;stroke-linecap:butt;stroke-linejoin:miter;stroke-miterlimit:4;stroke-dasharray:none;stroke-opacity:1"
       d="m 132.80635,221.04698 h 11.06384 l 1.4971,7.05135 c 0,0 -2.2693,3.65622 -4.15656,3.93296 -3.01173,0.44163 -8.1558,-4.10767 -8.1558,-4.10767 z"
       id="path908"
       sodipodi:nodetypes="cccacc" />
    <path
       style="fill:none;stroke:#000000;stroke-width:2.64583;stroke-linecap:round;stroke-linejoin:miter;stroke-miterlimit:4;stroke-dasharray:none;stroke-opacity:1"
       d="m 106.36793,199.87479 v 38.05813"
       id="path1064"
       sodipodi:nodetypes="cc" />
    <path
       id="path1009"
       style="fill:#27363f;fill-opacity:1;stroke:none;stroke-width:0.264583px;stroke-linecap:butt;stroke-linejoin:miter;stroke-opacity:1"
       d="m 147.05176,152.88545 -13.31227,6.21115 -27.37156,40.77819 26.35173,-18.40954 -7.06583,-5.43103 12.31892,-0.35782 z"
       sodipodi:nodetypes="ccccccc" />
    <path
       style="display:inline;fill:none;stroke:#000000;stroke-width:2.64583;stroke-linecap:butt;stroke-linejoin:miter;stroke-miterlimit:4;stroke-dasharray:none;stroke-opacity:1"
       d="m 106.36793,199.87479 26.35173,-18.40954 -7.06583,-5.43103 12.31892,-0.35782 9.07901,-22.79095 -13.31227,6.21115 z"
       id="path1069"
       sodipodi:nodetypes="ccccccc" />
    <circle
       style="display:inline;fill:#eaf5ff;fill-opacity:1;stroke:none;stroke-width:2.67906;stroke-miterlimit:4;stroke-dasharray:none;stroke-opacity:1"
       id="ellipse1066"
       cx="111.01701"
       cy="220.08391"
       r="1.984375" />
    <circle
       style="display:inline;fill:#eaf5ff;fill-opacity:1;stroke:none;stroke-width:2.67907;stroke-miterlimit:4;stroke-dasharray:none;stroke-opacity:1"
       id="ellipse1068"
       cx="124.77532"
       cy="220.08391"
       r="1.984375" />
    <circle
       style="display:inline;fill:#eaf5ff;fill-opacity:1;stroke:none;stroke-width:2.67906;stroke-miterlimit:4;stroke-dasharray:none;stroke-opacity:1"
       id="ellipse1070"
       cx="124.77532"
       cy="206.59035"
       r="1.984375" />
    <circle
       style="display:inline;fill:#eaf5ff;fill-opacity:1;stroke:none;stroke-width:2.67906;stroke-miterlimit:4;stroke-dasharray:none;stroke-opacity:1"
       id="ellipse1072"
       cx="124.77532"
       cy="193.09677"
       r="1.984375" />
    <path
       style="fill:#aed0d9;fill-opacity:1;stroke:none;stroke-width:0.264583px;stroke-linecap:butt;stroke-linejoin:miter;stroke-opacity:1"
       d="m 88.641267,164.16984 6.36994,9.74226 h 5.245833 l -5.995237,-9.74226 z"
       id="path1074"
       sodipodi:nodetypes="ccccc" />
    <path
       style="fill:#aed0d9;fill-opacity:1;stroke:none;stroke-width:0.264583px;stroke-linecap:butt;stroke-linejoin:miter;stroke-opacity:1"
       d="m 140.47398,163.59651 -3.94438,9.74226 -5.24587,0.0442 4.62801,-9.74226 z"
       id="path1076"
       sodipodi:nodetypes="ccccc" />
    <path
       style="fill:#151e23;fill-opacity:1;stroke:none;stroke-width:0.260959px;stroke-linecap:butt;stroke-linejoin:miter;stroke-opacity:1"
       d="m 61.280238,152.48802 -1.268158,7.09656 16.838265,3.62409 c 0,0 4.026019,-1.43025 4.049061,-3.25048 0.01779,-1.40559 -3.061931,-2.60204 -3.061931,-2.60204 z"
       id="path1086"
       sodipodi:nodetypes="cccacc" />
    <g
       id="g1084"
       transform="rotate(10.359843,100.07306,157.96923)"
       style="stroke:none">
      <path
         style="fill:#5fbfb1;fill-opacity:1;stroke:none;stroke-width:0.250662px;stroke-linecap:butt;stroke-linejoin:miter;stroke-opacity:1"
         d="m 60.926964,159.55348 v 5.48925 h 16.831631 c 0,0 3.723082,-2.02209 3.443738,-3.67828 -0.215707,-1.2789 -3.443738,-1.81097 -3.443738,-1.81097 z"
         id="path1078"
         sodipodi:nodetypes="cccacc" />
      <ellipse
         style="fill:#f6fbf9;fill-opacity:1;stroke:none;stroke-width:1.56459;stroke-linecap:round;stroke-miterlimit:4;stroke-dasharray:none;stroke-opacity:1"
         id="path1080"
         cx="77.095482"
         cy="161.74278"
         rx="2.3464537"
         ry="1.5335836" />
    </g>
  </g>
  <g
     inkscape:groupmode="layer"
     id="layer2"
     inkscape:label="Right Hand"
     style="display:inline">
    <path
       style="fill:#b400b4;fill-opacity:1;stroke:#000000;stroke-width:2.64583;stroke-linecap:butt;stroke-linejoin:miter;stroke-miterlimit:4;stroke-dasharray:none;stroke-opacity:1"
       d="m 76.201369,216.62498 c 0,0 1.127848,3.96189 1.417526,5.9947 0.256154,1.79755 0.712689,3.67738 0.277134,5.44009 -0.373819,1.51285 -1.207968,2.99968 -2.385085,4.02089 -1.106858,0.96025 -2.600976,1.5463 -4.059577,1.68666 -1.77658,0.17097 -3.676324,-0.22352 -5.245599,-1.07372 -1.181533,-0.64012 -2.444628,-1.58081 -2.834273,-2.86686 -0.470211,-1.552 0.78124,-3.16093 0.925065,-4.7762 0.236343,-2.65433 -0.109532,-7.99376 -0.109532,-7.99376 z"
       id="path956"
       sodipodi:nodetypes="caaaaaaacc" />
    <path
       style="fill:#1b272c;fill-opacity:1;stroke:none;stroke-width:2.91042;stroke-linecap:butt;stroke-linejoin:miter;stroke-miterlimit:4;stroke-dasharray:none;stroke-opacity:1"
       d="m 62.220447,183.02122 0.754809,35.49568 c 0,0 5.567093,-0.72539 8.365833,-0.71443 2.780452,0.0109 8.305352,0.77486 8.305352,0.77486 l -0.513093,-34.83204"
       id="path954"
       sodipodi:nodetypes="ccacc" />
    <path
       style="display:inline;fill:#151e23;fill-opacity:1;stroke:none;stroke-width:0.264583px;stroke-linecap:butt;stroke-linejoin:miter;stroke-opacity:1"
       d="m 62.975256,218.5169 -0.754809,-35.49568 c 0,0 1.329349,17.37187 5.552904,24.6643 2.691697,4.64752 11.87309,10.89181 11.87309,10.89181 l -8.438988,-0.81281 z"
       id="path1048"
       sodipodi:nodetypes="ccaccc" />
    <path
       style="fill:none;fill-opacity:1;stroke:#000000;stroke-width:2.74681;stroke-linecap:butt;stroke-linejoin:miter;stroke-miterlimit:4;stroke-dasharray:none;stroke-opacity:1"
       d="m 62.220447,183.02122 0.754809,35.49568 c 0,0 5.623038,-0.83263 8.454264,-0.81841 2.75456,0.0138 8.216921,0.87884 8.216921,0.87884 l -0.513093,-34.83204"
       id="path967"
       sodipodi:nodetypes="ccacc" />
  </g>
  <g
     inkscape:groupmode="layer"
     id="layer5"
     inkscape:label="Facial Hair"
     style="display:inline">
    <path
       style="display:inline;fill:#00b400;fill-opacity:1;stroke:none;stroke-width:0.270602px;stroke-linecap:butt;stroke-linejoin:miter;stroke-opacity:1"
       d="m 73.270845,86.315314 c 0,0 7.370603,-2.688534 11.26772,-3.358338 3.435666,-0.590494 7.001955,-0.828454 10.49018,-0.549576 2.852803,0.228077 7.535265,-0.571174 8.337495,1.801933 0.38692,1.14457 -1.55895,2.171181 -2.84916,2.598113 -3.082115,1.019891 -5.557308,-0.726489 -9.870881,-0.688013 -4.369961,0.03898 -7.965722,1.109934 -13.063911,1.271399 -1.132265,0.03586 -4.311443,-1.075518 -4.311443,-1.075518 z"
       id="path897"
       sodipodi:nodetypes="caaaassc" />
    <path
       id="path899"
       style="display:inline;fill:#00b400;fill-opacity:1;stroke:none;stroke-width:0.290703px;stroke-linecap:butt;stroke-linejoin:miter;stroke-opacity:1"
       d="m 138.25514,82.861752 c -2.43781,0.128427 -4.95654,0.275529 -7.23059,1.163271 -1.95036,0.76138 -4.95629,1.392887 -5.23715,3.467671 -0.0815,0.60192 0.6736,1.508942 1.19722,1.373749 3.71327,-0.95873 5.94104,-1.732946 9.0039,-1.998243 3.34182,-0.289461 5.46604,0.124626 10.05255,0.458585 l -0.0304,-3.194904 c -1.95769,-0.508095 -3.12962,-0.876889 -4.73375,-1.10604 -0.99859,-0.14265 -2.01441,-0.217157 -3.02174,-0.164089 z"
       sodipodi:nodetypes="aaasaccaa" />
    <path
       id="path1301"
       style="display:inline;fill:#00a000;fill-opacity:1;stroke:none;stroke-width:0.290703px;stroke-linecap:butt;stroke-linejoin:miter;stroke-opacity:1"
       d="m 92.40108,82.292652 c -2.63566,-0.02305 -5.285819,0.22169 -7.86257,0.66456 -1.834555,0.315309 -4.427096,1.076793 -6.669876,1.795756 0.239043,-0.04442 6.876153,-1.274273 8.961726,-1.233517 3.865232,0.199959 7.60839,0.131064 11.303188,1.283642 1.096889,0.342173 2.488912,0.725377 3.853512,1.350823 0.89696,-0.511755 1.63032,-1.201852 1.37924,-1.944585 -0.80223,-2.373106 -5.48467,-1.573879 -8.337473,-1.801955 -0.872057,-0.06972 -1.749193,-0.10704 -2.627747,-0.114724 z" />
    <path
       id="path1330"
       style="display:inline;fill:#00a000;fill-opacity:1;stroke:none;stroke-width:0.290703px;stroke-linecap:butt;stroke-linejoin:miter;stroke-opacity:1"
       d="m 139.01167,82.845073 c -0.25249,-0.0019 -0.50471,0.0033 -0.75654,0.01654 -2.43781,0.128429 -4.95652,0.275495 -7.23057,1.163238 -0.61525,0.240181 -1.33404,0.471638 -2.0407,0.735356 -0.27319,0.113811 -0.5426,0.221001 -0.80873,0.321427 -8e-4,2.64e-4 -0.001,7.93e-4 -0.002,0.0011 -0.0335,0.01482 -0.0655,0.0309 -0.0987,0.04599 3.27356,0.07682 9.73588,-1.127567 12.82867,-0.16278 1.45338,0.453377 3.26838,1.357413 5.03742,2.353345 1.8e-4,1.3e-5 2.7e-4,-1.3e-5 5.3e-4,0 0.0354,0.0026 0.0646,0.0052 0.10026,0.0078 l -0.0305,-3.195153 c -1.22377,-0.317619 -2.14022,-0.580483 -3.04736,-0.789102 -0.1814,-0.04173 -0.36216,-0.08149 -0.54518,-0.118853 -0.36602,-0.07472 -0.73998,-0.140634 -1.14102,-0.197922 -0.22289,-0.03184 -0.44695,-0.05933 -0.67127,-0.08372 -0.0688,-0.0075 -0.13782,-0.01347 -0.20671,-0.02016 -0.16339,-0.01588 -0.32714,-0.02918 -0.49092,-0.04031 -0.072,-0.0049 -0.14393,-0.01005 -0.21601,-0.01394 -0.22675,-0.01228 -0.45375,-0.02117 -0.68058,-0.02273 z" />
    <path
       id="rect891"
       style="display:inline;fill:#00b400;fill-opacity:1;stroke:none;stroke-width:0.264134;stroke-miterlimit:4;stroke-dasharray:none;stroke-opacity:1"
       d="m 58.556234,61.829506 c 0,0 2.781451,-1.304919 4.635581,-1.332568 4.129475,-0.06158 12.439413,3.072567 12.439413,3.072567 0,0 1.931735,5.503449 -3.375316,11.832607 -11.401484,7.98718 -9.021231,15.710864 -8.904369,15.700744 l -5.621918,-4.679629 z"
       sodipodi:nodetypes="csccccc" />
    <path
       id="rect891-6"
       style="display:inline;fill:none;fill-opacity:1;stroke:#000000;stroke-width:2.64583;stroke-miterlimit:4;stroke-dasharray:none;stroke-opacity:1"
       d="m 57.428993,87.258183 -0.144,-25.276573"
       sodipodi:nodetypes="cc" />
    <path
       style="display:inline;fill:#00b400;fill-opacity:1;stroke:none;stroke-width:0.264583px;stroke-linecap:butt;stroke-linejoin:miter;stroke-opacity:1"
       d="m 111.16674,124.25742 0.0732,4.54264 -27.757018,2.59522 c 0,0 7.237881,-4.26196 11.250394,-5.98529 4.012513,-1.72333 16.433464,-1.15257 16.433464,-1.15257 z"
       id="path1028"
       sodipodi:nodetypes="ccczcc" />
    <path
       style="display:inline;fill:#00b400;fill-opacity:1;stroke:none;stroke-width:0.237053px;stroke-linecap:butt;stroke-linejoin:miter;stroke-opacity:1"
       d="m 122.26789,124.61329 -0.0588,4.54264 19.63546,2.06605 c 0,0 -3.16421,-3.73279 -6.38516,-5.45612 -3.22095,-1.72333 -13.19157,-1.15257 -13.19157,-1.15257 z"
       id="path1030"
       sodipodi:nodetypes="ccczcc" />
  </g>
  <g
     inkscape:groupmode="layer"
     id="layer6"
     inkscape:label="Facewear"
     style="display:inline" />
  <g
     inkscape:groupmode="layer"
     id="layer4"
     inkscape:label="Hat Hair"
     style="display:inline">
    <path
       style="fill:#303632;fill-opacity:1;stroke:none;stroke-width:2.64583;stroke-linecap:butt;stroke-linejoin:miter;stroke-miterlimit:4;stroke-dasharray:none;stroke-opacity:1"
       d="M 49.104914,55.654563 C 43.248086,51.340113 44.680581,45.554166 45.893597,40.55263 47.563791,33.666045 53.875076,28.593846 59.349824,24.094766 65.852297,18.751114 73.675642,14.971838 81.623828,12.203605 91.002982,8.9369881 101.03383,7.610368 110.93804,6.8715503 c 7.04927,-0.5258491 14.2089,-0.4120876 21.19636,0.657495 5.86527,0.8978066 12.1181,1.6394093 17.14261,4.7956287 4.09609,2.573019 8.14104,6.276859 9.58865,10.892358 1.3976,4.456053 -0.0625,9.507313 -1.59344,13.91935 -1.40783,4.057354 -6.77802,10.956978 -6.77802,10.956978 0,0 -11.73754,-5.053345 -18.01691,-6.24621 -7.50756,-1.426179 -15.30487,-1.231323 -22.96273,-0.986242 -9.24057,0.295733 -18.516317,1.147966 -27.555277,2.958731 -8.701298,1.743122 -17.351785,4.095175 -25.43564,7.561201 -2.641505,1.132568 -7.418729,4.273723 -7.418729,4.273723 z"
       id="path950"
       sodipodi:nodetypes="caaaaaaaacaaaac" />
    <path
       style="fill:#798f9c;fill-opacity:1;stroke:none;stroke-width:2.64583;stroke-linecap:butt;stroke-linejoin:miter;stroke-miterlimit:4;stroke-dasharray:none;stroke-opacity:1"
       d="m 70.831191,70.138747 c 0,0 7.312461,6.190989 11.485076,8.478547 4.316073,2.366207 9.03127,4.014539 13.782833,5.299091 4.60739,1.245575 9.37582,1.911604 14.13314,2.29553 6.27888,0.506718 12.60532,0.292087 18.89787,7.44e-4 2.86582,-0.132687 5.77294,-0.156867 8.56982,-0.795606 2.63383,-0.601502 5.26631,-1.459362 7.59537,-2.828412 2.26662,-1.332344 4.84834,-2.756145 6.00044,-5.119484 0.59395,-1.218387 0.36951,-2.721411 0.17367,-4.062638 -0.26102,-1.787597 -1.16277,-3.42104 -1.77008,-5.122455 -0.20039,-0.561409 -0.61822,-1.678044 -0.61822,-1.678044 L 77.720009,66.429381 Z"
       id="path922"
       sodipodi:nodetypes="caaaaaaaaaccc" />
    <path
       id="path924"
       style="fill:#96a9b0;fill-opacity:1;stroke:none;stroke-width:9.99999;stroke-linecap:butt;stroke-linejoin:miter;stroke-miterlimit:4;stroke-dasharray:none;stroke-opacity:1"
       d="m 472.74219,251.51562 c 32.54359,15.03585 56.06187,38.5357 66.04687,65.69922 3.57425,-1.45069 7.0488,-3.12236 10.35938,-5.06836 8.56675,-5.03563 18.32334,-10.4173 22.67773,-19.3496 2.24485,-4.60493 1.39643,-10.28627 0.65625,-15.35547 -0.98653,-6.75628 -4.39411,-12.92883 -6.68945,-19.35938 -1.14327,-1.94135 -2.33594,-6.3418 -2.33594,-6.3418 z"
       transform="scale(0.26458334)" />
    <path
       style="fill:none;fill-opacity:1;stroke:#000000;stroke-width:2.64583;stroke-linecap:butt;stroke-linejoin:miter;stroke-miterlimit:4;stroke-dasharray:none;stroke-opacity:1"
       d="m 70.831191,70.138747 c 0,0 7.312461,6.190989 11.485076,8.478547 4.316073,2.366207 9.03127,4.014539 13.782833,5.299091 4.60739,1.245575 9.37582,1.911604 14.13314,2.29553 6.27888,0.506718 12.60532,0.292087 18.89787,7.44e-4 2.86582,-0.132687 5.77294,-0.156867 8.56982,-0.795606 2.63383,-0.601502 5.26631,-1.459362 7.59537,-2.828412 2.26662,-1.332344 4.84834,-2.756145 6.00044,-5.119484 0.59395,-1.218387 0.36951,-2.721411 0.17367,-4.062638 -0.26102,-1.787597 -1.16277,-3.42104 -1.77008,-5.122455 -0.20039,-0.561409 -0.61822,-1.678044 -0.61822,-1.678044 L 77.720009,66.429381 Z"
       id="path973"
       sodipodi:nodetypes="caaaaaaaaaccc" />
    <path
       style="fill:#1e1c1f;fill-opacity:1;stroke:#000000;stroke-width:2.64583;stroke-linecap:butt;stroke-linejoin:miter;stroke-miterlimit:4;stroke-dasharray:none;stroke-opacity:1"
       d="m 48.751642,54.948017 8.125275,4.239274 v 3.886001 l 62.882553,2.472907 30.02818,0.353275 -0.35327,-22.962731 -31.79455,-10.951456 -60.762913,7.772001 z"
       id="path951" />
    <path
       id="path940"
       style="fill:#3b453d;fill-opacity:1;stroke:none;stroke-width:9.99999;stroke-linecap:butt;stroke-linejoin:miter;stroke-miterlimit:4;stroke-dasharray:none;stroke-opacity:1"
       d="m 404.40234,52.501953 c -8.02594,0.193285 -16.03789,0.697379 -23.99414,1.46875 -29.91913,2.900723 -59.82816,9.394289 -88.01172,20.152344 -28.80873,11.341719 -57.78048,24.746876 -81.60351,44.943363 -13.4069,11.36598 -28.17593,23.70365 -38.32813,38.40625 -4.22306,17.88473 -7.39434,37.75647 13.12891,52.875 0,0 18.05542,-11.87178 28.03906,-16.15235 30.55315,-13.09994 63.24797,-21.98994 96.13477,-28.57812 34.163,-6.84384 69.22149,-10.06391 104.14648,-11.18164 28.9431,-0.92629 58.41208,-1.66372 86.78711,3.72656 20.57813,3.90914 58.86494,19.72148 68.09579,23.60806 2.14708,-4.15223 6.73247,-8.34956 7.42789,-13.41275 C 578.67711,150.50325 573.33412,131.01449 563.75391,115.75 552.18976,97.324437 532.39288,84.661861 513.11523,74.582031 493.80622,64.485806 471.79905,59.850318 450.31055,56.457031 435.16719,54.065717 419.77826,52.674179 404.40234,52.501953 Z"
       transform="scale(0.26458334)"
       sodipodi:nodetypes="cscsccsssscaaasc" />
    <path
       style="fill:#4c6256;fill-opacity:1;stroke:#000000;stroke-width:2.64583;stroke-linecap:butt;stroke-linejoin:miter;stroke-miterlimit:4;stroke-dasharray:none;stroke-opacity:1"
       d="m 56.170371,61.306926 3.709363,3.179456 -3.356091,4.415909 9.008457,-1.589728 0.706543,3.00282 8.301911,-0.706546 0.176636,-1.236454 c 0,0 29.31585,-1.230303 43.98246,-1.236456 12.95815,-0.0054 38.86,1.059821 38.86,1.059821 l -1.23645,-4.415912 1.58973,-3.179453 c 0,0 -17.54274,-0.691282 -26.31883,-0.706548 -12.60348,-0.02192 -25.21295,0.243004 -37.800179,0.883184 -6.016305,0.305986 -18.016913,1.413089 -18.016913,1.413089 l 0.529911,-2.296273 -9.185092,0.176638 v 1.766363 l -6.005639,-1.236453 z"
       id="path959"
       sodipodi:nodetypes="cccccccscccaacccccc" />
    <path
       id="path961"
       style="fill:#f9ffff;fill-opacity:1;stroke:#000000;stroke-width:2.64583;stroke-miterlimit:4;stroke-dasharray:none;stroke-opacity:1"
       d="m 52.42109,57.95098 a 4.062637,6.712183 0 0 0 -4.022492,6.712252 4.062637,6.712183 0 0 0 4.062283,6.711736 4.062637,6.712183 0 0 0 3.460255,-3.193603 2.3845911,3.7976824 0 0 0 1.397331,0.720887 2.3845911,3.7976824 0 0 0 2.384867,-3.797703 2.3845911,3.7976824 0 0 0 -2.384867,-3.797699 2.3845911,3.7976824 0 0 0 -1.181322,0.499194 4.062637,6.712183 0 0 0 -3.676264,-3.855064 4.062637,6.712183 0 0 0 -0.03979,0 z" />
    <path
       style="fill:none;fill-opacity:1;stroke:#000000;stroke-width:2.64583;stroke-linecap:butt;stroke-linejoin:miter;stroke-miterlimit:4;stroke-dasharray:none;stroke-opacity:1"
       d="M 49.104914,55.654563 C 43.248086,51.340113 44.680581,45.554166 45.893597,40.55263 47.563791,33.666045 53.875076,28.593846 59.349824,24.094766 65.852297,18.751114 73.675642,14.971838 81.623828,12.203605 91.002982,8.9369881 101.03383,7.610368 110.93804,6.8715503 c 7.04927,-0.5258491 14.2089,-0.4120876 21.19636,0.657495 5.86527,0.8978066 12.1181,1.6394093 17.14261,4.7956287 4.09609,2.573019 8.14104,6.276859 9.58865,10.892358 1.3976,4.456053 -0.0625,9.507313 -1.59344,13.91935 -1.40783,4.057354 -6.77802,10.956978 -6.77802,10.956978 0,0 -11.73754,-5.053345 -18.01691,-6.24621 -7.50756,-1.426179 -15.30487,-1.231323 -22.96273,-0.986242 -9.24057,0.295733 -18.516317,1.147966 -27.555277,2.958731 -8.701298,1.743122 -17.351785,4.095175 -25.43564,7.561201 -2.641505,1.132568 -7.418729,4.273723 -7.418729,4.273723 z"
       id="path975"
       sodipodi:nodetypes="caaaaaaaacaaaac" />
    <path
       style="opacity:0.998;fill:#f0f0f0;fill-opacity:1;stroke:#000000;stroke-width:1.85208;stroke-linecap:butt;stroke-linejoin:miter;stroke-miterlimit:4;stroke-dasharray:none;stroke-opacity:1"
       d="m 100.69119,47.087699 c -0.983048,2.942609 -0.60826,6.50636 0.79487,9.27341 1.11347,2.195841 3.29877,3.893097 5.56404,4.8575 2.17523,0.926066 7.06546,0.618227 7.06546,0.618227 l 1.67804,-3.179454 1.89884,0.08832 1.89884,3.002818 c 0,0 4.66355,0.386743 6.71218,-0.52991 1.67256,-0.74838 3.02244,-2.231978 3.97433,-3.79768 1.03567,-1.703516 1.5283,-3.752678 1.67804,-5.740682 0.19858,-2.636347 0.28249,-5.582598 -1.0598,-7.86032 -0.80114,-1.359459 -2.42667,-2.044966 -3.79768,-2.826182 -1.52486,-0.868885 -3.11746,-1.802275 -4.8575,-2.03132 -1.08976,-0.143447 -3.26777,0.441592 -3.26777,0.441592 l -1.14814,3.532728 h -2.11964 l -1.14813,-3.97432 c 0,0 -2.98799,-0.2703 -4.41591,0.08832 -1.50682,0.378435 -2.92009,1.171654 -4.15096,2.119639 -2.09771,1.615608 -4.46015,3.405996 -5.29911,5.917314 z"
       id="path953"
       sodipodi:nodetypes="aaaccccaaaaaaccccaaa" />
    <ellipse
       style="opacity:0.998;fill:none;fill-opacity:1;stroke:#b9b3bd;stroke-width:1.85208;stroke-miterlimit:4;stroke-dasharray:none;stroke-opacity:1"
       id="path955"
       cx="116.10431"
       cy="50.399624"
       rx="6.7819362"
       ry="6.6936173" />
    <ellipse
       style="opacity:0.998;fill:#f91313;fill-opacity:1;stroke:none;stroke-width:1.85208;stroke-miterlimit:4;stroke-dasharray:none;stroke-opacity:1"
       id="path957"
       cx="116.10431"
       cy="50.664581"
       rx="2.782023"
       ry="2.6053867" />
  </g>
</svg>
