<?xml version="1.0" encoding="UTF-8" standalone="no"?>
<svg
   xmlns:dc="http://purl.org/dc/elements/1.1/"
   xmlns:cc="http://creativecommons.org/ns#"
   xmlns:rdf="http://www.w3.org/1999/02/22-rdf-syntax-ns#"
   xmlns:svg="http://www.w3.org/2000/svg"
   xmlns="http://www.w3.org/2000/svg"
   xmlns:sodipodi="http://sodipodi.sourceforge.net/DTD/sodipodi-0.dtd"
   xmlns:inkscape="http://www.inkscape.org/namespaces/inkscape"
   width="768"
   height="1024"
   viewBox="0 0 203.2 270.93334"
   version="1.1"
   id="svg8"
   inkscape:version="1.0.2 (e86c870879, 2021-01-15)"
   sodipodi:docname="character-tuxedo-guy.svg"
   inkscape:export-filename="tuxedo.png"
   inkscape:export-xdpi="96"
   inkscape:export-ydpi="96">
  <title
     id="title906">Tuxedo Guy</title>
  <defs
     id="defs2" />
  <sodipodi:namedview
     id="base"
     pagecolor="#ffffff"
     bordercolor="#666666"
     borderopacity="1.0"
     inkscape:pageopacity="0.0"
     inkscape:pageshadow="2"
     inkscape:zoom="1.1007613"
     inkscape:cx="239.82279"
     inkscape:cy="687.88693"
     inkscape:document-units="px"
     inkscape:current-layer="layer9"
     inkscape:document-rotation="0"
     showgrid="false"
     inkscape:window-width="1920"
     inkscape:window-height="1016"
     inkscape:window-x="0"
     inkscape:window-y="0"
     inkscape:window-maximized="1"
     showguides="true"
     units="px"
     inkscape:pagecheckerboard="true"
     inkscape:snap-global="true" />
  <metadata
     id="metadata5">
    <rdf:RDF>
      <cc:Work
         rdf:about="">
        <dc:format>image/svg+xml</dc:format>
        <dc:type
           rdf:resource="http://purl.org/dc/dcmitype/StillImage" />
        <dc:title>Tuxedo Guy</dc:title>
        <dc:creator>
          <cc:Agent>
            <dc:title>u/natopwns and NiceMicro</dc:title>
          </cc:Agent>
        </dc:creator>
      </cc:Work>
    </rdf:RDF>
  </metadata>
  <g
     inkscape:groupmode="layer"
     id="layer3"
     inkscape:label="Left hand"
     style="display:inline;mix-blend-mode:normal">
    <path
       style="display:inline;fill:#b400b4;fill-opacity:1;stroke:#000000;stroke-width:2.64583;stroke-linecap:butt;stroke-linejoin:miter;stroke-miterlimit:4;stroke-dasharray:none;stroke-opacity:1"
       d="m 144.67618,216.62498 c 0,0 1.12785,3.96189 1.41752,5.9947 0.25616,1.79755 0.71269,3.67738 0.27714,5.44009 -0.37382,1.51284 -1.20797,2.99968 -2.38509,4.02089 -1.10685,0.96025 -2.60097,1.54629 -4.05957,1.68666 -1.77658,0.17096 -3.67633,-0.22352 -5.2456,-1.07373 -1.18154,-0.64011 -2.44463,-1.5808 -2.83428,-2.86685 -0.47021,-1.552 0.78124,-3.16093 0.92507,-4.7762 0.23634,-2.65433 -0.10953,-7.99376 -0.10953,-7.99376 z"
       id="path956-3"
       sodipodi:nodetypes="caaaaaaacc" />
    <path
       style="display:inline;fill:#ffffff;fill-opacity:1;stroke:#000000;stroke-width:2.17069;stroke-linecap:butt;stroke-linejoin:miter;stroke-miterlimit:4;stroke-dasharray:none;stroke-opacity:1"
       d="m 131.57037,195.43155 0.5965,24.81636 c 0,0 5.07212,-0.68202 7.62205,-0.65556 2.17673,0.0226 6.4935,0.69451 6.4935,0.69451 l -0.40547,-24.29192"
       id="path949-6"
       sodipodi:nodetypes="ccacc" />
    <path
       style="display:inline;fill:#212121;fill-opacity:1;stroke:none;stroke-width:2.91042;stroke-linecap:butt;stroke-linejoin:miter;stroke-miterlimit:4;stroke-dasharray:none;stroke-opacity:1"
       d="m 130.69526,183.02122 0.75481,30.73318 c 0,0 5.56709,-0.72539 8.36583,-0.71443 2.78045,0.0109 8.30535,0.77486 8.30535,0.77486 l -0.51309,-30.06954"
       id="path954-7"
       sodipodi:nodetypes="ccacc" />
    <path
       style="display:inline;fill:#1c1c1c;fill-opacity:1;stroke:none;stroke-width:0.264583px;stroke-linecap:butt;stroke-linejoin:miter;stroke-opacity:1"
       d="m 131.45007,213.7544 -0.75481,-30.73318 c 0,0 1.63024,15.56022 5.79918,21.82953 2.70978,4.07501 11.62681,8.96408 11.62681,8.96408 l -7.54832,-1.02206 z"
       id="path1048-6"
       sodipodi:nodetypes="ccaccc" />
    <path
       style="display:inline;fill:#4b2c10;fill-opacity:0;stroke:#000000;stroke-width:2.7468;stroke-linecap:butt;stroke-linejoin:miter;stroke-miterlimit:4;stroke-dasharray:none;stroke-opacity:1"
       d="m 130.69526,183.02122 0.75481,30.73318 c 0,0 5.62303,-0.83263 8.45426,-0.81842 2.75456,0.0138 8.21692,0.87885 8.21692,0.87885 l -0.51309,-30.06954"
       id="path966-5"
       sodipodi:nodetypes="ccacc" />
  </g>
  <g
     inkscape:label="Body"
     inkscape:groupmode="layer"
     id="layer1"
     style="display:inline">
    <path
       id="path889-7-3"
       style="display:inline;fill:#b400b4;fill-opacity:0.998408;stroke:#000000;stroke-width:2.64583;stroke-linecap:butt;stroke-linejoin:miter;stroke-miterlimit:4;stroke-dasharray:none;stroke-opacity:1"
       d="m 101.53042,36.985856 c -8.824771,-0.0057 -16.457444,2.1374 -24.052793,6.753593 -6.99573,5.578325 -15.800833,10.919241 -20.025837,17.541566 -0.203158,0.799588 -0.112437,1.714429 -0.128669,2.573021 -0.304454,16.104306 0.58756,48.317984 0.58756,48.317984 -0.02564,-1.41023 -0.257657,-6.79318 -2.313041,-8.42069 -1.314598,-1.04094 -3.480573,-0.77925 -5.028634,-0.13487 -1.801902,0.75004 -3.289183,2.45109 -4.012673,4.26382 -1.570969,3.93611 -0.877441,8.55623 -0.05633,12.71395 0.433744,2.19627 1.203687,4.43516 2.580203,6.20066 2.912856,3.73597 11.393104,8.4956 11.393104,8.4956 l 0.806928,17.19753 17.740261,72.80111 h 53.505261 l 15.4975,-72.80111 -0.90666,-86.071362 c 0.0271,-1.138539 0.0407,-2.618574 -0.0672,-3.122809 -6.27173,-7.924938 -13.59006,-16.092189 -21.15199,-20.033401 -8.66833,-4.412033 -15.88052,-6.269049 -24.36699,-6.274555 z"
       sodipodi:nodetypes="cccacssssscccccccccc" />
    <path
       style="display:inline;fill:none;stroke:#000000;stroke-width:2.64583;stroke-linecap:butt;stroke-linejoin:miter;stroke-miterlimit:4;stroke-dasharray:none;stroke-opacity:1"
       d="m 113.7669,97.914019 c 0,0 1.71655,5.883591 2.77356,8.757401 1.28358,3.48983 2.58835,6.99475 4.32534,10.28251 0.61385,1.16189 2.12008,1.99669 2.14033,3.31061 0.0196,1.2702 -0.96443,2.48574 -1.96949,3.26268 -0.75609,0.58448 -1.79296,0.82911 -2.74852,0.81555 -2.47964,-0.0352 -4.63746,-1.83247 -7.06938,-2.31787 -2.8884,-0.57651 -8.8098,-0.68131 -8.8098,-0.68131"
       id="path942"
       sodipodi:nodetypes="caaaaaac" />
    <path
       style="fill:none;stroke:#000000;stroke-width:2.64583;stroke-linecap:butt;stroke-linejoin:miter;stroke-miterlimit:4;stroke-dasharray:none;stroke-opacity:1"
       d="m 79.051878,95.216119 c 0,0 4.843506,0.508961 7.275199,0.557621 2.319354,0.04641 6.954825,-0.253834 6.954825,-0.253834"
       id="path943"
       sodipodi:nodetypes="cac" />
    <path
       style="fill:none;stroke:#000000;stroke-width:2.64583;stroke-linecap:butt;stroke-linejoin:miter;stroke-miterlimit:4;stroke-dasharray:none;stroke-opacity:1"
       d="m 128.42907,95.026321 c 0,0 5.61148,0.514731 8.42539,0.526007 2.13759,0.0086 6.40335,-0.348277 6.40335,-0.348277"
       id="path945"
       sodipodi:nodetypes="cac" />
  </g>
  <g
     inkscape:groupmode="layer"
     id="layer11"
     inkscape:label="Mouth"
     style="display:inline">
    <path
       style="fill:none;stroke:#000000;stroke-width:2.64583;stroke-linecap:butt;stroke-linejoin:miter;stroke-miterlimit:4;stroke-dasharray:none;stroke-opacity:1"
       d="m 93.382154,132.84273 c 0,0 12.546546,-1.19866 18.837536,-1.5357 3.5981,-0.19277 7.20864,-0.48028 10.8062,-0.27784 2.04653,0.11516 6.09071,0.8467 6.09071,0.8467 l 0.2396,4.25632 -4.63955,0.98897 -0.18859,3.29787"
       id="path947"
       sodipodi:nodetypes="caacccc" />
  </g>
  <g
     inkscape:groupmode="layer"
     id="layer9"
     inkscape:label="Left Leg"
     style="display:inline">
    <path
       style="fill:#212121;fill-opacity:1;stroke:none;stroke-width:3.29617;stroke-linecap:butt;stroke-linejoin:miter;stroke-miterlimit:4;stroke-dasharray:none;stroke-opacity:1"
       d="m 117.85449,246.65785 -0.0933,10.30751 29.21872,-0.1682 0.68257,-20.84001"
       id="path2571"
       sodipodi:nodetypes="cccc" />
    <path
       id="path999-3"
       style="display:inline;fill:#1c1c1c;fill-opacity:1;stroke:none;stroke-width:0.264583px;stroke-linecap:butt;stroke-linejoin:miter;stroke-opacity:1"
       d="m 123.01988,244.80367 -5.08031,1.82366 -0.17828,10.33787 26.95546,-0.15503 c -4.08866,-0.7687 -11.57021,-2.44202 -15.22904,-4.95784 -2.13436,-1.46758 -4.46823,-4.27634 -6.46783,-7.04866 z" />
    <path
       style="display:inline;fill:#2d1b16;fill-opacity:1;stroke:none;stroke-width:2.19745;stroke-linecap:butt;stroke-linejoin:miter;stroke-miterlimit:4;stroke-dasharray:none;stroke-opacity:1"
       d="m 117.76119,256.96536 c 0,0 -1.34967,2.66721 -0.96272,3.97417 0.20407,0.68928 1.5576,0.76291 1.56693,1.4817 0.009,0.6973 -1.2613,0.81498 -1.48228,1.47641 -0.38488,1.15202 0.51754,3.6069 0.51754,3.6069 h 44.41872 c 0,0 -1.25954,-3.90562 -2.755,-5.15401 -1.8097,-1.51072 -3.70612,-1.51667 -6.73229,-2.16615 -2.20894,-0.4741 -6.53196,-2.88756 -6.53196,-2.88756 z"
       id="path1070-9-3"
       sodipodi:nodetypes="caaaccascc" />
    <path
       style="display:inline;fill:#231510;fill-opacity:1;stroke:none;stroke-width:0.264583px;stroke-linecap:butt;stroke-linejoin:miter;stroke-opacity:1"
       d="m 117.47853,267.39504 42.78215,-0.76227 c 0,0 -22.70399,0.19901 -33.24386,-3.40584 -3.35517,-1.14754 -9.02997,-5.6237 -9.02997,-5.6237 z"
       id="path999-36-3"
       sodipodi:nodetypes="ccacc" />
    <path
       style="display:inline;fill:none;fill-opacity:1;stroke:#000000;stroke-width:2.19745;stroke-linecap:butt;stroke-linejoin:miter;stroke-miterlimit:4;stroke-dasharray:none;stroke-opacity:1"
       d="m 117.76119,256.96536 c 0,0 -1.34967,2.66721 -0.96272,3.97417 0.20407,0.68928 1.5576,0.76291 1.56693,1.4817 0.009,0.6973 -1.2613,0.81498 -1.48228,1.47641 -0.38488,1.15202 0.51754,3.6069 0.51754,3.6069 h 44.41872 c 0,0 -1.25954,-3.90562 -2.755,-5.15401 -1.8097,-1.51072 -3.70612,-1.51667 -6.73229,-2.16615 -2.20894,-0.4741 -6.53196,-2.88756 -6.53196,-2.88756 z"
       id="path904"
       sodipodi:nodetypes="caaaccascc" />
    <path
       style="fill:none;fill-opacity:1;stroke:#000000;stroke-width:3.29617;stroke-linecap:butt;stroke-linejoin:miter;stroke-miterlimit:4;stroke-dasharray:none;stroke-opacity:1"
       d="m 117.85449,246.65785 -0.0933,10.30751 29.21872,-0.1682 0.68257,-20.84001"
       id="path935"
       sodipodi:nodetypes="cccc" />
  </g>
  <g
     inkscape:groupmode="layer"
     id="layer8"
     inkscape:label="Pants"
     style="display:inline">
    <path
       style="fill:none;stroke:#000000;stroke-width:3.29617;stroke-linecap:butt;stroke-linejoin:miter;stroke-miterlimit:4;stroke-dasharray:none;stroke-opacity:1"
       d="m 127.48721,249.64367 -32.755511,0.70687"
       id="path2536"
       sodipodi:nodetypes="cc" />
    <path
       style="fill:#212121;fill-opacity:1;stroke:none;stroke-width:0.330297;stroke-linecap:butt;stroke-linejoin:miter;stroke-miterlimit:4;stroke-dasharray:none;stroke-opacity:1"
       d="m 64.116817,247.08519 -0.870776,-15.97735 83.029499,-1.8011 -0.53721,19.17161 -19.30662,1.16532 -32.217328,0.70687 z"
       id="path2546"
       sodipodi:nodetypes="ccccccc" />
    <path
       style="display:inline;fill:#1c1c1c;fill-opacity:1;stroke:none;stroke-width:0.264583px;stroke-linecap:butt;stroke-linejoin:miter;stroke-opacity:1"
       d="m 64.116817,247.08519 30.614882,3.26535 32.755511,-0.70687 -0.23434,-1.51311 c 0,0 -23.76747,-2.97334 -35.017525,-6.82889 -9.812846,-3.363 -27.776798,-14.03085 -27.776798,-14.03085 z"
       id="path999-3-6"
       sodipodi:nodetypes="ccccacc" />
    <path
       style="fill:none;stroke:#000000;stroke-width:3.2676;stroke-linecap:butt;stroke-linejoin:miter;stroke-miterlimit:4;stroke-dasharray:none;stroke-opacity:1"
       d="m 94.731698,250.35054 32.755512,-0.70687"
       id="path2550" />
    <path
       style="fill:none;fill-opacity:1;stroke:#000000;stroke-width:3.29644;stroke-linecap:butt;stroke-linejoin:miter;stroke-miterlimit:4;stroke-dasharray:none;stroke-opacity:1"
       d="m 147.75011,237.06532 -0.0876,-7.75858 -84.416479,1.8011 0.624748,10.90652"
       id="path2528"
       sodipodi:nodetypes="cccc" />
    <rect
       style="fill:#000000;fill-opacity:1;stroke:none;stroke-width:1.11667;stroke-miterlimit:4;stroke-dasharray:none;stroke-opacity:1"
       id="rect2526"
       width="87.605087"
       height="6.4225893"
       x="61.64431"
       y="224.92017"
       ry="1.695559"
       rx="1.6384256" />
  </g>
  <g
     inkscape:groupmode="layer"
     id="layer10"
     inkscape:label="Right Leg"
     style="display:inline">
    <path
       style="fill:#2d1b16;fill-opacity:1;stroke:none;stroke-width:2.19745;stroke-linecap:butt;stroke-linejoin:miter;stroke-miterlimit:4;stroke-dasharray:none;stroke-opacity:1"
       d="m 63.473673,256.89304 c 0,0 -1.349667,2.66721 -0.962719,3.97417 0.204071,0.68928 1.557597,0.76291 1.566933,1.4817 0.009,0.69731 -1.2613,0.81498 -1.48228,1.47642 -0.384881,1.15201 0.517535,3.60689 0.517535,3.60689 h 44.418728 c 0,0 -1.25955,-3.90562 -2.755,-5.154 -1.80971,-1.51073 -3.70613,-1.51667 -6.732299,-2.16616 -2.20894,-0.47409 -6.531958,-2.88756 -6.531958,-2.88756 z"
       id="path1070-9"
       sodipodi:nodetypes="caaaccascc" />
    <path
       style="display:inline;fill:#231510;fill-opacity:1;stroke:none;stroke-width:0.264583px;stroke-linecap:butt;stroke-linejoin:miter;stroke-opacity:1"
       d="m 63.113142,267.43222 44.302948,-0.93907 c 0,0 -23.478647,0.165 -34.538153,-3.20739 -3.482466,-1.06192 -9.588636,-5.23022 -9.588636,-5.23022 z"
       id="path999-36"
       sodipodi:nodetypes="ccacc" />
    <path
       style="fill:#1c1c1c;fill-opacity:1;stroke:none;stroke-width:3.29617;stroke-linecap:butt;stroke-linejoin:miter;stroke-miterlimit:4;stroke-dasharray:none;stroke-opacity:1"
       d="m 63.815402,237.07867 0.222706,20.31403 29.218725,-0.1682 0.246652,-12.74927"
       id="path2571-1"
       sodipodi:nodetypes="cccc" />
    <path
       style="fill:none;fill-opacity:1;stroke:#000000;stroke-width:2.19745;stroke-linecap:butt;stroke-linejoin:miter;stroke-miterlimit:4;stroke-dasharray:none;stroke-opacity:1"
       d="m 63.473673,256.89304 c 0,0 -1.349667,2.66721 -0.962719,3.97417 0.204071,0.68928 1.557597,0.76291 1.566933,1.4817 0.009,0.69731 -1.2613,0.81498 -1.48228,1.47642 -0.384881,1.15201 0.517535,3.60689 0.517535,3.60689 h 44.418728 c 0,0 -1.25955,-3.90562 -2.755,-5.154 -1.80971,-1.51073 -3.70613,-1.51667 -6.732299,-2.16616 -2.20894,-0.47409 -6.531958,-2.88756 -6.531958,-2.88756 z"
       id="path902"
       sodipodi:nodetypes="caaaccascc" />
    <path
       style="display:inline;fill:#171717;fill-opacity:1;stroke:none;stroke-width:0.264583px;stroke-linecap:butt;stroke-linejoin:miter;stroke-opacity:1"
       d="m 63.473673,256.89304 29.78316,0.33146 c 0,0 -12.876365,-1.88285 -18.056461,-5.44468 -5.107208,-3.51171 -11.38497,-14.70115 -11.38497,-14.70115 z"
       id="path999"
       sodipodi:nodetypes="ccacc" />
    <path
       style="fill:none;fill-opacity:1;stroke:#000000;stroke-width:3.29617;stroke-linecap:butt;stroke-linejoin:miter;stroke-miterlimit:4;stroke-dasharray:none;stroke-opacity:1"
       d="m 63.815402,237.07867 0.222706,20.31403 29.218725,-0.1682 0.246652,-12.74927"
       id="path946"
       sodipodi:nodetypes="cccc" />
  </g>
  <g
     inkscape:groupmode="layer"
     id="layer7"
     inkscape:label="Clothes"
     style="display:inline">
    <path
       style="display:inline;fill:#ffffff;fill-opacity:1;stroke:none;stroke-width:2.64583;stroke-linecap:butt;stroke-linejoin:miter;stroke-miterlimit:4;stroke-dasharray:none;stroke-opacity:1"
       d="m 101.42716,161.21334 14.39037,47.59587 11.57196,-49.08834 -11.28543,4.58741 z"
       id="path1065"
       sodipodi:nodetypes="ccccc" />
    <path
       id="path1033"
       style="fill:#ffffff;fill-opacity:1;stroke:none;stroke-width:0.264583;stroke-linecap:round;stroke-opacity:1"
       inkscape:transform-center-x="-0.30587156"
       inkscape:transform-center-y="-5.4485391"
       transform="rotate(-24.184,145.74403,-22.12146)"
       d="M 32.32959,198.15992 -0.21868997,182.58061 21.464367,180.87653 Z"
       sodipodi:nodetypes="cccc" />
    <path
       id="path1063"
       style="display:inline;fill:#212121;fill-opacity:1;stroke:none;stroke-width:9.99999;stroke-linecap:butt;stroke-linejoin:miter;stroke-miterlimit:4;stroke-dasharray:none;stroke-opacity:1"
       d="m 559.45798,576.33266 -77.9859,27.33675 -43.73654,185.53073 -1.07286,19.51956 137.45831,103.19301 -31.45232,-143.71045 c 0,0 15.6845,-57.23392 18.54766,-86.6239 3.40204,-34.92147 -1.75835,-105.2457 -1.75835,-105.2457 z"
       transform="scale(0.26458334)"
       sodipodi:nodetypes="ccccccac" />
    <path
       id="path993"
       style="display:inline;fill:#1c1c1c;fill-opacity:1;stroke:none;stroke-width:9.99999;stroke-linecap:butt;stroke-linejoin:miter;stroke-miterlimit:4;stroke-dasharray:none;stroke-opacity:1"
       d="m 231.61034,576.33266 -1.80134,105.2457 22.23726,92.22422 -27.76274,151.61336 212.37916,-116.69624 1.07286,-19.51956 -52.15937,-179.11225 z"
       transform="scale(0.26458334)"
       sodipodi:nodetypes="cccccccc" />
    <path
       id="path1020"
       style="fill:#171717;fill-opacity:1;stroke:none;stroke-width:0.999999px;stroke-linecap:butt;stroke-linejoin:miter;stroke-opacity:1"
       d="m 231.61034,576.33266 2.87254,8.2582 92.70462,56.12984 -22.68877,18.30804 133.3841,140.38357 -0.14729,-10.21217 -54.30781,-179.66303 z"
       transform="scale(0.26458334)"
       sodipodi:nodetypes="cccccccc" />
    <path
       style="display:inline;fill:none;fill-opacity:1;stroke:#000000;stroke-width:2.64583;stroke-linecap:butt;stroke-linejoin:miter;stroke-miterlimit:4;stroke-dasharray:none;stroke-opacity:1"
       d="m 101.42716,161.21334 14.39037,47.59587 11.57196,-49.08834 -11.28543,4.58741 z"
       id="path1036"
       sodipodi:nodetypes="ccccc" />
    <path
       id="path1009"
       style="fill:#303030;fill-opacity:1;stroke:none;stroke-width:0.264583px;stroke-linecap:butt;stroke-linejoin:miter;stroke-opacity:1"
       d="m 148.48849,152.48802 -21.099,7.23285 -11.57196,49.08834 23.98795,-37.12746 -8.20403,-4.52471"
       sodipodi:nodetypes="ccccc" />
    <path
       id="path1005"
       style="fill:#2b2b2b;fill-opacity:1;stroke:none;stroke-width:0.264583px;stroke-linecap:butt;stroke-linejoin:miter;stroke-opacity:1"
       d="m 61.280238,152.48802 40.147032,8.72525 14.39026,47.59594 -26.522577,-34.62651 6.68516,-6.02568 -34.699875,-15.669"
       sodipodi:nodetypes="cccccc" />
    <path
       style="fill:none;stroke:#000000;stroke-width:1.32292;stroke-linecap:butt;stroke-linejoin:miter;stroke-miterlimit:4;stroke-dasharray:none;stroke-opacity:1"
       d="m 116.10406,164.30828 -0.28653,44.50093"
       id="path1073" />
    <path
       style="display:inline;fill:none;stroke:#000000;stroke-width:2.64583;stroke-linecap:butt;stroke-linejoin:miter;stroke-miterlimit:4;stroke-dasharray:none;stroke-opacity:1"
       d="m 61.280238,152.48802 34.699873,15.669 -6.685158,6.02568 26.522577,34.62651 -0.28386,5.16455"
       id="path1067"
       sodipodi:nodetypes="ccccc" />
    <path
       style="display:inline;fill:none;stroke:#000000;stroke-width:2.64583;stroke-linecap:butt;stroke-linejoin:miter;stroke-miterlimit:4;stroke-dasharray:none;stroke-opacity:1"
       d="m 148.48849,152.48802 -16.88704,14.66902 8.20403,4.52471 -23.98795,37.12746"
       id="path1069"
       sodipodi:nodetypes="cccc" />
    <ellipse
       style="display:inline;fill:#000000;fill-opacity:1;stroke:none;stroke-width:3.3052;stroke-miterlimit:4;stroke-dasharray:none;stroke-opacity:1"
       id="path1071"
       cx="120.53001"
       cy="211.37454"
       rx="2.4453847"
       ry="2.4509189" />
    <path
       style="display:inline;fill:#171717;fill-opacity:1;stroke:none;stroke-width:0.264583px;stroke-linecap:butt;stroke-linejoin:miter;stroke-opacity:1"
       d="m 59.341682,244.84964 37.110061,-20.4385 c 0,0 -13.116814,-2.91714 -17.346185,-7.60433 -13.092744,-14.51 -17.91698,-55.82672 -17.91698,-55.82672 0,0 -1.082784,12.93936 -0.384945,19.35419 0.904843,8.31769 5.883608,24.40099 5.883608,24.40099 z"
       id="path995"
       sodipodi:nodetypes="ccacacc" />
    <path
       style="display:inline;fill:none;fill-opacity:1;stroke:#000000;stroke-width:2.64583;stroke-linecap:butt;stroke-linejoin:miter;stroke-miterlimit:4;stroke-dasharray:none;stroke-opacity:1"
       d="m 61.280238,152.48802 c 0,0 -1.493378,18.61866 -0.476604,27.84626 0.916375,8.31643 5.883607,24.40099 5.883607,24.40099 l -7.345559,40.11437 56.191988,-30.87588 36.36918,27.30315 -8.32176,-38.02339 c 0,0 4.08493,-15.14974 4.9074,-22.91924 0.97713,-9.23051 0,-27.84626 0,-27.84626 l -24.10728,7.15937 -8.27715,4.66089 -14.0869,-2.88901 z"
       id="path991"
       sodipodi:nodetypes="cacccccaccccc" />
    <path
       style="display:inline;fill:#000000;fill-opacity:1;stroke:none;stroke-width:0.264583px;stroke-linecap:butt;stroke-linejoin:miter;stroke-opacity:1"
       d="m 102.01703,165.65245 -0.81839,14.53136 12.72359,-5.66629 c 0,0 1.50855,0.53473 2.28359,0.47399 0.66759,-0.0523 1.87936,-0.70973 1.87936,-0.70973 l 11.46495,3.92943 -0.40086,-14.56086 -11.9659,4.98146 c 0,0 -0.92755,-0.31688 -1.40692,-0.30149 -0.51634,0.0166 -1.49146,0.42122 -1.49146,0.42122 z"
       id="path1061"
       sodipodi:nodetypes="cccaccccacc" />
    <path
       id="path1062"
       style="fill:none;fill-opacity:1;stroke:#000000;stroke-width:5;stroke-linecap:round;stroke-miterlimit:4;stroke-dasharray:none;stroke-opacity:1"
       inkscape:transform-center-x="-0.30587156"
       inkscape:transform-center-y="-5.4485391"
       d="m 436.66211,808.71875 -72.11914,39.44922 72.11914,1.75586 z"
       transform="scale(0.26458334)" />
    <path
       id="rect1064"
       style="fill:none;fill-opacity:1;stroke:#000000;stroke-width:5.00001;stroke-linecap:round;stroke-miterlimit:4;stroke-dasharray:none;stroke-opacity:1"
       d="m 436.66211,808.71875 v 41.20508 l 64.22266,1.5625 z"
       transform="scale(0.26458334)" />
  </g>
  <g
     inkscape:groupmode="layer"
     id="layer2"
     inkscape:label="Right Hand"
     style="display:inline">
    <path
       style="fill:#b400b4;fill-opacity:1;stroke:#000000;stroke-width:2.64583;stroke-linecap:butt;stroke-linejoin:miter;stroke-miterlimit:4;stroke-dasharray:none;stroke-opacity:1"
       d="m 76.201369,216.62498 c 0,0 1.127848,3.96189 1.417526,5.9947 0.256154,1.79755 0.712689,3.67738 0.277134,5.44009 -0.373819,1.51285 -1.207968,2.99968 -2.385085,4.02089 -1.106858,0.96025 -2.600976,1.5463 -4.059577,1.68666 -1.77658,0.17097 -3.676324,-0.22352 -5.245599,-1.07372 -1.181533,-0.64012 -2.444628,-1.58081 -2.834273,-2.86686 -0.470211,-1.552 0.78124,-3.16093 0.925065,-4.7762 0.236343,-2.65433 -0.109532,-7.99376 -0.109532,-7.99376 z"
       id="path956"
       sodipodi:nodetypes="caaaaaaacc" />
    <path
       style="fill:#ffffff;fill-opacity:1;stroke:#000000;stroke-width:2.17069;stroke-linecap:butt;stroke-linejoin:miter;stroke-miterlimit:4;stroke-dasharray:none;stroke-opacity:1"
       d="m 63.095563,195.43155 0.596496,24.81637 c 0,0 5.072124,-0.68203 7.622051,-0.65557 2.176729,0.0226 6.493503,0.69451 6.493503,0.69451 l -0.405477,-24.29192"
       id="path949"
       sodipodi:nodetypes="ccacc" />
    <path
       style="fill:#1c1c1c;fill-opacity:1;stroke:none;stroke-width:2.91042;stroke-linecap:butt;stroke-linejoin:miter;stroke-miterlimit:4;stroke-dasharray:none;stroke-opacity:1"
       d="m 62.220447,183.02122 0.754809,30.73318 c 0,0 5.567093,-0.72539 8.365833,-0.71443 2.780452,0.0109 8.305352,0.77486 8.305352,0.77486 l -0.513093,-30.06954"
       id="path954"
       sodipodi:nodetypes="ccacc" />
    <path
       style="display:inline;fill:#171717;fill-opacity:1;stroke:none;stroke-width:0.264583px;stroke-linecap:butt;stroke-linejoin:miter;stroke-opacity:1"
       d="m 62.975256,213.7544 -0.754809,-30.73318 c 0,0 1.337359,15.73171 5.552904,22.01847 2.740811,4.08744 11.87309,8.77514 11.87309,8.77514 l -8.438988,-0.81281 z"
       id="path1048"
       sodipodi:nodetypes="ccaccc" />
    <path
       style="fill:none;fill-opacity:1;stroke:#000000;stroke-width:2.74681;stroke-linecap:butt;stroke-linejoin:miter;stroke-miterlimit:4;stroke-dasharray:none;stroke-opacity:1"
       d="m 62.220447,183.02122 0.754809,30.73318 c 0,0 5.623038,-0.83263 8.454264,-0.81841 2.75456,0.0138 8.216921,0.87884 8.216921,0.87884 l -0.513093,-30.06954"
       id="path967"
       sodipodi:nodetypes="ccacc" />
  </g>
  <g
     inkscape:groupmode="layer"
     id="layer5"
     inkscape:label="Facial Hair"
     style="display:inline">
    <path
       id="path871"
       style="display:inline;fill:#00b400;fill-opacity:1;stroke-width:0.999999"
       d="m 221.24299,233.75908 c -3.02854,5.26042 -12.70895,6.80384 -14.39924,11.70772 -5.57464,16.17311 -7.15587,26.87577 -7.16797,48.5332 -0.014,25.30089 13.08399,91.8457 13.08399,91.8457 l 7.97856,2.85032 2.85479,35.98191 2.34243,16.8084 c 0,0 4.35984,15.51367 7.56445,15.51367 4.51139,0 5.44948,-4.46745 17.96484,-85.5 8.09461,-52.40973 10.53416,-75.14781 10.53516,-98.25 3.8e-4,-7.11878 0.36051,-32.29061 0.50793,-33.94901 -14.28812,1.54707 -19.49648,-5.71482 -41.26494,-5.54191 z"
       transform="scale(0.26458334)"
       sodipodi:nodetypes="cscccccssscc" />
    <path
       id="path924"
       style="display:inline;fill:none;fill-opacity:1;stroke:#000000;stroke-width:2.64583;stroke-miterlimit:4;stroke-dasharray:none;stroke-opacity:1"
       d="m 57.660097,61.032878 c -0.319263,0.392748 -1.7696,2.097632 -2.050237,2.735727 -1.822198,4.1432 -1.956149,9.376076 -1.95935,15.106271 -0.0037,6.694194 3.461805,24.300844 3.461805,24.300844"
       sodipodi:nodetypes="cscc" />
    <path
       style="fill:none;stroke:#00b400;stroke-width:2.64583;stroke-linecap:butt;stroke-linejoin:miter;stroke-miterlimit:4;stroke-dasharray:none;stroke-opacity:1"
       d="m 78.277207,85.130598 c 0,0 6.878507,-0.238452 9.047575,-0.08387 2.245506,0.834227 4.056492,2.064598 6.219982,3.298958 2.16349,1.23436 7.019346,4.658942 7.019346,4.658942"
       id="path1041"
       sodipodi:nodetypes="cczc" />
    <path
       style="fill:none;stroke:#00b400;stroke-width:2.64583;stroke-linecap:butt;stroke-linejoin:miter;stroke-miterlimit:4;stroke-dasharray:none;stroke-opacity:1"
       d="m 142.78232,82.922646 c 0,0 -5.99851,-0.230712 -8.16758,-0.07613 -2.05041,1.112216 -2.95958,1.873009 -5.06282,3.40994 -2.10323,1.536931 -6.89526,4.811072 -6.89526,4.811072"
       id="path1043"
       sodipodi:nodetypes="cczc" />
    <rect
       style="display:inline;opacity:1;fill:#b95138;fill-opacity:1;stroke:#000000;stroke-width:1.00013;stroke-miterlimit:4;stroke-dasharray:none;stroke-opacity:1"
       id="rect1220-3"
       width="18.825874"
       height="20.879583"
       x="-245.63362"
       y="1.5571458" />
    <rect
       style="display:inline;opacity:1;fill:#623d18;fill-opacity:1;stroke:#000000;stroke-width:1.00013;stroke-miterlimit:4;stroke-dasharray:none;stroke-opacity:1"
       id="rect1228-5"
       width="18.825874"
       height="20.879583"
       x="-226.80774"
       y="1.5571458" />
    <rect
       style="display:inline;opacity:1;fill:#000000;fill-opacity:1;stroke:#000000;stroke-width:1.00013;stroke-miterlimit:4;stroke-dasharray:none;stroke-opacity:1"
       id="rect1230-6"
       width="18.825874"
       height="20.879583"
       x="-207.98187"
       y="1.5571458" />
    <rect
       style="display:inline;opacity:1;fill:#eed681;fill-opacity:1;stroke:#000000;stroke-width:1.00013;stroke-miterlimit:4;stroke-dasharray:none;stroke-opacity:1"
       id="rect1232-2"
       width="18.825874"
       height="20.879583"
       x="-189.15601"
       y="1.5571458" />
    <rect
       style="display:inline;opacity:1;fill:#e6d5c3;fill-opacity:1;stroke:#000000;stroke-width:1.00013;stroke-miterlimit:4;stroke-dasharray:none;stroke-opacity:1"
       id="rect1234-9"
       width="18.825874"
       height="20.879583"
       x="-170.33014"
       y="1.5571458" />
  </g>
  <g
     inkscape:groupmode="layer"
     id="layer6"
     inkscape:label="Facewear"
     style="display:inline" />
  <g
     inkscape:groupmode="layer"
     id="layer4"
     inkscape:label="Hat Hair"
     style="display:inline">
    <path
       id="path1015"
       style="display:inline;fill:#00b4b4;fill-opacity:1;stroke-width:0.999999"
       d="m 373.5,139.84375 c -34.40542,-0.0215 -64.16512,8.07031 -93.77734,25.49805 -26.61067,15.6612 -43.84415,45.25077 -58.11178,68.44207 0.0239,3.16643 -0.1613,4.17647 -0.0515,7.20759 0.10977,3.03112 26.34735,13.56935 40.52181,17.52721 27.91257,7.79388 57.25465,9.40025 86.13398,11.81695 33.65976,2.81675 67.50745,3.21008 101.2847,3.10382 15.67728,-0.0493 37.12621,-0.25719 47,-1.73633 13.75332,-2.06029 27.97686,-5.45738 37.82812,-9.0332 2.1863,-0.79357 3.82084,-1.29394 4.99219,-1.53515 -0.002,-0.003 -0.0391,-0.0859 -0.0391,-0.0859 20.55234,-9.54557 8.25408,-5.24222 16.63867,-8.94944 -1.65398,-6.67185 -2.05822,-20.6486 -6.3244,-23.81973 -2.07054,-1.53905 -0.72052,-8.66155 -7.59552,-14.66052 -24.89061,-21.719 -48.26995,-37.65069 -73.5,-50.08594 -33.79548,-16.65693 -61.91351,-23.66866 -95,-23.68945 z"
       sodipodi:nodetypes="csczaaasscccssssc"
       transform="scale(0.26458334)" />
    <path
       id="path884"
       style="display:inline;fill:none;fill-opacity:1;stroke:#000000;stroke-width:2.60651;stroke-miterlimit:4;stroke-dasharray:none;stroke-opacity:1"
       d="m 147.13122,67.653317 c 0.0874,-0.823997 0.43882,-3.906089 0.25993,-4.742328 -1.37128,-3.113609 -3.11112,-4.51769 -5.09303,-6.383754 -5.59453,-5.267532 -11.87611,-10.044988 -18.85228,-13.266598 -7.61454,-3.516414 -15.9801,-6.365787 -24.366888,-6.274782 -8.327328,0.09036 -16.844863,2.583491 -24.053249,6.75383 -6.617171,3.828297 -12.083383,9.652759 -16.380896,16.051528 -0.2761,0.412308 -0.945643,1.087656 -1.193235,1.489594"
       sodipodi:nodetypes="ccaaaacc" />
    <rect
       style="display:inline;opacity:1;fill:#b95138;fill-opacity:1;stroke:#000000;stroke-width:1.00013;stroke-miterlimit:4;stroke-dasharray:none;stroke-opacity:1"
       id="rect1220"
       width="18.825874"
       height="20.879583"
       x="-245.63362"
       y="1.5571458" />
    <rect
       style="display:inline;opacity:1;fill:#623d18;fill-opacity:1;stroke:#000000;stroke-width:1.00013;stroke-miterlimit:4;stroke-dasharray:none;stroke-opacity:1"
       id="rect1228"
       width="18.825874"
       height="20.879583"
       x="-226.80774"
       y="1.5571458" />
    <rect
       style="display:inline;opacity:1;fill:#000000;fill-opacity:1;stroke:#000000;stroke-width:1.00013;stroke-miterlimit:4;stroke-dasharray:none;stroke-opacity:1"
       id="rect1230"
       width="18.825874"
       height="20.879583"
       x="-207.98187"
       y="1.5571458" />
    <rect
       style="display:inline;opacity:1;fill:#eed681;fill-opacity:1;stroke:#000000;stroke-width:1.00013;stroke-miterlimit:4;stroke-dasharray:none;stroke-opacity:1"
       id="rect1232"
       width="18.825874"
       height="20.879583"
       x="-189.15601"
       y="1.5571458" />
    <rect
       style="display:inline;opacity:1;fill:#e6d5c3;fill-opacity:1;stroke:#000000;stroke-width:1.00013;stroke-miterlimit:4;stroke-dasharray:none;stroke-opacity:1"
       id="rect1234"
       width="18.825874"
       height="20.879583"
       x="-170.33014"
       y="1.5571458" />
  </g>
</svg>
