<?xml version="1.0" encoding="UTF-8" standalone="no"?>
<svg
   xmlns:dc="http://purl.org/dc/elements/1.1/"
   xmlns:cc="http://creativecommons.org/ns#"
   xmlns:rdf="http://www.w3.org/1999/02/22-rdf-syntax-ns#"
   xmlns:svg="http://www.w3.org/2000/svg"
   xmlns="http://www.w3.org/2000/svg"
   xmlns:sodipodi="http://sodipodi.sourceforge.net/DTD/sodipodi-0.dtd"
   xmlns:inkscape="http://www.inkscape.org/namespaces/inkscape"
   width="768"
   height="1024"
   viewBox="0 0 203.2 270.93334"
   version="1.1"
   id="svg8"
   inkscape:version="1.0.2 (e86c870879, 2021-01-15)"
   sodipodi:docname="character-prototype-2.svg"
   inkscape:export-filename="hair_bob.png"
   inkscape:export-xdpi="96"
   inkscape:export-ydpi="96">
  <title
     id="title909">Red Sweater guy</title>
  <defs
     id="defs2" />
  <sodipodi:namedview
     id="base"
     pagecolor="#ffffff"
     bordercolor="#666666"
     borderopacity="1.0"
     inkscape:pageopacity="0.0"
     inkscape:pageshadow="2"
     inkscape:zoom="0.71449024"
     inkscape:cx="-49.71299"
     inkscape:cy="530.98864"
     inkscape:document-units="px"
     inkscape:current-layer="layer6"
     inkscape:document-rotation="0"
     showgrid="false"
     inkscape:window-width="1920"
     inkscape:window-height="1016"
     inkscape:window-x="0"
     inkscape:window-y="0"
     inkscape:window-maximized="1"
     showguides="true"
     units="px" />
  <metadata
     id="metadata5">
    <rdf:RDF>
      <cc:Work
         rdf:about="">
        <dc:format>image/svg+xml</dc:format>
        <dc:type
           rdf:resource="http://purl.org/dc/dcmitype/StillImage" />
        <dc:title>Red Sweater guy</dc:title>
        <dc:creator>
          <cc:Agent>
            <dc:title>Luke Connor and Nice Micro</dc:title>
          </cc:Agent>
        </dc:creator>
      </cc:Work>
    </rdf:RDF>
  </metadata>
  <g
     inkscape:groupmode="layer"
     id="layer3"
     inkscape:label="Left hand"
     style="display:inline;mix-blend-mode:normal">
    <path
       style="fill:#b400b4;fill-opacity:1;stroke:#000000;stroke-width:2.64583;stroke-linecap:butt;stroke-linejoin:miter;stroke-miterlimit:4;stroke-dasharray:none;stroke-opacity:1"
       d="m 144.67618,216.62498 c 0,0 1.12785,3.96189 1.41752,5.9947 0.25616,1.79755 0.71269,3.67738 0.27714,5.44009 -0.37382,1.51285 -1.20797,2.99968 -2.38509,4.02089 -1.10686,0.96025 -2.60097,1.5463 -4.05958,1.68666 -1.77657,0.17097 -3.67632,-0.22352 -5.24559,-1.07372 -1.18154,-0.64012 -2.44463,-1.58081 -2.83428,-2.86686 -0.47021,-1.552 0.78124,-3.16093 0.92507,-4.7762 0.23634,-2.65433 -0.10953,-7.99376 -0.10953,-7.99376 z"
       id="path956-6"
       sodipodi:nodetypes="caaaaaaacc" />
    <path
       style="display:inline;fill:#d9d9d9;fill-opacity:1;stroke:none;stroke-width:2.91042;stroke-linecap:butt;stroke-linejoin:miter;stroke-miterlimit:4;stroke-dasharray:none;stroke-opacity:1"
       d="m 130.69526,183.02122 1.96658,34.03556 c 0,0 4.76085,-0.35616 7.14338,-0.29916 2.46271,0.0589 7.36055,0.662 7.36055,0.662 l 0.44239,-33.67433"
       id="path954-6"
       sodipodi:nodetypes="ccacc" />
    <path
       style="display:inline;fill:#750420;fill-opacity:1;stroke:none;stroke-width:0.264583px;stroke-linecap:butt;stroke-linejoin:miter;stroke-opacity:1"
       d="m 130.41081,182.99569 c 0,0 5.6767,-1.86197 8.59868,-1.74187 2.9816,0.12255 8.59867,2.49147 8.59867,2.49147 l -1.40455,10.34218 -15.44769,-0.52209 z"
       id="path1060"
       sodipodi:nodetypes="cacccc" />
    <path
       id="path1047"
       style="display:inline;fill:#62041a;fill-opacity:1;stroke:none;stroke-width:0.999999px;stroke-linecap:butt;stroke-linejoin:miter;stroke-opacity:1"
       d="m 497.86523,690.125 c -0.45183,0.13184 -0.99917,0.28703 -1.39843,0.40625 l 1.21093,37.10352 30.89258,-1.88282 24.60157,3.44922 0.0801,-0.58398 c -7.68266,-2.7344 -30.35773,-11.20429 -40.62695,-19.53125 -5.29392,-4.29267 -11.88417,-14.35275 -14.75977,-18.96094 z"
       transform="scale(0.26458334)" />
    <path
       style="display:inline;mix-blend-mode:normal;fill:#4b2c10;fill-opacity:0;stroke:#000000;stroke-width:2.7468;stroke-linecap:butt;stroke-linejoin:miter;stroke-miterlimit:4;stroke-dasharray:none;stroke-opacity:1"
       d="m 131.69968,193.72463 c 0,0 4.76091,-0.35903 7.14337,-0.29916 2.6059,0.0655 7.78701,0.71924 7.78701,0.71924"
       id="path1008-5-3"
       sodipodi:nodetypes="cac" />
    <path
       style="display:inline;mix-blend-mode:normal;fill:#c2c2c2;fill-opacity:1;stroke:none;stroke-width:0.264583px;stroke-linecap:butt;stroke-linejoin:miter;stroke-opacity:1"
       d="m 132.66184,217.05678 0.0886,-11.79105 c 0,0 2.43348,5.32245 4.54378,7.23452 2.72446,2.46853 9.87153,4.91937 9.87153,4.91937 l -7.15933,-1.00266 z"
       id="path1048-3"
       sodipodi:nodetypes="ccaccc" />
    <path
       style="display:inline;fill:#4b2c10;fill-opacity:0;stroke:#000000;stroke-width:2.7468;stroke-linecap:butt;stroke-linejoin:miter;stroke-miterlimit:4;stroke-dasharray:none;stroke-opacity:1"
       d="m 132.75046,205.26573 c 0,0 4.76084,-0.35616 7.14337,-0.29916 2.46272,0.0589 7.36056,0.662 7.36056,0.662"
       id="path1008-5"
       sodipodi:nodetypes="cac" />
    <path
       style="display:inline;fill:#4b2c10;fill-opacity:0;stroke:#000000;stroke-width:2.7468;stroke-linecap:butt;stroke-linejoin:miter;stroke-miterlimit:4;stroke-dasharray:none;stroke-opacity:1"
       d="m 130.69526,183.02122 1.96658,34.03556 c 0,0 4.76085,-0.35616 7.14338,-0.29916 2.46271,0.0589 7.36055,0.662 7.36055,0.662 l 0.44239,-33.67433"
       id="path966-7"
       sodipodi:nodetypes="ccacc" />
  </g>
  <g
     inkscape:label="Body"
     inkscape:groupmode="layer"
     id="layer1"
     style="display:inline">
    <path
       id="path889-7"
       style="display:inline;fill:#b400b4;fill-opacity:0.998408;stroke:#000000;stroke-width:2.64583;stroke-linecap:butt;stroke-linejoin:miter;stroke-miterlimit:4;stroke-dasharray:none;stroke-opacity:1"
       d="m 101.53042,36.985856 c -8.824771,-0.0057 -16.457444,2.1374 -24.052793,6.753593 -6.99573,5.578325 -15.800833,10.919241 -20.025837,17.541566 -0.203158,0.799588 -0.112437,1.714429 -0.128669,2.573021 -0.304454,16.104306 0.58756,48.317984 0.58756,48.317984 -0.02564,-1.41023 -0.257657,-6.79318 -2.313041,-8.42069 -1.314598,-1.04094 -3.480573,-0.77925 -5.028634,-0.13487 -1.801902,0.75004 -3.289183,2.45109 -4.012673,4.26382 -1.570969,3.93611 -0.877441,8.55623 -0.05633,12.71395 0.433744,2.19627 1.203687,4.43516 2.580203,6.20066 2.912856,3.73597 11.393104,8.4956 11.393104,8.4956 l 0.806928,17.19753 17.740261,72.80111 h 53.505261 l 15.4975,-72.80111 -0.90666,-86.071362 c 0.0271,-1.138539 0.0407,-2.618574 -0.0672,-3.122809 -6.27173,-7.924938 -13.59006,-16.092189 -21.15199,-20.033401 -8.66833,-4.412033 -15.88052,-6.269049 -24.36699,-6.274555 z"
       sodipodi:nodetypes="cccacssssscccccccccc" />
    <path
       style="display:inline;fill:none;stroke:#000000;stroke-width:2.64583;stroke-linecap:butt;stroke-linejoin:miter;stroke-miterlimit:4;stroke-dasharray:none;stroke-opacity:1"
       d="m 113.7669,97.914019 c 0,0 1.71655,5.883591 2.77356,8.757401 1.28358,3.48983 2.58835,6.99475 4.32534,10.28251 0.61385,1.16189 2.12008,1.99669 2.14033,3.31061 0.0196,1.2702 -0.96443,2.48574 -1.96949,3.26268 -0.75609,0.58448 -1.79296,0.82911 -2.74852,0.81555 -2.47964,-0.0352 -4.63746,-1.83247 -7.06938,-2.31787 -2.8884,-0.57651 -8.8098,-0.68131 -8.8098,-0.68131"
       id="path942"
       sodipodi:nodetypes="caaaaaac" />
    <ellipse
       style="fill:#000000;fill-opacity:1;stroke:none;stroke-width:4.12258;stroke-miterlimit:4;stroke-dasharray:none;stroke-opacity:1"
       id="path2642"
       cx="86.562805"
       cy="95.314499"
       rx="6.1046596"
       ry="5.9811177" />
    <ellipse
       style="fill:#000000;fill-opacity:1;stroke:none;stroke-width:4.12258;stroke-miterlimit:4;stroke-dasharray:none;stroke-opacity:1"
       id="ellipse2644"
       cx="136.19608"
       cy="95.314499"
       rx="6.1046596"
       ry="5.9811177" />
  </g>
  <g
     inkscape:groupmode="layer"
     id="layer11"
     inkscape:label="Mouth"
     style="display:inline">
    <path
       style="display:inline;fill:#440303;fill-opacity:1;stroke:none;stroke-width:2.64583;stroke-linecap:butt;stroke-linejoin:miter;stroke-miterlimit:4;stroke-dasharray:none;stroke-opacity:1"
       d="m 95.445911,137.98722 c 0,0 -1.09576,-1.51128 -0.93306,-3.19695 3.92572,2.78676 11.435659,4.19218 17.432489,4.69146 5.12232,0.42647 10.25444,-0.1728 15.348,-1.48975 -0.0221,1.2859 -2.21977,2.46098 -2.21977,2.46098 0,0 -6.38565,0.9725 -9.60506,1.02341 -3.44614,0.0545 -6.91635,-0.17395 -10.31102,-0.76985 -3.31108,-0.58123 -9.711579,-2.7193 -9.711579,-2.7193 z"
       id="path905"
       sodipodi:nodetypes="ccaccaac" />
  </g>
  <g
     inkscape:groupmode="layer"
     id="layer9"
     inkscape:label="Left Leg"
     style="display:inline">
    <path
       style="fill:#1a1a1a;fill-opacity:1;stroke:none;stroke-width:3.29617;stroke-linecap:butt;stroke-linejoin:miter;stroke-miterlimit:4;stroke-dasharray:none;stroke-opacity:1"
       d="m 117.85449,246.65785 -0.0933,10.30751 29.21872,-0.1682 0.68257,-20.84001"
       id="path2571"
       sodipodi:nodetypes="cccc" />
    <path
       style="display:inline;fill:#000000;fill-opacity:1;stroke:#000000;stroke-width:2.19745;stroke-linecap:butt;stroke-linejoin:miter;stroke-miterlimit:4;stroke-dasharray:none;stroke-opacity:1"
       d="m 117.76119,256.96536 c 0,0 -1.34967,2.66721 -0.96272,3.97417 0.20407,0.68928 1.5576,0.76291 1.56693,1.4817 0.009,0.6973 -1.2613,0.81498 -1.48228,1.47641 -0.38488,1.15202 0.51754,3.6069 0.51754,3.6069 h 44.41872 c 0,0 -1.25954,-3.90562 -2.755,-5.15401 -1.8097,-1.51072 -3.70612,-1.51667 -6.73229,-2.16615 -2.20894,-0.4741 -6.53196,-2.88756 -6.53196,-2.88756 z"
       id="path1070-9-3"
       sodipodi:nodetypes="caaaccascc" />
    <path
       id="path999-3"
       style="display:inline;fill:#141414;fill-opacity:1;stroke:none;stroke-width:0.264583px;stroke-linecap:butt;stroke-linejoin:miter;stroke-opacity:1"
       d="m 123.01988,244.80367 -5.08031,1.82366 -0.17828,10.33787 26.95546,-0.15503 c -4.08866,-0.7687 -11.57021,-2.44202 -15.22904,-4.95784 -2.13436,-1.46758 -4.46823,-4.27634 -6.46783,-7.04866 z" />
    <path
       style="fill:none;fill-opacity:1;stroke:#000000;stroke-width:3.29617;stroke-linecap:butt;stroke-linejoin:miter;stroke-miterlimit:4;stroke-dasharray:none;stroke-opacity:1"
       d="m 117.85449,246.65785 -0.0933,10.30751 29.21872,-0.1682 0.68257,-20.84001"
       id="path923"
       sodipodi:nodetypes="cccc" />
  </g>
  <g
     inkscape:groupmode="layer"
     id="layer8"
     inkscape:label="Pants"
     style="display:inline">
    <path
       style="fill:none;stroke:#000000;stroke-width:3.29617;stroke-linecap:butt;stroke-linejoin:miter;stroke-miterlimit:4;stroke-dasharray:none;stroke-opacity:1"
       d="m 127.48721,249.64367 -32.755511,0.70687"
       id="path2536"
       sodipodi:nodetypes="cc" />
    <path
       style="fill:#1a1a1a;fill-opacity:1;stroke:none;stroke-width:0.330297;stroke-linecap:butt;stroke-linejoin:miter;stroke-miterlimit:4;stroke-dasharray:none;stroke-opacity:1"
       d="m 64.116817,247.08519 -0.870776,-15.97735 83.029499,-1.8011 -0.53721,19.17161 -19.30662,1.16532 -32.217328,0.70687 z"
       id="path2546"
       sodipodi:nodetypes="ccccccc" />
    <path
       style="display:inline;fill:#141414;fill-opacity:1;stroke:none;stroke-width:0.264583px;stroke-linecap:butt;stroke-linejoin:miter;stroke-opacity:1"
       d="m 64.116817,247.08519 30.614882,3.26535 32.755511,-0.70687 -0.23434,-1.51311 c 0,0 -23.76747,-2.97334 -35.017525,-6.82889 -9.812846,-3.363 -27.776798,-14.03085 -27.776798,-14.03085 z"
       id="path999-3-6"
       sodipodi:nodetypes="ccccacc" />
    <path
       style="fill:none;stroke:#000000;stroke-width:3.2676;stroke-linecap:butt;stroke-linejoin:miter;stroke-miterlimit:4;stroke-dasharray:none;stroke-opacity:1"
       d="m 94.731698,250.35054 32.755512,-0.70687"
       id="path2550" />
    <path
       style="fill:none;fill-opacity:1;stroke:#000000;stroke-width:3.29644;stroke-linecap:butt;stroke-linejoin:miter;stroke-miterlimit:4;stroke-dasharray:none;stroke-opacity:1"
       d="m 147.75011,237.06532 -0.0876,-7.75858 -84.416479,1.8011 0.624748,10.90652"
       id="path2528"
       sodipodi:nodetypes="cccc" />
    <rect
       style="fill:#000000;fill-opacity:1;stroke:none;stroke-width:1.11667;stroke-miterlimit:4;stroke-dasharray:none;stroke-opacity:1"
       id="rect2526"
       width="89.629105"
       height="6.4225893"
       x="60.191002"
       y="224.92017"
       ry="1.695559"
       rx="1.6762795" />
  </g>
  <g
     inkscape:groupmode="layer"
     id="layer10"
     inkscape:label="Right Leg"
     style="display:inline">
    <path
       style="fill:#020202;fill-opacity:1;stroke:#000000;stroke-width:2.19745;stroke-linecap:butt;stroke-linejoin:miter;stroke-miterlimit:4;stroke-dasharray:none;stroke-opacity:1"
       d="m 63.473673,256.89304 c 0,0 -1.349667,2.66721 -0.962719,3.97417 0.204071,0.68928 1.557597,0.76291 1.566933,1.4817 0.009,0.69731 -1.2613,0.81498 -1.48228,1.47642 -0.384881,1.15201 0.517535,3.60689 0.517535,3.60689 h 44.418728 c 0,0 -1.25955,-3.90562 -2.755,-5.154 -1.80971,-1.51073 -3.70613,-1.51667 -6.732299,-2.16616 -2.20894,-0.47409 -6.531958,-2.88756 -6.531958,-2.88756 z"
       id="path1070-9"
       sodipodi:nodetypes="caaaccascc" />
    <path
       style="fill:#141414;fill-opacity:1;stroke:none;stroke-width:3.29617;stroke-linecap:butt;stroke-linejoin:miter;stroke-miterlimit:4;stroke-dasharray:none;stroke-opacity:1"
       d="m 63.815402,237.07867 0.222706,20.31403 29.218725,-0.1682 0.246652,-12.74927"
       id="path2571-1"
       sodipodi:nodetypes="cccc" />
    <path
       style="display:inline;fill:#0f0f0f;fill-opacity:1;stroke:none;stroke-width:0.264583px;stroke-linecap:butt;stroke-linejoin:miter;stroke-opacity:1"
       d="m 63.473673,256.89304 29.78316,0.33146 c 0,0 -12.876365,-1.88285 -18.056461,-5.44468 -5.107208,-3.51171 -11.38497,-14.70115 -11.38497,-14.70115 z"
       id="path999"
       sodipodi:nodetypes="ccacc" />
    <path
       style="fill:none;fill-opacity:1;stroke:#000000;stroke-width:3.29617;stroke-linecap:butt;stroke-linejoin:miter;stroke-miterlimit:4;stroke-dasharray:none;stroke-opacity:1"
       d="m 63.815402,237.07867 0.222706,20.31403 29.218725,-0.1682 0.246652,-12.74927"
       id="path921"
       sodipodi:nodetypes="cccc" />
  </g>
  <g
     inkscape:groupmode="layer"
     id="layer7"
     inkscape:label="Clothes"
     style="display:inline">
    <path
       id="path997"
       style="fill:#ffffff;fill-opacity:1;stroke:#000000;stroke-width:2.11667;stroke-linecap:butt;stroke-linejoin:miter;stroke-miterlimit:4;stroke-dasharray:none;stroke-opacity:1"
       d="m 61.418602,153.34578 0.09405,10.06296 c 0.584171,0.15931 9.343147,2.53681 20.146669,4.79871 10.803523,2.26191 23.651589,4.40822 32.413949,4.10514 2.94043,-0.10171 6.67481,-0.70437 10.60378,-1.54562 2.80403,-0.60039 5.70717,-1.32229 8.49155,-2.07035 6.68582,-1.79622 12.68688,-3.74322 14.98686,-4.52057 l -0.37827,-8.29045 c 0,0 -8.53855,3.16037 -12.26182,4.18329 -4.7121,1.2946 -14.3769,2.86856 -14.3769,2.86856 l -6.45439,7.75405 -6.26215,-8.01605 c 0,0 -18.07562,-1.21656 -26.909981,-3.07888 -6.863602,-1.44686 -20.093348,-6.25079 -20.093347,-6.25079 z"
       sodipodi:nodetypes="ccssssccscccsc" />
    <path
       style="fill:#750420;fill-opacity:1;stroke:none;stroke-width:2.64583;stroke-linecap:butt;stroke-linejoin:miter;stroke-miterlimit:4;stroke-dasharray:none;stroke-opacity:1"
       d="m 62.087172,224.92016 87.509958,0.50499 -1.65376,-61.30564 c 0,0 -22.26136,7.79141 -33.87004,8.19294 -17.832018,0.61678 -52.772768,-8.96025 -52.772768,-8.96025 z"
       id="path989"
       sodipodi:nodetypes="cccacc" />
    <path
       style="display:inline;mix-blend-mode:normal;fill:#62041c;fill-opacity:1;stroke:none;stroke-width:0.264583px;stroke-linecap:butt;stroke-linejoin:miter;stroke-opacity:1"
       d="m 62.087172,224.92016 -0.57452,-61.51142 19.406305,5.13502 c 0,0 6.502749,35.01579 19.129713,45.62125 12.96955,10.89321 49.54846,11.26014 49.54846,11.26014 z"
       id="path1048-3-3-6"
       sodipodi:nodetypes="cccacc" />
    <path
       style="fill:none;fill-opacity:1;stroke:#000000;stroke-width:2.64583;stroke-linecap:butt;stroke-linejoin:miter;stroke-miterlimit:4;stroke-dasharray:none;stroke-opacity:1"
       d="m 62.087172,224.92016 87.509958,0.50499 -1.65376,-61.30564 c 0,0 -22.26136,7.79141 -33.87004,8.19294 -17.832018,0.61678 -52.772768,-8.96025 -52.772768,-8.96025 z"
       id="path983"
       sodipodi:nodetypes="cccacc" />
    <path
       style="fill:none;stroke:#000000;stroke-width:2.11667;stroke-linecap:butt;stroke-linejoin:miter;stroke-miterlimit:4;stroke-dasharray:none;stroke-opacity:1"
       d="m 108.42193,162.67545 -4.53875,8.52107"
       id="path993" />
    <path
       style="fill:none;stroke:#000000;stroke-width:2.11667;stroke-linecap:butt;stroke-linejoin:miter;stroke-miterlimit:4;stroke-dasharray:none;stroke-opacity:1"
       d="m 121.13852,162.93733 6.13928,6.7084"
       id="path995" />
    <path
       style="fill:#989898;fill-opacity:1;stroke:none;stroke-width:0.264583px;stroke-linecap:butt;stroke-linejoin:miter;stroke-opacity:1"
       d="m 105.21035,170.91411 3.39363,-6.28964 5.31957,6.65855 c 0,0 -3.40749,0.0893 -5.1079,0.002 -1.20654,-0.0617 -3.6053,-0.37128 -3.6053,-0.37128 z"
       id="path1003"
       sodipodi:nodetypes="cccac" />
    <path
       style="fill:#989898;fill-opacity:1;stroke:none;stroke-width:0.264583px;stroke-linecap:butt;stroke-linejoin:miter;stroke-opacity:1"
       d="m 125.67173,169.45714 -4.50181,-4.95048 -5.5035,6.64658 c 0,0 2.69425,-0.20934 4.62564,-0.60326 3.32897,-0.55422 5.37967,-1.09284 5.37967,-1.09284 z"
       id="path1006"
       sodipodi:nodetypes="ccccc" />
  </g>
  <g
     inkscape:groupmode="layer"
     id="layer2"
     inkscape:label="Right Hand"
     style="display:inline">
    <path
       style="fill:#b400b4;fill-opacity:1;stroke:#000000;stroke-width:2.64583;stroke-linecap:butt;stroke-linejoin:miter;stroke-miterlimit:4;stroke-dasharray:none;stroke-opacity:1"
       d="m 76.201369,216.62498 c 0,0 1.127848,3.96189 1.417526,5.9947 0.256154,1.79755 0.712689,3.67738 0.277134,5.44009 -0.373819,1.51285 -1.207968,2.99968 -2.385085,4.02089 -1.106858,0.96025 -2.600976,1.5463 -4.059577,1.68666 -1.77658,0.17097 -3.676324,-0.22352 -5.245599,-1.07372 -1.181533,-0.64012 -2.444628,-1.58081 -2.834273,-2.86686 -0.470211,-1.552 0.78124,-3.16093 0.925065,-4.7762 0.236343,-2.65433 -0.109532,-7.99376 -0.109532,-7.99376 z"
       id="path956"
       sodipodi:nodetypes="caaaaaaacc" />
    <path
       style="fill:#d9d9d9;fill-opacity:1;stroke:none;stroke-width:2.91042;stroke-linecap:butt;stroke-linejoin:miter;stroke-miterlimit:4;stroke-dasharray:none;stroke-opacity:1"
       d="m 62.220447,183.02122 1.966584,34.03556 c 0,0 4.760846,-0.35616 7.143376,-0.29916 2.462717,0.0589 7.360556,0.662 7.360556,0.662 l 0.442385,-33.67433"
       id="path954"
       sodipodi:nodetypes="ccacc" />
    <path
       style="fill:#62041a;fill-opacity:1;stroke:none;stroke-width:0.264583px;stroke-linecap:butt;stroke-linejoin:miter;stroke-opacity:1"
       d="m 62.945975,182.88559 c 0,0 5.676698,-1.86197 8.598674,-1.74187 2.9816,0.12255 8.598673,2.49147 8.598673,2.49147 l -1.404549,10.34218 -15.447692,-0.52209 z"
       id="path1058"
       sodipodi:nodetypes="cacccc" />
    <path
       style="display:inline;mix-blend-mode:normal;fill:#4e0416;fill-opacity:1;stroke:none;stroke-width:0.264583px;stroke-linecap:butt;stroke-linejoin:miter;stroke-opacity:1"
       d="m 63.291081,193.45528 -0.345106,-10.56969 c 0,0 2.458968,4.16947 4.299735,5.66209 3.291051,2.6686 11.493063,5.42969 11.493063,5.42969 l -7.274199,-1.02027 z"
       id="path1048-3-3"
       sodipodi:nodetypes="ccaccc" />
    <path
       style="display:inline;mix-blend-mode:normal;fill:#c2c2c2;fill-opacity:1;stroke:none;stroke-width:0.264583px;stroke-linecap:butt;stroke-linejoin:miter;stroke-opacity:1"
       d="m 64.187031,217.05678 0.0886,-11.79105 c 0,0 2.43348,5.32245 4.54378,7.23452 2.72446,2.46853 9.87153,4.91937 9.87153,4.91937 l -7.15933,-1.00266 z"
       id="path1048-3-3-7"
       sodipodi:nodetypes="ccaccc" />
    <path
       style="fill:#4b2c10;fill-opacity:0;stroke:#000000;stroke-width:2.74681;stroke-linecap:butt;stroke-linejoin:miter;stroke-miterlimit:4;stroke-dasharray:none;stroke-opacity:1"
       d="m 62.220447,183.02122 1.966584,34.03556 c 0,0 4.760845,-0.35616 7.143376,-0.29916 2.462717,0.0589 7.360556,0.662 7.360556,0.662 l 0.442385,-33.67433"
       id="path966"
       sodipodi:nodetypes="ccacc" />
    <path
       style="fill:#4b2c10;fill-opacity:0;stroke:#000000;stroke-width:2.74681;stroke-linecap:butt;stroke-linejoin:miter;stroke-miterlimit:4;stroke-dasharray:none;stroke-opacity:1"
       d="m 64.275646,205.26573 c 0,0 4.760846,-0.35616 7.143376,-0.29916 2.462717,0.0589 7.360556,0.662 7.360556,0.662"
       id="path1008"
       sodipodi:nodetypes="cac" />
    <path
       style="display:inline;fill:#4b2c10;fill-opacity:0;stroke:#000000;stroke-width:2.7468;stroke-linecap:butt;stroke-linejoin:miter;stroke-miterlimit:4;stroke-dasharray:none;stroke-opacity:1"
       d="m 63.291081,193.45528 c 0,0 5.392787,-0.23749 8.087136,-0.13991 2.461808,0.0892 7.360556,0.662 7.360556,0.662"
       id="path1008-56"
       sodipodi:nodetypes="cac" />
  </g>
  <g
     inkscape:groupmode="layer"
     id="layer5"
     inkscape:label="Facial Hair"
     style="display:inline">
    <path
       id="rect891"
       style="display:inline;fill:#00b400;fill-opacity:1;stroke:none;stroke-width:0.264134;stroke-miterlimit:4;stroke-dasharray:none;stroke-opacity:1"
       d="m 58.622473,61.961983 c 0,0 2.781451,-1.304919 4.635581,-1.332568 4.129475,-0.06158 12.373174,2.94009 12.373174,2.94009 0,0 1.997974,5.635926 -3.309077,11.965084 -11.401484,7.98718 -9.021231,40.052531 -8.904369,40.042411 l -5.04785,-4.63547 z"
       sodipodi:nodetypes="csccccc" />
    <path
       style="display:inline;fill:#00b400;fill-opacity:1;stroke:none;stroke-width:0.270602px;stroke-linecap:butt;stroke-linejoin:miter;stroke-opacity:1"
       d="m 73.270845,86.315314 c 0,0 7.370603,-2.688534 11.26772,-3.358338 3.435666,-0.590494 7.001955,-0.828454 10.49018,-0.549576 2.852803,0.228077 7.535265,-0.571174 8.337495,1.801933 0.38692,1.14457 -1.55895,2.171181 -2.84916,2.598113 -3.082115,1.019891 -5.557308,-0.726489 -9.870881,-0.688013 -4.369961,0.03898 -7.965722,1.109934 -13.063911,1.271399 -1.132265,0.03586 -4.311443,-1.075518 -4.311443,-1.075518 z"
       id="path897"
       sodipodi:nodetypes="caaaassc" />
    <path
       id="path899"
       style="display:inline;fill:#00b400;fill-opacity:1;stroke:none;stroke-width:0.290703px;stroke-linecap:butt;stroke-linejoin:miter;stroke-opacity:1"
       d="m 138.25514,82.861752 c -2.43781,0.128427 -4.95654,0.275529 -7.23059,1.163271 -1.95036,0.76138 -4.95629,1.392887 -5.23715,3.467671 -0.0815,0.60192 0.6736,1.508942 1.19722,1.373749 3.71327,-0.95873 5.94104,-1.732946 9.0039,-1.998243 3.34182,-0.289461 5.46604,0.124626 10.05255,0.458585 l -0.0304,-3.194904 c -1.95769,-0.508095 -3.12962,-0.876889 -4.73375,-1.10604 -0.99859,-0.14265 -2.01441,-0.217157 -3.02174,-0.164089 z"
       sodipodi:nodetypes="aaasaccaa" />
    <path
       id="rect891-6"
       style="display:inline;fill:none;fill-opacity:1;stroke:#000000;stroke-width:2.64583;stroke-miterlimit:4;stroke-dasharray:none;stroke-opacity:1"
       d="M 57.914743,111.99654 57.284993,61.98161"
       sodipodi:nodetypes="cc" />
    <path
       id="path1301"
       style="display:inline;fill:#00a000;fill-opacity:1;stroke:none;stroke-width:1.09872px;stroke-linecap:butt;stroke-linejoin:miter;stroke-opacity:1"
       d="m 349.23242,311.02734 c -9.96155,-0.0871 -19.9779,0.83788 -29.7168,2.51172 -6.93375,1.19172 -16.73233,4.06977 -25.20898,6.78711 0.90347,-0.16789 25.98861,-4.81615 33.87109,-4.66211 14.60875,0.75575 28.75612,0.49536 42.72071,4.85156 4.14572,1.29325 9.4069,2.74158 14.56445,5.10547 3.39009,-1.93419 6.16185,-4.54243 5.21289,-7.34961 -3.03205,-8.96922 -20.72947,-5.94852 -31.51172,-6.81054 -3.29596,-0.26351 -6.61112,-0.40456 -9.93164,-0.4336 z"
       transform="scale(0.26458334)" />
    <path
       id="path1330"
       style="display:inline;fill:#00a000;fill-opacity:1;stroke:none;stroke-width:1.09872px;stroke-linecap:butt;stroke-linejoin:miter;stroke-opacity:1"
       d="m 525.39844,313.11523 c -0.9543,-0.007 -1.90757,0.0124 -2.85938,0.0625 -9.21377,0.4854 -18.73329,1.04124 -27.32812,4.39649 -2.32537,0.90777 -5.04207,1.78257 -7.71289,2.7793 -1.03253,0.43015 -2.05077,0.83528 -3.05664,1.21484 -0.003,0.001 -0.005,0.003 -0.008,0.004 -0.12676,0.056 -0.24744,0.1168 -0.37304,0.17382 12.37252,0.29035 36.79701,-4.26167 48.48633,-0.61523 5.49306,1.71355 12.3529,5.13038 19.03906,8.89453 6.8e-4,5e-5 10e-4,-5e-5 0.002,0 0.13364,0.01 0.24415,0.0195 0.37891,0.0293 l -0.11524,-12.07617 c -4.6253,-1.20045 -8.08902,-2.19395 -11.51758,-2.98243 -0.68563,-0.15771 -1.36882,-0.30798 -2.06054,-0.44921 -1.38339,-0.28242 -2.79679,-0.53153 -4.3125,-0.74805 -0.84242,-0.12034 -1.68929,-0.22423 -2.53711,-0.31641 -0.25997,-0.0283 -0.5209,-0.0509 -0.78125,-0.0762 -0.61753,-0.06 -1.23643,-0.1103 -1.85547,-0.15234 -0.27227,-0.0185 -0.54397,-0.038 -0.81641,-0.0527 -0.85699,-0.0464 -1.71496,-0.08 -2.57226,-0.0859 z"
       transform="scale(0.26458334)" />
  </g>
  <g
     inkscape:groupmode="layer"
     id="layer6"
     inkscape:label="Facewear"
     style="display:inline">
    <path
       style="fill:none;stroke:#000000;stroke-width:1.64809;stroke-linecap:butt;stroke-linejoin:miter;stroke-miterlimit:4;stroke-dasharray:none;stroke-opacity:1"
       d="m 57.22544,104.3261 c 0,0 4.69607,-6.836465 8.146052,-8.906352 2.927469,-1.756394 9.921296,-2.542209 9.921296,-2.542209"
       id="path926"
       sodipodi:nodetypes="cac" />
    <g
       id="g982"
       transform="translate(-2.020257,-3.14064)">
      <ellipse
         style="fill:#a9a9a9;fill-opacity:0.561272;stroke:none;stroke-width:2.13944;stroke-miterlimit:4;stroke-dasharray:none;stroke-opacity:1"
         id="path934"
         cx="90.717178"
         cy="99.172714"
         rx="13.317768"
         ry="13.515297" />
      <path
         style="fill:#f5f5f5;fill-opacity:0.468794;stroke:none;stroke-width:1.0451;stroke-linecap:butt;stroke-linejoin:miter;stroke-miterlimit:4;stroke-dasharray:none;stroke-opacity:1"
         d="m 81.378779,89.629399 4.730563,11.580911 3.741769,-2.007349 4.909584,12.773739 5.548305,-2.55479 -7.12108,-16.905707 -2.707377,2.460035 -3.859686,-8.672283 z"
         id="path928" />
      <ellipse
         style="fill:none;fill-opacity:1;stroke:#010501;stroke-width:1.38418;stroke-miterlimit:4;stroke-dasharray:none;stroke-opacity:1"
         id="ellipse1001"
         cx="90.717178"
         cy="99.172714"
         rx="13.317768"
         ry="13.515297" />
    </g>
    <g
       id="g987"
       transform="translate(-2.259538,-3.7734645)">
      <ellipse
         style="fill:#a9a9a9;fill-opacity:0.561272;stroke:none;stroke-width:1.94731;stroke-miterlimit:4;stroke-dasharray:none;stroke-opacity:1"
         id="ellipse940"
         cx="139.31836"
         cy="100.32269"
         rx="11.652307"
         ry="12.797073" />
      <path
         style="fill:#f5f5f5;fill-opacity:0.468794;stroke:none;stroke-width:1.03883;stroke-linecap:butt;stroke-linejoin:miter;stroke-miterlimit:4;stroke-dasharray:none;stroke-opacity:1"
         d="m 132.15323,90.468753 5.76553,13.011727 3.78403,-2.7043 4.10294,10.86121 3.87129,-4.09307 -4.75182,-12.355574 -3.15492,1.801864 -4.57629,-9.177614 z"
         id="path932"
         sodipodi:nodetypes="ccccccccc" />
      <ellipse
         style="fill:none;fill-opacity:1;stroke:#010501;stroke-width:1.37588;stroke-miterlimit:4;stroke-dasharray:none;stroke-opacity:1"
         id="ellipse1003"
         cx="139.31836"
         cy="100.32269"
         rx="11.652307"
         ry="12.797073" />
    </g>
    <path
       style="fill:none;stroke:#000000;stroke-width:1.64809;stroke-linecap:butt;stroke-linejoin:miter;stroke-miterlimit:4;stroke-dasharray:none;stroke-opacity:1"
       d="m 101.65828,93.858594 c 0,0 9.61549,-4.13915 14.64773,-3.796368 3.5004,0.238437 9.73667,3.998006 9.73667,3.998006"
       id="path1005"
       sodipodi:nodetypes="cac" />
    <path
       style="fill:none;stroke:#000000;stroke-width:1.64809;stroke-linecap:butt;stroke-linejoin:miter;stroke-miterlimit:4;stroke-dasharray:none;stroke-opacity:1"
       d="m 92.148499,83.135382 c 0,0 15.499461,1.193448 23.266381,1.330489 6.50706,0.114812 19.51957,-0.42634 19.51957,-0.42634"
       id="path935"
       sodipodi:nodetypes="cac" />
  </g>
  <g
     inkscape:groupmode="layer"
     id="layer4"
     inkscape:label="Hat Hair"
     style="display:inline;opacity:1">
    <path
       style="display:inline;mix-blend-mode:normal;fill:#00b4b4;fill-opacity:1;stroke:none;stroke-width:0.264583px;stroke-linecap:butt;stroke-linejoin:miter;stroke-opacity:1"
       d="m 58.621741,63.368556 17.009487,0.200949 c 0,0 19.698915,0.566225 29.549542,0.803741 5.57483,0.134419 11.15015,0.454713 16.72565,0.351644 7.17074,-0.132559 16.96351,-0.692395 21.47974,-1.246987 4.51623,-0.554593 4.03667,-0.269716 5.67512,-1.311411 2.32697,-1.479438 4.14268,-3.924684 5.10624,-6.508299 1.48028,-3.969126 1.49454,-8.548891 0.61841,-12.693476 -0.74769,-3.53697 -2.52019,-6.941987 -4.86652,-9.692247 -2.03226,-2.382129 -4.929,-3.894246 -7.62613,-5.484874 -2.3368,-1.37812 -4.72102,-2.836788 -7.35592,-3.482665 -4.95382,-1.214302 -10.21134,-1.061149 -15.29003,-0.590273 -2.09776,0.194496 -4.29529,0.426242 -6.1631,1.400785 -2.35216,1.227255 -3.71393,3.834409 -5.88668,5.356891 -3.16817,2.219987 -6.68203,3.960182 -10.272099,5.401387 -5.769014,2.315923 -12.006419,3.245859 -17.92633,5.143139 -4.956164,1.588407 -9.780003,3.566974 -14.714961,5.220089 -1.450882,0.486017 -3.400766,0.203301 -4.377722,1.380938 -2.890258,4.406084 -1.50782,9.743218 -1.690328,14.660801 -0.0133,0.386502 0.0056,1.089868 0.0056,1.089868 z"
       id="path953"
       sodipodi:nodetypes="ccaazaaaaaaaaaaaacccc" />
    <rect
       style="fill:#b95138;fill-opacity:1;stroke:#000000;stroke-width:1.00013;stroke-miterlimit:4;stroke-dasharray:none;stroke-opacity:1"
       id="rect1220"
       width="18.825874"
       height="20.879583"
       x="-245.63362"
       y="1.5571458" />
    <rect
       style="fill:#623d18;fill-opacity:1;stroke:#000000;stroke-width:1.00013;stroke-miterlimit:4;stroke-dasharray:none;stroke-opacity:1"
       id="rect1228"
       width="18.825874"
       height="20.879583"
       x="-226.80774"
       y="1.5571458" />
    <rect
       style="fill:#000000;fill-opacity:1;stroke:#000000;stroke-width:1.00013;stroke-miterlimit:4;stroke-dasharray:none;stroke-opacity:1"
       id="rect1230"
       width="18.825874"
       height="20.879583"
       x="-207.98187"
       y="1.5571458" />
    <rect
       style="fill:#eed681;fill-opacity:1;stroke:#000000;stroke-width:1.00013;stroke-miterlimit:4;stroke-dasharray:none;stroke-opacity:1"
       id="rect1232"
       width="18.825874"
       height="20.879583"
       x="-189.15601"
       y="1.5571458" />
    <rect
       style="fill:#e6d5c3;fill-opacity:1;stroke:#000000;stroke-width:1.00013;stroke-miterlimit:4;stroke-dasharray:none;stroke-opacity:1"
       id="rect1234"
       width="18.825874"
       height="20.879583"
       x="-170.33014"
       y="1.5571458" />
    <path
       id="path874-3-5"
       style="display:inline;fill:#00c9c9;fill-opacity:1;stroke:none;stroke-width:1.09418px;stroke-linecap:butt;stroke-linejoin:miter;stroke-opacity:1"
       d="m 515.37109,98.55273 c 0,0 44.74468,30.68233 51.45703,54.83204 5.0981,18.34195 -2.67271,39.2364 -11.98632,55.83984 -7.72555,13.77239 -34.34375,32.63086 -34.34375,32.63086 l 15.27734,-1.27539 c 2.21564,-0.22016 4.3513,-0.44242 6.15625,-0.66406 17.06922,-2.0961 15.25665,-1.01797 21.44922,-4.95508 2.72014,-1.72941 5.25407,-3.81124 7.56641,-6.14649 3.68879,-7.33192 8.32729,-17.41803 9.66601,-24.35937 2.78146,-14.42207 5.62997,-30.40025 3.70313,-45.04297 -2.40312,-9.40752 -6.68613,-18.48726 -12.24219,-26.54492 -15.24949,-15.27831 -56.70313,-34.31446 -56.70313,-34.31446 z"
       transform="scale(0.26458334)"
       sodipodi:nodetypes="caaccsscsccc" />
    <path
       id="path1113"
       style="display:inline;fill:#00c2c2;fill-opacity:1;stroke:none;stroke-width:1.09418px;stroke-linecap:butt;stroke-linejoin:miter;stroke-opacity:1"
       d="m 483.23222,93.321859 c 0,0 23.72173,24.735951 27.17042,40.670941 4.96684,22.94976 -2.75403,47.68565 -11.41007,69.51302 -6.05175,15.26027 -27.49843,40.85746 -27.49843,40.85746 L 502.67773,243 c 0,0 15.49759,-32.13052 18.49647,-49.48192 3.70742,-21.45101 7.7608,-45.37456 -1.00814,-65.29933 -6.82271,-15.50254 -36.93384,-34.896891 -36.93384,-34.896891 z"
       transform="scale(0.26458334)"
       sodipodi:nodetypes="caaccaac" />
    <path
       style="display:inline;mix-blend-mode:normal;fill:none;fill-opacity:1;stroke:#000000;stroke-width:2.64583;stroke-linecap:butt;stroke-linejoin:miter;stroke-miterlimit:4;stroke-dasharray:none;stroke-opacity:1"
       d="m 145.52708,63.985576 4.24767,-1.001155 c 0,0 3.56654,-4.601322 4.39277,-7.326233 1.2292,-4.053921 1.49454,-8.548891 0.61841,-12.693476 -0.74769,-3.53697 -2.52019,-6.941987 -4.86652,-9.692247 -2.03226,-2.382129 -4.929,-3.894246 -7.62613,-5.484874 -2.3368,-1.37812 -4.72102,-2.836788 -7.35592,-3.482665 -4.95382,-1.214302 -10.21134,-1.061149 -15.29003,-0.590273 -2.09776,0.194496 -4.29529,0.426242 -6.1631,1.400785 -2.35216,1.227255 -3.71393,3.834409 -5.88668,5.356891 -3.16817,2.219987 -6.68203,3.960182 -10.272099,5.401387 -5.769014,2.315923 -12.006419,3.245859 -17.92633,5.143139 -4.956164,1.588407 -9.754577,3.644911 -14.714961,5.220089 -1.432819,0.454994 -3.316253,0.121275 -4.341662,1.220605 -3.361369,3.603688 -3.002459,14.475965 -3.002459,14.475965"
       id="path970"
       sodipodi:nodetypes="ccaaaaaaaaaaaac" />
  </g>
</svg>
